<svg version="1.1" xmlns="http://www.w3.org/2000/svg" xmlns:xlink="http://www.w3.org/1999/xlink" width="1024" height="1024" viewBox="0 0 1024 1024"><path stroke="none" fill="black" fill-rule="evenodd" d="M556.0,699.3934491055677C455.625,699.5387368335686 360.45,699.5338446257596 344.5,699.3825775326586C328.55,699.2313104395575 291.65,698.6144671013715 262.5,698.0118145589115C233.35,697.4091620164517 192.4,696.2593398012145 171.5,695.4566540806068C150.6,694.653968359999 126.525,693.5376353490349 118.0,692.975914056242C109.475,692.4141927634491 98.45,691.4815147161701 93.5,690.9032961733997C88.55,690.3250776306293 81.1339194743048,689.170690118571 77.01982105401066,688.337990591048C72.90572263371652,687.505291063525 68.74322263371651,686.3977606825057 67.76982105401063,685.8768119665606C66.79641947430476,685.3558632506155 65.99999999999996,683.8750593289456 65.99999999999997,682.5861365850717C65.99999999999999,680.9651493382607 66.84783540366973,679.9006827257681 68.75,679.133481539429C70.2625,678.5234440081994 74.76901287072177,677.3486683547482 78.76447304604838,676.5228689762042C82.759933221375,675.6970695976603 93.10993322137499,674.3464837650218 101.76447304604838,673.5215671258966C110.41901287072177,672.6966504867714 119.525,671.9043319856207 122.0,671.7608593455618L126.5,671.5L126.7610797772617,630.2663124955423L127.0221595545234,589.0326249910845L153.7610797772617,588.7663124955423L180.5,588.5L181.03058376773924,582.0C181.3857135108392,577.6494271583446 182.47627431965205,573.7436442891096 184.32850676539186,570.1886722462461C185.96121946825542,567.0550223493028 186.85036926813598,564.1039158122338 186.49713147477257,562.9909620773158C186.16783848847956,561.9534517489685 182.4677630891133,559.1685492381578 178.27474169840306,556.8022898310695C174.08172030769282,554.4360304239813 169.26707649298885,551.0930462695417 167.57553322128314,549.3734361545371C165.88398994957743,547.6538260395326 163.99147929757754,545.5931038970912 163.36995399461676,544.7940536157784C162.74842869165596,543.9950033344655 157.36111840250908,542.124131478899 151.3981533520681,540.6365606034083C144.89199603591277,539.0134804657579 139.69489887642152,537.1225492088649 138.40210043090184,535.9080281302394C137.18885383341043,534.768242132406 136.01264361976982,532.1309322395332 135.70946656052536,529.8705784789155C135.41338198801878,527.6631031554394 133.9971719386723,524.0830151113437 132.56233311753314,521.9148272698138L129.9535352609165,517.9726675579413L126.72676763045826,519.6453318971472C124.9036680111778,520.5903747602298 121.10745893549779,521.3367347484177 118.0,521.3610725362271C114.975,521.3847645011576 110.1049777127009,520.5912481715978 107.17772825044645,519.5977029149828C104.250478788192,518.604157658368 98.53629735760626,515.5712679587236 94.47954729358926,512.8579480268844C90.42279722957227,510.14462809504516 85.287248110656,505.86111107529194 83.06721591821977,503.33902131632175C80.84718372578355,500.81693155735155 77.44448212891687,496.36352403144497 75.50565681407159,493.44256014764045C73.5668314992263,490.52159626383593 70.46751919855747,484.5968158004237 68.61829614591863,480.27638134005775C66.7690730932798,475.9559468796918 64.5234561207322,469.1999781634252 63.62803620692398,465.263117526132C62.73261629311576,461.3262568888388 61.99999999999997,456.52235423970427 62.0,454.5877783058329C62.00000000000004,452.1336731992714 62.58472217956778,450.75743370324363 63.934258545910836,450.03518375848796C64.99810074616177,449.4658326913196 68.79368151721519,449.0 72.3688824815851,449.0C75.94408344595502,448.99999999999994 82.04638058057598,449.66833048994823 85.92954278074279,450.4851788665517C89.8127049809096,451.30202724315507 95.80462420985617,453.1541399229047 99.2449188450685,454.60098482155075C102.68521348028082,456.04782972019683 108.65,459.26535201318916 112.5,461.7510343615337C116.35,464.23671670987824 122.2235218574642,469.08529440847934 125.5522707943649,472.5256514695361C128.8810197312656,475.96600853059283 133.10882837959014,481.60317719046265 134.94740112397497,485.05269293591346C137.46399375751864,489.77430427318956 138.40764731918406,492.96517227618125 138.76517634900864,497.96210938179087C139.15008684873047,503.3417384411224 138.8383046288866,505.43128317155947 137.12004601939856,508.9876688663576C135.95402070872936,511.40106328308747 135.00000000000003,513.7841687793621 135.0,514.2834588580788C134.99999999999997,514.7827489367957 135.85705902070458,516.3948874061224 136.90457560156574,517.865988789916C137.95209218242692,519.3370901737094 139.5723611206796,522.8740985580482 140.50517324212723,525.7260074217799C141.9220775178719,530.0579428352954 142.71949877124996,531.068550423182 145.35059764056143,531.8668302840308C147.08276893825266,532.3923739945371 151.875,533.6076650927713 156.0,534.5674771689957C162.09620507733456,535.9859526241147 164.20279413177101,537.0109028646182 167.25479060593437,540.0434385645393L171.00958121186872,543.7742870942205L175.04894209974785,538.6371435471103C177.27059058808138,535.8117145961996 180.53093481541092,531.746946635003 182.2941514938135,529.6043258555624C184.05736817221606,527.4617050761216 185.83440878280845,525.144684862873 186.24313062846323,524.4553920483431C186.651852474118,523.7660992338134 186.31712480782684,521.9191525988103 185.49929137003846,520.3510661927809C184.68145793225008,518.7829797867514 184.00954914944163,516.5096494963045 184.00616074157526,515.2992211028989C184.0027723337089,514.0887927094933 184.48709190244716,510.8272109934007 185.08242644988255,508.0512617338042C185.71706146226498,505.0920607260242 188.16824925465636,499.93518581911826 191.0075743600926,495.58577595066106C194.02347030145432,490.9658866873697 198.42484281077137,486.03221651939697 202.67514791021006,482.50713754071325C206.42881655959454,479.3939543363742 213.55,474.8963109001919 218.5,472.51237434919705C223.45,470.1284377982022 230.425,467.4909483840717 234.0,466.6512867622404C237.575,465.8116251404091 243.54166360810407,464.8187181510446 247.25925246245347,464.4448267858748C251.80765221847665,463.98737776158913 254.9967347401659,464.17022036034587 257.00925246245345,465.0038324954336C259.51350306878476,466.041127060157 260.0,466.80422732905436 260.0,469.6950034025243C260.0,471.59380289599704 258.87163483283763,476.5087076127674 257.49252185075034,480.61701388423614C256.113408868663,484.7253201557049 253.57646442180337,490.8796627791708 251.85486752439556,494.2933308252715C250.13327062698778,497.70699887137215 246.76607765736122,503.04754710458826 244.372216480781,506.16121578797396C241.97835530420076,509.27488447135966 237.49233346718339,514.0750738955214 234.40327906518684,516.8283033972223C231.31422466319032,519.5815328989232 225.57228279997923,523.4553298587678 221.64340825805112,525.4367410857658C217.714533716123,527.4181523127638 211.92221921654652,529.5713199725395 208.7715982589923,530.2215581074896C204.6099875262239,531.0804484779023 201.73810347718046,531.1156477775864 198.2715982589923,530.3502515506689C195.64721921654655,529.7707948094674 192.78982667662265,528.9864657936323 191.92183705916148,528.6072981821467C190.7630772717879,528.1011121955571 188.43772955397338,530.2168351033641 183.17183705916148,536.5685055755556C179.22732667662265,541.3263372534162 175.99999999999997,545.6060959530968 176.0,546.0790804637346C176.00000000000003,546.5520649743725 179.3448275034785,549.1961185754471 183.43295000773003,551.9547551327894C187.52107251198152,554.7133916901316 191.5710725119815,557.977232731881 192.43295000773003,559.2077352255658C193.29482750347853,560.4382377192507 194.0,562.4827171899552 194.0,563.7510229382428C193.99999999999997,565.0193286865303 192.64999999999995,568.7313683643209 190.99999999999997,571.9999999999998C188.74821541925303,576.4607601923412 188.0,579.317798662912 188.0,583.4554113576928L187.99999999999997,588.9678561050606L215.25,589.2339280525302L242.5,589.5L242.76174331210646,628.25L243.02348662421292,667.0L251.76174331210646,666.992890956572C256.56778449044793,666.9889809826865 263.4831547288313,666.7039836616794 267.12923273073625,666.3595635765564L273.7584654614725,665.7333452399691L274.20653456486116,657.9932171997966L274.6546036682499,650.2530891596242L287.60868160398053,633.8765445798122C294.7334244686324,624.8694450609155 302.68613864327614,614.7216803612428 305.28137976985556,611.3259563583172L310.0,605.1519127166345L310.0,524.609943266401L310.0,444.06797381616764L302.0520503263165,448.0339869080838C297.6806780057905,450.2152941086377 292.73350059546516,452.0 291.0583227478156,452.0C288.62764117483897,452.0 287.38695489048416,451.1417104293165 284.9148055845943,447.75C283.2110489924721,445.4125 280.96599296602335,441.84565085186665 279.9257921924859,439.8236685597036L278.03451805878154,436.14733711940727L271.852177180594,437.8236685597036L265.66983630240645,439.5L265.3145925334223,446.5C265.119208460481,450.35 264.7475970955876,454.46199791751104 264.4887895003259,455.63777315002454C264.1908469062955,456.99134054597937 262.5401310840407,458.36696432426834 259.9888786735772,459.38777315002454C257.410927530077,460.41926469075185 252.95880863777222,461.0 247.6289868206955,461.0C243.04718966106066,461.00000000000006 237.8717970708207,460.5026673199698 236.12811439794007,459.8948162665996C234.38443172505944,459.28696521322934 232.51728125570813,457.96654886756954 231.97889113271495,456.96055772068894C231.44050100972177,455.95456657380834 231.00000000000006,451.5840792646708 231.00000000000003,447.2483637003832L231.0,439.36524449258764L225.49151683000122,437.6288481393105C222.4618510865019,436.6738301450081 219.54219032643297,436.164907949893 219.00338180762583,436.49790992794374C218.46457328881868,436.8309119059944 216.81975623496677,439.2176102541369 215.348232799066,441.801684034927C213.87670936316522,444.38575781571717 211.53717908108942,447.7375 210.14927661667534,449.25C208.76137415226125,450.7625 206.7809302966463,452.0 205.7482902708643,451.99999999999994C204.7156502450823,451.9999999999999 201.53734128722704,451.0170526552051 198.68538147563032,449.8156725671225C195.83342166403366,448.6142924790399 191.16166467935957,446.1603399588302 188.3036992874657,444.36244474443424C185.44573389557183,442.56454953003833 182.36152706630844,439.9552005484269 181.44990633354706,438.5638914519643C180.0850862070579,436.4809126552146 179.9917030739818,435.4573461308352 180.92104891709917,432.7671192746526C181.54179807081422,430.9702036735937 183.67018870558613,426.8653376516628 185.6508058832589,423.6451947814728L189.25192802448217,417.7903895629457L186.25826823231233,414.79672977077394L183.26460844014252,411.8030699786022L175.79699381019068,415.90153498930107C170.92276894075138,418.5766650102786 167.0679381236162,419.99999999999994 164.69708455461512,420.0C161.46950674480215,420.0 160.607505873734,419.3943316319519 156.9607093684455,414.5641844563234C154.70346506014522,411.57448590730127 151.98888732612215,406.84465896514985 150.9283144039498,404.0534579182091C149.86774148177741,401.2622568712684 149.00000000000003,397.82879021158266 149.00000000000006,396.4235320077963C149.0000000000001,395.01827380401005 149.44159613993415,393.0433871566722 149.98132475540905,392.03489501371223C150.52105337088398,391.02640287075224 154.37568159771746,388.32809210320556 158.54716525948345,386.03864886360844C165.9859842145675,381.9559878374128 166.11878753800553,381.8147838107312 165.46048760056772,378.6880123958068C165.09133122639804,376.93460557811306 164.36856976400225,375.0543667644339 163.85435101746597,374.5097039209643C163.3401322709297,373.9650410774946 159.12402129845967,373.5150410774946 154.48521552308813,373.5097039209643C146.6087397172784,373.50064167815464 145.8674906744835,373.3167197387833 143.2755116021154,370.72830338498545C140.566021048559,368.0225370714948 140.5,367.6855410908699 140.5,356.56106014202373C140.5,345.9602466553783 140.66472882495975,344.9900147926553 142.8620192845129,342.6490664714543C144.91398511626338,340.46294403683777 146.39536765730983,340.0409880367448 154.14734476151511,339.43456200277126C160.98079501928905,338.8999910046282 163.28062952221487,338.3441560330932 163.96722139547728,337.06124738279686C164.46033513828735,336.1398559261443 165.00693867363637,334.0839040750917 165.18189591847508,332.49246549156896C165.47301758141035,329.8443771124816 164.91626577388973,329.2775801546253 158.61817659211897,325.8103207797826C154.8331737177844,323.7265797718229 151.1349852351269,321.22931809311564 150.3999799639912,320.26085038265524C149.66497469285548,319.29238267219483 149.04929522640194,317.30444774004843 149.03180337187223,315.8432172001077C149.01431151734252,314.3819866601669 150.3559979871025,310.16417053768726 152.01332886022774,306.47029248348633C153.67065973335298,302.77641442928535 156.40847292611272,298.0094666892369 158.0973581774716,295.87707528337864C160.6281553234656,292.6816834829316 161.7909794062177,292.00000000000006 164.71092095702994,292.00000000000006C166.98821730471792,292.00000000000006 170.9251559518362,293.474630293479 175.73210189597097,296.1281230771455L183.21042051236978,300.256246154291L186.68356785486498,296.7830988118016L190.15671519736017,293.30995146931224L186.0458902415058,286.94970615325855C183.7849365157859,283.451571229429 181.67506917341666,279.55355381457866 181.35729614735197,278.2874452313689C181.017924450806,276.935280690481 181.46609541085792,274.93759380034066 182.44346279199164,273.4459426354556C183.35862747260816,272.0492247909131 186.60080894532783,269.31144030775124 189.64831050914648,267.36197711731825C192.6958120729651,265.4125139268852 197.05914739360568,262.9684443068963 199.34461122168108,261.93071129512066C201.6300750497565,260.892978283345 204.93185760521283,260.0340411007619 206.6819057893618,260.0219620004915C209.03761402475948,260.0057025419001 210.3598989822246,260.71405108252964 211.77437567281407,262.75C212.82518592456384,264.2625 214.9523463261132,267.8625 216.50139878736823,270.75C218.4383441872398,274.36054901755745 219.93461974730187,276.0 221.29290934453172,275.99999999999994C222.37918768971662,275.9999999999999 225.00766968295446,275.4787705649583 227.1339804406158,274.84171236657426L231.00000000000006,273.6834247331487L231.0,265.0160263932838C230.99999999999997,256.9948274575068 231.19217868767012,256.1678828957659 233.5776706507816,253.9243140267095C235.9376269862835,251.70476156183415 237.1106769143508,251.4718478626272 247.46622165210536,251.16668733670798C256.3736524276271,250.9042002991949 259.4351756310942,251.17367777231243 261.874064031961,252.4348759799304C263.609858260907,253.33249006082167 265.2477048358033,255.1387533299907 265.6005323269983,256.5445300270288C265.9467607731464,257.92401403435 265.91984355975427,262.36292454683763 265.54071629723796,266.4087756103346L264.8513940017537,273.7648684530564L269.93731930689466,274.98496313342577C272.7345782247222,275.6560152076289 275.6747196734743,275.95506337621464 276.47096697078837,275.64951461917184C277.26721426810235,275.34396586212904 279.111623830825,272.71032785402514 280.5696548879499,269.79698571227425C282.0276859450748,266.8836435705234 284.1494221579473,263.4875 285.2846242498888,262.25C286.61708851990323,260.79746168470973 288.5059167807648,260.00000000000006 290.6138628433213,260.0000000000001C292.52851792780615,260.0000000000001 297.6431006127132,261.92386977073073 302.9791555036528,264.6512519634595C308.2203806799752,267.3301644758206 312.93293873951654,270.50145064472446 314.09250362187436,272.1299093576478C315.74199569030037,274.4464073575394 315.9369475317328,275.5688258313224 315.1713837906227,278.3414692152201C314.6574582471486,280.202754149984 312.5710999168502,284.32980361297706 310.5350319455152,287.51269024409356L306.8330901794515,293.2997568461236L310.3426134232594,296.80928008992595L313.85213666706727,300.3188033337283L320.67606833353364,296.2350079482874C324.42923075009014,293.9889204862949 328.4,292.0653702280087 329.5,291.9604518187625C330.6,291.8555334095164 332.26928895433923,291.82151058287593 333.20953100964266,291.8848455373393C334.14977306494615,291.9481804918027 336.08095118507333,293.2375 337.50103794325867,294.75C338.92112470144394,296.2625 341.86433574710475,301.03960787054746 344.04150693361595,305.36579526788324C346.21867812012715,309.69198266521903 348.0,314.24379625390986 348.0,315.480936576085C348.0,316.7180768982602 347.0960787040811,318.8794323293168 345.9912860090691,320.2839486450996C344.886493314057,321.68846496088247 341.01990698082545,324.4944313307758 337.3988719352211,326.51942946708493L330.8151718523041,330.20124426037415L331.49837050392756,333.8430061654947C331.8741297623205,335.845975213311 332.35171674464107,337.7600726528668 332.5596749090844,338.09655603117426C332.76763307352775,338.43303940948164 337.1142800135288,339.0187983508589 342.2188903313089,339.3982425675681C349.8897742818348,339.9684472200048 351.8855567874354,340.47085877358967 353.7222939227262,342.2940705717015C355.41937242890293,343.97865215680326 356.097930212351,346.1562886104621 356.593410784227,351.5080961017717C356.98355754174503,355.7221671635089 356.7647532109239,360.81620351214207 356.04459616878626,364.28518140545214C355.1578991271942,368.556378179722 354.19586517271205,370.4807834154521 352.3391671701728,371.6973386711446C350.7383717673686,372.74622010361594 346.8780812701795,373.5077431409742 341.66568786288735,373.8029056970415C337.1745595382993,374.05722512620383 333.1693907485327,374.7681111108449 332.76531277451704,375.38265232957735C332.3612348005014,375.99719354830984 332.0237348005014,377.2875 332.01531277451704,378.25C332.0007879137818,379.9099543249601 340.91452182894864,380.000502656348 505.25,380.00976891570394L678.5,380.01953783140794L683.5,382.38915055595544C686.25,383.6924375544566 689.4515219113111,385.6737616273853 690.6144931362471,386.79209294024156C691.7774643611831,387.91042425309774 693.8024643611831,390.5522025149846 695.1144931362471,392.66271129999006L697.5,396.5L698.0,501.20259490514115L698.5,605.9051898102823L715.0,626.6232316629249C724.075,638.0181546818784 732.0465540629218,648.2769869745648 732.7145645842706,649.4206367577838C733.3825751056194,650.5642865410027 733.9450751056194,654.48125 733.9645645842706,658.125C733.9999201010472,664.7350621038053 734.0070461774503,664.7514092354901 737.1250000000001,665.375C738.8437500000002,665.71875 745.8162919020688,666.0 752.6195375601525,666.0L764.9890751203047,666.0L765.2445375601524,578.25L765.5,490.5L834.25,490.2431075968145L902.9999999999999,489.9862151936291L903.0,580.9931075968145L903.0,672.0L905.75,672.0205170754075C907.2625,672.0318014668816 915.1137705545437,672.6826968124212 923.197267898986,673.4669511766066C931.2807652434283,674.251205540792 940.7307652434283,675.3795011611658 944.197267898986,675.9742747774371C947.6637705545437,676.5690483937085 952.4125,677.7553715459873 954.75,678.6105484491676C958.1318816484498,679.8478135080098 959.0,680.6539337428392 959.0,682.557027626698C959.0,684.1608186789846 958.0941223930602,685.4086991283667 956.25,686.3452559806293C954.7375,687.1133949308302 949.45,688.4495605336472 944.5,689.3145128757781C939.55,690.1794652179091 929.875,691.3642138257875 923.0,691.9472875599523C916.125,692.5303612941171 902.175,693.4467157547963 892.0,693.9836308059059C881.825,694.5205458570155 860.0,695.4300988666586 843.5,696.0048597162238C827.0,696.579620565789 796.625,697.5177467281222 776.0,698.0895845214086C755.375,698.6614223146951 656.375,699.2481613775667 556.0,699.3934491055677zM179.6047825395988,672.8702646385366C192.86241293637815,672.9416190873415 209.51241293637815,672.5491023700812 216.6047825395988,671.998005266847C223.69715214281945,671.4469081636128 230.51995113401867,670.7614646353225 231.76655807559706,670.4747974262016L234.03311615119412,669.9535843187093L233.76655807559706,643.7267921593547L233.5,617.5L184.75,617.2404873414905L136.0,616.9809746829809L136.0,643.4714353132756L136.0,669.9618959435702L138.25,670.5043755085037C139.4875,670.8027392692171 143.875,671.4279317692552 148.0,671.8936921752552C152.125,672.359452581255 166.34715214281945,672.7989101897316 179.6047825395988,672.8702646385366zM504.25,661.7522320071339L724.5,661.5L724.4200287956656,657.3357758119748C724.346975659149,653.5317861056084 723.1428996286362,651.671885916292 710.5011987397688,635.8357758119748C702.8898263714095,626.3010991153886 695.300038360707,617.0375 693.6350031604301,615.25L690.6076664326538,612.0L504.0011456633529,612.0L317.39462489405196,612.0L310.401145799707,620.75C306.5547322978173,625.5625 299.0409416966556,634.9617349119989 293.70383335268104,641.6371886933308C284.9704584901318,652.5605645164601 284.0,654.1859135884903 284.0,657.8894207004646L284.0,662.0044640142677L504.25,661.7522320071339zM833.7440836951571,661.7578701613111L893.5,661.5L893.7559163048429,580.7421298386889L894.0118326096859,499.98425967737774L834.2559163048429,500.24212983868887L774.5,500.5L774.2440836951571,581.2578701613111L773.9881673903141,662.0157403226223L833.7440836951571,661.7578701613111zM152.18210573843942,655.8108153239747L147.8642114768788,656.1216306479494L148.18210573843942,652.8108153239747C148.4826994391546,649.680182434496 148.73499006251134,649.4830846917534 152.81789426156058,649.1891846760253L157.1357885231212,648.8783693520506L156.81789426156058,652.1891846760253C156.5173005608454,655.319817565504 156.26500993748866,655.5169153082466 152.18210573843942,655.8108153239747zM504.70772221526414,655.7570969137857C443.23361278054347,655.9938196447258 437.8921097390963,655.8824174234077 437.3045798491215,654.3513390727536C436.8948224247815,653.283528341535 437.48148953732203,652.028531744457 438.9440252664245,650.844242158968C441.1041762123639,649.095058041647 444.5047676501252,649.0 504.9196543272046,649.0C556.0058987224352,649.0 568.9741043238753,649.2605794220773 570.4176109623506,650.3160972467413C571.4075395902593,651.0399507324489 572.0499205776723,652.502450732449 571.8451242677131,653.5660972467413C571.4820366558179,655.4518581418085 569.8107430587085,655.5064000752593 504.70772221526414,655.7570969137857zM817.557497830422,649.0L785.0,649.0L785.0,645.0L785.0,641.0L816.0,640.85C833.05,640.7675 847.5625,640.6550000000001 848.25,640.6C849.0265252012399,640.5378779839008 849.6164739787025,642.1098143157842 849.807497830422,644.75L850.114995660844,649.0L817.557497830422,649.0zM152.5,643.0C148.16666666666666,643.0 148.0,642.8888888888889 148.0,640.0C148.0,637.1111111111111 148.16666666666666,637.0 152.5,637.0C156.83333333333334,637.0 157.0,637.1111111111111 157.0,640.0C157.0,642.8888888888889 156.83333333333334,643.0 152.5,643.0zM348.78439247360006,640.0C342.85297661312006,640.0 338.0,639.6501278095325 338.0,639.2225062434054C338.0,638.7948846772783 338.76141597580374,637.3323846772784 339.69203550178605,635.9725062434054C340.62265502776836,634.6126278095325 341.86015502776837,633.1693907485327 342.44203550178605,632.765312774517C343.02391597580373,632.3612348005014 347.6359423525313,632.0237348005014 352.69098300562507,632.015312774517C357.7460236587188,632.0068907485327 362.15951048260916,632.4490763880486 362.4987315031592,632.997947528997C362.83795252370925,633.5468186699453 362.317486784298,635.3468186699453 361.34214097113426,636.997947528997L359.5687849472002,640.0L348.78439247360006,640.0zM376.0923535898719,639.7858527000246L365.8424662489978,640.0717054000494L366.53951369677867,637.7858527000246C366.9228897930581,636.5286337150111 367.92807928998405,634.7125 368.77326813439186,633.75C370.0295964396072,632.3192948957259 372.0042442367086,632.0 379.59597056773714,632.0C384.70326806166923,632.0 389.07363907332956,632.3375 389.30790614920454,632.75C389.54217322507947,633.1625 388.97073508196604,634.85 388.0380436089525,636.5C386.3459422755394,639.4934520480933 386.31986900762695,639.5006239165774 376.0923535898719,639.7858527000246zM402.8842383516993,640.0L392.1040390208218,640.0L393.1572032438107,636.9788911327153C393.73644356645457,635.3172812557086 395.0334511324295,633.5172812557087 396.0394422793105,632.9788911327153C397.04543342619144,632.4405010097219 401.23629638545543,632.0 405.35247107767486,632.0C409.46864576989435,632.0 413.4973278293872,632.2536121872164 414.30509787654785,632.5635826382586C415.4972333675471,633.0210479492681 415.5751868743597,633.774210449639 414.71910418607206,636.5635826382586L413.6644376825769,640.0L402.8842383516993,640.0zM429.471408065682,640.0C423.7121336295569,640.0 419.0,639.6171504693519 419.0,639.1492232652265C419.0,638.6812960611012 419.4940213141855,636.8812960611011 420.0978251426344,635.1492232652265L421.1956502852688,632.0L430.3478251426344,632.015312774517C435.3815213141855,632.0237348005014 439.98792658791,632.3612348005014 440.58428130646666,632.765312774517C441.29874901708195,633.249421738564 441.37426421081625,634.6084708178117 440.80568937214866,636.75L439.94281613136394,640.0L429.471408065682,640.0zM456.0917500580647,640.0C447.7298497125972,640.0 445.15589446673727,639.6977190992076 445.4478620423481,638.75C445.65966288966695,638.0625 446.1081648065317,636.2463568906969 446.44453296871416,634.7141264237708L447.05611144540956,631.9282528475417L456.7780557227048,632.2141264237708L466.5,632.5L466.810365261726,636.25L467.12073052345204,640.0L456.0917500580647,640.0zM482.560365261726,640.0L472.0,640.0L472.0,637.0351837584881C472.0,635.0891327518834 472.6905140443922,633.7008156154095 474.0095378048428,632.9948955217565C475.123797027078,632.3985620832708 479.69032244880106,632.0487511960649 484.2595378048428,632.2097117632685L492.5,632.5L492.810365261726,636.25L493.12073052345204,640.0L482.560365261726,640.0zM509.0190900040931,640.0L497.87926947654796,640.0L498.189634738274,636.25L498.5,632.5L507.9103522486786,632.2103522486786C513.0860459854518,632.0510459854518 517.6511371788744,632.2760459854518 518.0549993451732,632.7103522486786C518.4588615114719,633.1446585119054 519.0974578691852,634.9625 519.4741023623137,636.75L520.1589105316382,640.0L509.0190900040931,640.0zM536.1134993589933,640.0L525.2269987179865,640.0L524.7409706128122,636.75C524.4667759355654,634.9164996497825 524.7441922232799,633.1797894776627 525.3774712538191,632.765312774517C525.9948620642185,632.3612348005014 530.4604619908522,632.0237348005014 535.3010266463382,632.015312774517L544.1020532926765,632.0L545.5510266463382,635.4678813691036C546.3479619908522,637.3752161221105 547.0,639.1752161221106 547.0,639.4678813691036C547.0,639.7605466160966 542.101074711547,640.0 536.1134993589933,640.0zM562.6213203435597,640.0L552.2426406871193,640.0L550.9617435886014,636.9076408527536C549.8923028631893,634.3257825493099 549.913545891591,633.6679720900331 551.0904232450416,632.9229536272707C551.8656904602688,632.4321731842406 556.1,632.0306255490341 560.5,632.0306255490341C564.9,632.0306255490341 568.9591594341903,632.3612348005014 569.5203542982006,632.765312774517C570.0815491622108,633.1693907485327 571.0940491622108,634.7586738595066 571.7703542982006,636.2970530211257C572.4466594341902,637.835432182745 573.0,639.297932182745 573.0,639.5470530211257C573.0,639.7961738595067 568.3295941546019,640.0 562.6213203435597,640.0zM588.5590169943749,640.0C582.8164763412811,640.0 577.9193950299924,639.6625 577.6766140804,639.25C577.4338331308074,638.8375 576.9215206137202,637.0375 576.538141820206,635.25L575.8410894683618,632.0L585.4352431681712,632.0L595.0293968679805,632.0L597.0109603735527,635.25C598.1008203016174,637.0375 598.9942060063217,638.8375 598.9962619395624,639.25C598.9983178728031,639.6625 594.3015576474687,640.0 588.5590169943749,640.0zM618.5351837584881,640.0C610.6666666666666,640.0 610.0,639.8437838749509 610.0,638.0C610.0,636.1786156939696 610.6666666666666,636.0 617.4648162415119,636.0C623.9061766440319,636.0 625.0763841041858,636.2742079123932 626.0,638.0C627.0315068651646,639.9273882078911 626.7604900226347,640.0 618.5351837584881,640.0zM652.7020221971021,640.0L632.2373777275376,640.0L629.7669021656275,636.75C628.4081406065768,634.9625 626.5525720566043,632.15 625.6434164990218,630.5C624.7342609414393,628.85 623.2626775285058,626.4875 622.3732311369474,625.25L620.7560558795685,623.0L640.6280279397843,623.0071488099316L660.5,623.014297619863L666.5,630.5200467062562C669.8,634.6482087037723 672.65,638.4699917393032 672.8333333333333,639.0128978963246C673.0454599766513,639.6410698639189 665.7253112111748,640.0 652.7020221971021,640.0zM829.0,634.0L785.0,634.0L785.0,630.0L785.0,626.0L829.0,626.0L873.0,626.0L873.0,630.0L873.0,634.0L829.0,634.0zM610.570847060013,632.0L601.141694120026,632.0L598.1046807413702,627.5L595.0676673627145,623.0L604.8978327450279,623.0L614.7279981273413,623.0L617.3639990636707,626.8037505852059C618.8137995786518,628.8958134070691 620.0,630.9208134070691 620.0,631.3037505852059C620.0,631.6866877633427 615.7568811770059,632.0 610.570847060013,632.0zM152.5,631.0C147.8825021930138,631.0 147.87390742756588,630.993524074614 148.18664151591184,627.75C148.48291218448122,624.6772264140147 148.71812481724885,624.5 152.5,624.5C156.28187518275115,624.5 156.51708781551878,624.6772264140147 156.81335848408816,627.75C157.12609257243412,630.993524074614 157.1174978069862,631.0 152.5,631.0zM355.4743198537684,630.0C349.71344393419577,630.0 345.0,629.6106864113106 345.0,629.1348586918014C345.0,628.659030972292 345.9326610670648,627.084030972292 347.0725801490329,625.6348586918014C349.0450565006616,623.1272613562355 349.5924465277461,623.0 358.40591348236615,623.0C363.4993277337314,623.0 367.94871954332916,623.2820528766625 368.2934508370278,623.6267841703611C368.6381821307265,623.9715154640598 368.25162606492233,625.5465154640599 367.4344373574629,627.1267841703611L365.9486397075368,630.0L355.4743198537684,630.0zM380.4619483142577,630.0C370.7155588481196,630.0 369.9999667243552,629.8685792679324 370.87219208701447,628.2388112698835C371.39059986920915,627.2701574683194 372.69886710155146,625.6775090897507 373.7794526033307,624.6995926508419C375.41344334693736,623.2208513512716 377.25131526779626,622.9702457638434 384.6979818207257,623.2107813809585L393.65181012579495,623.5L392.3230371356432,626.75L390.99426414549146,630.0L380.4619483142577,630.0zM406.547563421252,630.0L396.0323572498266,630.0L397.7175012348282,626.4662163233952L399.40264521982976,622.9324326467904L408.9513226099149,623.2162163233952C417.8548318269783,623.4808258056389 418.47989847672886,623.6351324684383 418.20249158468823,625.5C418.03886195626677,626.6 417.7154851146192,628.0625 417.48387638102696,628.75C417.18268348431053,629.6440514171505 414.068471404606,630.0 406.547563421252,630.0zM432.25,629.7849830944872C426.0996320026669,629.9559831826937 422.0,629.6820476365779 422.0,629.1000827556618C422.0,628.5666468673398 422.43886211882136,626.9759044748206 422.97524915293627,625.5650996611746C423.92852434293803,623.0577959024199 424.1665341346874,623.0 433.5386076370244,623.0L443.12671696817625,623.0L442.8133584840881,626.25L442.5,629.5L432.25,629.7849830944872zM457.3930111958157,630.0C448.1316673446829,630.0 446.86302741501623,629.799328125755 447.3930111958157,628.4182125317642C447.72685503811704,627.5482294242345 448.0,625.9732294242345 448.0,624.9182125317642C448.0,623.1551433248629 448.8087911130483,623.0 458.0,623.0L468.0,623.0L468.0,626.5L468.0,630.0L457.3930111958157,630.0zM483.0,630.0L473.0,630.0L473.0,626.5L473.0,623.0L483.0,623.0L493.0,623.0L493.0,626.5L493.0,630.0L483.0,630.0zM508.0,630.0L498.0,630.0L498.0,626.5L498.0,623.0L507.3930111958157,623.0C515.0357182357902,623.0 516.8991293606708,623.2947520365508 517.3930111958157,624.5817874682358C517.726855038117,625.4517705757655 518.0,627.0267705757655 518.0,628.0817874682358C518.0,629.8448566751371 517.1912088869517,630.0 508.0,630.0zM533.9686152036613,630.0C526.8126820623412,630.0 523.8283903656919,629.6416930820872 523.5575278527895,628.75C523.3486914477963,628.0625 522.9549434329483,626.4875 522.6825322642383,625.25C522.1953174664424,623.0366975310617 522.3461944288596,623.0 531.9331045948019,623.0C541.4062847588265,623.0 541.7114406799637,623.0712654687823 542.8394849796919,625.5470530211259C543.4777682408613,626.947932182745 544.0,628.5229321827451 544.0,629.0470530211259C544.0,629.5876512908646 539.6593297808686,630.0 533.9686152036613,630.0zM558.9654164061988,630.0C553.5493560766018,630.0 548.9286925732343,629.6625 548.6972752876043,629.25C548.4658580019741,628.8375 547.9807269418087,627.2625 547.6192062650143,625.75L546.9618959435702,623.0L556.8131668130736,623.0L566.6644376825769,623.0L567.7386182531122,626.5L568.8127988236477,630.0L558.9654164061988,630.0zM584.185212297391,630.0L574.3704245947821,630.0L572.7013909223043,626.5L571.0323572498265,623.0L580.9904984786817,623.0L590.9486397075368,623.0L592.4743198537684,625.9503400731157C593.3134439341958,627.5730271133294 594.0,629.1480271133295 594.0,629.4503400731157C594.0,629.7526530329021 589.583345533826,630.0 584.185212297391,630.0zM360.9915261163982,621.0C351.2333786753387,621.0 351.01429205069604,620.9499771003145 352.2320729051695,619.0C353.32666635905065,617.2472772819661 354.5641004683336,617.0 362.2405467887713,617.0C370.3333333333333,617.0 371.0,617.152216502695 371.0,619.0C371.0,620.8667795561202 370.3333333333333,621.0 360.9915261163982,621.0zM385.53138479633867,621.0C380.2891231583524,621.0 376.00689074853267,620.6625 376.01531277451704,620.25C376.0237348005015,619.8375 376.4080967956733,618.9046468752969 376.8694505415657,618.1769930562153C377.4487308353892,617.263343775436 380.3758539984861,616.8174288952712 386.32964787037207,616.7358364928722C391.0714026553232,616.670854202115 395.24263302891563,616.9092996955824 395.5990487005775,617.2657153672442C395.95546437223936,617.622131038906 395.9806079840962,618.6081514924103 395.65492339359275,619.4568719305873C395.1785203276659,620.698358419823 393.1996306684158,621.0 385.53138479633867,621.0zM410.5695509530758,621.0C405.30629792888413,621.0 401.00689074853267,620.6625 401.01531277451704,620.25C401.0237348005015,619.8375 401.4127136414345,618.8971766619345 401.87971019881275,618.1603925820767C402.46425943313216,617.2381447347746 405.3413598759038,616.7708142709719 411.11439742429565,616.6603925820767C419.1054181732794,616.507547221259 419.51503636711334,616.6058730248789 419.8195509530758,618.75C420.1318371373336,620.9488478138358 419.9215448164362,621.0 410.5695509530758,621.0zM434.588483854597,621.0C426.19481244029845,621.0 425.20450209491827,620.8107394970253 425.43156480821995,619.25C425.64920373613256,617.7540358853104 427.01541107105294,617.4582617859112 434.84308095362303,617.2124741862112C443.48362549329426,616.9411624504882 444.0,617.0398479780284 444.0,618.9624741862112C444.0,620.8681800478005 443.39111171008693,621.0 434.588483854597,621.0zM458.44098300562507,621.0C450.8164492868531,621.0 449.0,620.7181687102201 449.0,619.5351837584881C449.0,618.7295348256564 449.946944589923,617.5635781522611 451.10432131094007,616.9441689287207C452.48925027973297,616.2029774379632 455.6514950996025,616.0609756260292 460.35432131094007,616.5287941442839C464.28444458992305,616.9197472363841 467.80780764746874,617.7267183216466 468.18401699437493,618.3220632226449C468.5602263412812,618.9174081236433 468.64616869381246,619.7634940853203 468.375,620.2022542485938C468.10383130618754,620.6410144118672 463.63352365871884,621.0 458.44098300562507,621.0zM482.5,621.0C477.275,621.0 473.00689074853267,620.6625 473.01531277451704,620.25C473.0237348005015,619.8375 473.36123480050145,619.0051684334358 473.76531277451704,618.4003742965239C474.1693907485327,617.795580159612 476.975,617.0608088370644 480.0,616.767549135307C483.025,616.4742894335495 486.9625,616.4576957116608 488.75,616.7306741977764C491.09276058052444,617.0884494350366 492.0,617.7536164861057 492.0,619.1134993589933C492.0,620.8297808704403 491.1428141100692,621.0 482.5,621.0zM507.0,621.0C498.836220028666,621.0 498.0,620.82411401373 498.0,619.1069888041843C498.0,618.0658326464857 498.7118043607061,616.9408326464857 499.5817874682358,616.6069888041843C500.4517705757655,616.273144961883 503.4892705757655,616.0061446074816 506.3317874682358,616.0136546832924C509.1743043607061,616.0211647591033 512.5125,616.2986488728857 513.75,616.6302860472534C515.0734490136182,616.9849566664826 516.0,618.0088347578965 516.0,619.116631363961C516.0,620.8216140908249 515.1475523421946,621.0 507.0,621.0zM531.5733241632106,621.0C522.7989266841729,621.0 522.0,620.8397355399932 522.0,619.0795939628981C522.0,617.4491486022346 523.0066222494347,617.0513878266758 528.666846927802,616.4452291790644C532.3336127380932,616.052551868362 536.4917408279275,616.1385337690209 537.9071315718784,616.6363000694178C539.3225223158294,617.1340663698146 540.6304370717631,618.3195305225397 540.813608807287,619.2706648532514C541.1105474486917,620.8125432175489 540.1089174109466,621.0 531.5733241632106,621.0zM555.6069888041843,621.0C547.816492780138,621.0 546.1064051051578,620.71967055021 545.5834502069303,619.3568719305874C545.2366601361391,618.4531514924105 545.1805905079268,617.4860761587398 545.458851033125,617.2078156335415C545.7371115583234,616.9295551083433 549.2753841791032,616.4894256937201 553.3216790793024,616.2297502677122C557.8791360584025,615.93727045303 561.5007711023776,616.1976370437367 562.8392894489233,616.9139903232461C564.0276802520154,617.5499977797975 565.0,618.7295348256564 565.0,619.5351837584881C565.0,620.7176404402362 563.1893930235445,621.0 555.6069888041843,621.0zM580.1666666666667,621.0C575.3083333333334,621.0 571.0333333333334,620.7 570.6666666666667,620.3333333333333C570.3,619.9666666666666 570.0007541987299,618.9541666666667 570.0016759971775,618.0833333333333C570.0030298032872,616.8043775157818 571.447083071576,616.4463889320019 577.5134584260416,616.2211220060756C581.6440169634691,616.0677391094172 585.9182627647392,616.4210718007367 587.0117824288641,617.0063057645636C588.1053020929888,617.5915397283904 589.0,618.7295348256564 589.0,619.5351837584881C589.0,620.7110532446666 587.2575541333359,621.0 580.1666666666667,621.0zM604.3388535861832,621.0C595.0672558154613,621.0 594.1900096505782,620.8345999781502 593.7091601789584,618.9958287739616C593.3120013251395,617.4770909838779 593.7897834474829,616.8398810292955 595.6817420223031,616.3650296543917C597.0549184380726,616.0203843129493 600.9013246165683,615.9853055099111 604.229311307849,616.2870767587513C608.5070653179494,616.674969887423 610.8903348250756,617.4458903806311 612.3623203227656,618.9178758783212L614.4444444444445,621.0L604.3388535861832,621.0zM628.5714285714286,621.0C622.0000919199493,621.0 619.7714204301718,620.6285632873147 618.4571893410925,619.3143321982354C616.8762989387398,617.7334417958826 616.9184774448051,617.5721982733274 619.135760769664,616.7202325570886C620.4360923463488,616.2205950454284 624.6110730779852,616.0591316495907 628.4134957288559,616.3614250107826C632.436316365124,616.6812400558911 635.670348552103,617.4522961337394 636.1481829543388,618.2055246519294C636.5998382774837,618.9174860933682 636.9762651994986,619.8375 636.984687225483,620.25C636.9931092514673,620.6625 633.2071428571428,621.0 628.5714285714286,621.0zM650.6901713206,621.0C643.0938233559681,621.0 641.9432794868917,620.7625338436214 641.0,619.0C639.971723161469,617.0786471520807 640.2395099773653,617.0 647.8098286794,617.0C654.4200331677011,617.0 655.9817248972352,617.3223248955803 657.5,619.0C659.2966747326308,620.9853032327181 659.2466334989655,621.0 650.6901713206,621.0zM801.2211044914036,611.0C797.4892491828941,611.0 795.2933024406802,610.3047826450747 791.876482706322,608.0415752279805C789.3839852314065,606.390613453324 786.656542071553,603.5029727844899 785.7050381418026,601.5076482988056C784.7672671638112,599.5411221123703 784.0,596.1329598758756 784.0,593.9339544399288C784.0,591.7349490039819 784.6195775482579,588.4877161221106 785.3768389961288,586.7178813691036C786.1341004439996,584.9480466160966 788.1754691142015,582.1626267765347 789.9132138187997,580.5280595034103C792.3896967463236,578.1986160960616 793.42876640633,577.7806886103436 794.7195440778196,578.5948902482617C795.6252810156824,579.1662144310541 796.8313534602544,580.3708632912715 797.3997050657575,581.2718877154111C798.1872555097821,582.5204144696904 797.9216501897799,583.4560324910117 796.2831482500164,585.20505697056C795.1006903958557,586.467275636752 793.6346647262354,588.8156759310915 793.0253134286379,590.4237242913144C792.4159621310405,592.0317726515374 792.1955369852906,594.6137889739637 792.5354797714158,596.1615383411506C792.8754225575411,597.7092877083376 794.304693523698,599.881111777246 795.7116374739867,600.9878140498362C797.1185814242755,602.0945163224263 799.3770995468055,603.0 800.7305666351648,603.0C802.084033723524,603.0 804.4792748800218,602.2392429759983 806.0533247607154,601.3094288355519C807.6273746414092,600.3796146951055 809.4226826433222,598.393767392285 810.0428980982999,596.8964348292843C810.973981994689,594.6485994589146 810.801690479009,593.3401154610287 809.0545653125531,589.3904492348545L806.9385680632104,584.6068864822441L809.4313388152698,582.1141157301847C811.9090535975809,579.6364009478738 811.9372520545705,579.6330582318664 814.100070887129,581.5606724890627C815.296849613019,582.6273026200782 816.88892496037,584.9480466160966 817.6380161034645,586.7178813691036C818.387107246559,588.4877161221106 819.0,591.7797997764508 819.0,594.0336228231929C819.0,596.287445869935 818.4950161077963,599.1143992538384 817.8778135728808,600.3157414540893C817.2606110379651,601.5170836543402 815.5731110379651,603.7776743836686 814.1278135728808,605.3392764081524C812.6825161077963,606.9008784326362 810.2848469670979,608.8133784326362 808.7996599268843,609.5892764081524C807.3144728866705,610.3651743836685 803.9041229407043,611.0 801.2211044914036,611.0zM185.0,609.0L234.0,609.0L234.0,603.5L234.0,598.0L185.0,598.0L136.0,598.0L136.0,603.5L136.0,609.0L185.0,609.0zM503.75,602.7105537935372L688.5,602.5L688.7924272864915,502.0C688.9954466272798,432.22729173456815 688.7548746453683,400.35682767645926 688.0055865720233,397.76101709489114C687.2807612312888,395.24995445263204 685.7127462582475,393.1973904699712 683.2310247730757,391.51101709489114L679.535730975088,389.0L504.017865487544,389.00373806043734C329.73704240914475,389.0074497751846 328.4766700239262,389.02170001548694 325.18982439722356,391.0256345953167C323.36922781569655,392.1356217562598 321.23172781569656,394.5944862451599 320.43982439722356,396.4897779039835C319.2188182188399,399.4120570244919 319.0,415.360175498569 319.0,501.42843516264134L319.0,602.9211075870744L503.75,602.7105537935372zM852.5,597.0L832.0,597.0L832.0,593.0L832.0,589.0L852.5,589.0L873.0,589.0L873.0,593.0L873.0,597.0L852.5,597.0zM503.41666666666663,594.984687225483C407.6708333333333,594.9931092514673 329.0333333333333,594.7 328.66666666666663,594.3333333333333C328.3,593.9666666666666 328.0,550.6023530779776 328.0,497.96819202513535C328.0,402.6337106584633 328.00789163562786,402.2596847946418 330.0748116632159,399.63202178122697L332.14962332643177,396.99432617884986L504.2169100354808,397.24716308942493L676.2841967445298,397.5L678.1769579763921,400.035173261879C680.0038631931287,402.48213866855144 680.0680003357432,405.89017273074694 680.0203172630315,497.9851439285772C679.9816930172597,572.5839187054098 679.701383596491,593.571137815373 678.7354576589042,594.1846578921811C678.0559559465069,594.6162519995128 599.1625,594.9762651994986 503.41666666666663,594.984687225483zM359.75,578.8164223456972C361.9099686329369,578.567890585164 362.56789058516404,577.909968632937 362.8164223456972,575.75C363.10073291226314,573.2790807723029 362.8216521399602,573.0 360.0664223456972,573.0C357.31119255143426,573.0 357.0,573.3111925514343 357.0,576.0664223456972C357.0,578.8216521399602 357.27908077230296,579.1007329122631 359.75,578.8164223456972zM445.0,579.0L492.0,579.0L492.0,576.0L492.0,573.0L445.0,573.0L398.0,573.0L398.0,576.0L398.0,579.0L445.0,579.0zM804.0,569.2835581212719C802.625,569.5769698519019 799.25,569.2244792982419 796.5,568.500245779805C792.9020857564974,567.5527075646754 790.5936786056023,566.135378807847 788.2679530649332,563.4458874773245C786.4903272506465,561.390223929397 784.7446030379733,558.1555384138506 784.3885659256596,556.2576974427768C784.0325288133457,554.359856471703 784.2455640679977,551.123746122376 784.861977602664,549.066341110939C785.4783911373302,547.0089360995021 786.9036906973544,544.4921462831221 788.0293099582731,543.4734748523168C790.0329398988574,541.6602146770126 790.132501451594,541.6779559970486 792.7733890590532,544.3188436045077C795.0967954414834,546.6422499869379 795.2995548977636,547.2906896319564 794.2354438427178,548.9946022710067C793.555949729223,550.0826452930709 793.0,552.3289682911206 793.0,553.9864311555617C793.0,555.6666666666666 793.8848865927149,557.8848865927149 795.0,559.0C796.3143433944466,560.3143433944466 798.3333333333334,561.0 800.8892160376902,561.0C803.111868164691,561.0 805.7099159277097,560.2457301360823 806.9522112590603,559.2397804052521C808.2839919600883,558.161369818079 809.3387729508668,555.8931487526864 809.6753289467244,553.3839364369753C809.9813836858567,551.1021279707329 809.7172442437843,548.3401831285215 809.0788980009951,547.1474222633699C808.4487248036526,545.9699328733278 806.1481746272432,544.0959169196192 803.9665642756407,542.9829423662395C801.3981951630009,541.6726582158391 800.0,540.2739278953874 800.0,539.0148598930809C800.0,537.9453890862233 800.9220358853962,536.5769088863689 802.0489686342137,535.9737927822935C803.5271312863298,535.1827041384773 805.0133819744324,535.1793420457293 807.3840231676465,535.9617241936625C809.191370412217,536.5582025739908 811.817961845081,538.2733285132783 813.2208930184553,539.773115169857C814.6238241918296,541.2729018264357 816.5481679899657,544.0370712119177 817.4972125698689,545.9157138042615C818.6704930082986,548.2382333687515 819.0657324134382,550.7244672762953 818.7321483598757,553.6840162428059C818.4623184644764,556.0779399916614 817.102357080824,559.7580394078383 815.7100119517593,561.862014945421C814.3176668226946,563.9659904830038 811.6758183989315,566.3765228913236 809.8392376767299,567.2187536305761C808.0026569545284,568.0609843698286 805.375,568.9901463906417 804.0,569.2835581212719zM360.0,565.0C362.6666666666667,565.0 363.0,564.6666666666666 363.0,562.0C363.0,559.3333333333334 362.6666666666667,559.0 360.0,559.0C357.3333333333333,559.0 357.0,559.3333333333334 357.0,562.0C357.0,564.6666666666666 357.3333333333333,565.0 360.0,565.0zM431.0,565.0L463.0,565.0L463.0,562.0L463.0,559.0L431.0,559.0L399.0,559.0L399.0,562.0L399.0,565.0L431.0,565.0zM538.5,565.0L591.0,565.0L591.0,562.0L591.0,559.0L538.5,559.0L486.0,559.0L486.0,562.0L486.0,565.0L538.5,565.0zM852.5,555.0L832.0,555.0L832.0,551.0L832.0,547.0L852.5,547.0L873.0,547.0L873.0,551.0L873.0,555.0L852.5,555.0zM510.5,551.4166666666667C511.05,551.3708333333334 511.5,550.0208333333334 511.5,548.4166666666667L511.5,545.5L454.75,545.2417427524965L398.0,544.9834855049932L398.0,547.9833469846155L398.0,550.9832084642378L453.75,551.2416042321189C484.4125,551.3837219044535 509.95,551.4625 510.5,551.4166666666667zM360.0,551.0C362.6666666666667,551.0 363.0,550.6666666666666 363.0,548.0C363.0,545.3333333333334 362.6666666666667,545.0 360.0,545.0C357.3333333333333,545.0 357.0,545.3333333333334 357.0,548.0C357.0,550.6666666666666 357.3333333333333,551.0 360.0,551.0zM360.0,538.0C362.6666666666667,538.0 363.0,537.6666666666666 363.0,535.0C363.0,532.3333333333334 362.6666666666667,532.0 360.0,532.0C357.3333333333333,532.0 357.0,532.3333333333334 357.0,535.0C357.0,537.6666666666666 357.3333333333333,538.0 360.0,538.0zM422.9166666666667,538.0C453.9590255235564,538.0 462.9268364070958,537.7220989203619 463.25391047666517,536.75C463.4852279054977,536.0625 463.47024379171523,534.7125 463.2206124460374,533.75C462.79790475055114,532.1201719998306 460.0279577469486,532.0 422.88336863603894,532.0L383.0,532.0L383.0,535.0L383.0,538.0L422.9166666666667,538.0zM439.8647038186491,524.7582065081813L496.5,524.5L496.5,521.5C496.5,519.0343915343915 496.0992063492063,518.5127236079617 494.25,518.5714285714286C493.0125,518.6107142857143 467.3279367825372,518.7232142857142 437.17319285008267,518.8214285714286L382.34638570016534,519.0L382.7878966687318,522.0082065081813L383.2294076372982,525.0164130163627L439.8647038186491,524.7582065081813zM360.0,524.0C362.6666666666667,524.0 363.0,523.6666666666666 363.0,521.0C363.0,518.3333333333334 362.6666666666667,518.0 360.0,518.0C357.3333333333333,518.0 357.0,518.3333333333334 357.0,521.0C357.0,523.6666666666666 357.3333333333333,524.0 360.0,524.0zM788.9686152036613,520.0C786.4145753928626,520.0 784.7381729409527,519.4812645577776 784.3940416116279,518.5844726887995C784.0952877739959,517.805932667639 783.9969109323483,515.8934326676391 784.1754264079666,514.3344726887995C784.468426757039,511.7757263593415 784.9134232909818,511.4700878199946 788.75,511.192502169578L793.0,510.885004339156L793.0,515.442502169578L793.0,520.0L788.9686152036613,520.0zM837.9686152036613,520.0C808.6812193988134,520.0 802.8481654023018,519.7679003173879 802.3940416116279,518.5844726887995C802.0952877739959,517.805932667639 801.9969109323483,515.8934326676391 802.1754264079666,514.3344726887995L802.5,511.5L837.75,511.23720740605086L873.0,510.9744148121017L873.0,515.4872074060509L873.0,520.0L837.9686152036613,520.0zM362.33466488968077,509.9163859265639C362.79373057900517,509.53924228830493 363.0187305790052,508.1662694209948 362.83466488968077,506.8653351103192C362.58950630920197,505.1326101789538 361.7645109842858,504.41537266924115 359.75,504.1835776543028C357.2913596015041,503.9006799226235 357.0,504.1846706739558 357.0,506.864026701227C357.0,509.1954187322949 357.49963057046153,509.943193193146 359.25,510.2314998631689C360.4875,510.4353308362952 361.87559920035636,510.2935295648229 362.33466488968077,509.9163859265639zM451.25,510.8115296744975L519.5,510.5L519.8133584840882,507.25L520.1267169681763,504.0L451.56335848408816,504.0L383.0,504.0L383.0,507.5615296744975L383.0,511.123059348995L451.25,510.8115296744975zM360.0,497.0C362.76190476190476,497.0 363.0,496.72222222222223 363.0,493.5C363.0,490.27777777777777 362.76190476190476,490.0 360.0,490.0C357.23809523809524,490.0 357.0,490.27777777777777 357.0,493.5C357.0,496.72222222222223 357.23809523809524,497.0 360.0,497.0zM430.5,497.0L478.0,497.0L478.0,494.0L478.0,491.0L430.5,491.0L383.0,491.0L383.0,494.0L383.0,497.0L430.5,497.0zM358.4182125317642,483.0C359.1982294242345,483.0 360.5482294242345,482.72685503811704 361.4182125317642,482.3930111958157C362.356213335832,482.03306651435975 363.0,480.608568362847 363.0,478.8930111958157C363.0,477.0622626772537 362.4792573761603,476.0 361.5817874682358,476.0C360.8017705757655,476.0 359.4517705757655,476.27314496188296 358.5817874682358,476.6069888041843C357.643786664168,476.96693348564025 357.0,478.391431637153 357.0,480.1069888041843C357.0,481.9377373227463 357.5207426238397,483.0 358.4182125317642,483.0zM418.0,483.0L453.0,483.0L453.0,480.0L453.0,477.0L418.0,477.0L383.0,477.0L383.0,480.0L383.0,483.0L418.0,483.0zM821.1053489375911,481.8169082647944C807.4957155525323,482.08938876163313 805.0469931721913,481.9041360293341 803.638336836223,480.4954796933658C802.7372515763003,479.59439443344314 801.9683716318253,477.6517857142857 801.9297147373896,476.17857142857144C801.891057842954,474.7053571428571 801.5280351622737,472.656527556155 801.1229976692114,471.62561679145557C800.6600068863544,470.4472019775696 797.4735270043556,468.6891970805557 792.5411648862523,466.8909551533808C788.2261943486872,465.3178020171391 783.5934612224918,463.30842026392463 782.246202383596,462.4256623684597C779.9308516377672,460.9085862932149 779.651540135067,460.9515782883343 777.1483204291654,463.2103350868589C775.6917441931245,464.5246629774433 773.706735930771,466.19990104902655 772.7371909572687,466.93308635704386C771.2048986661252,468.09183012464484 770.2895316456481,467.8017743789359 765.7371909572687,464.71497037237094C762.8567359307709,462.76182127278355 758.6180653351494,459.43943739825977 756.3179229669986,457.3318950956515C754.0177805988479,455.2243527930432 750.0802805988479,451.1224791439867 747.5679229669986,448.2166203199705C745.0555653351494,445.31076149595424 743.0,441.957184755371 743.0,440.76422756311877C743.0,439.5712703708666 744.4099102652413,437.1405562605123 746.1331339227584,435.3626406512203L749.2662678455166,432.130066816144L746.5463532953265,427.488883552009C745.050400292722,424.93623275673474 743.03664756986,420.5194677231023 742.071347244522,417.673850143937C740.343121863648,412.5791988779147 740.2446381039318,412.4916078272785 735.6376675283531,411.9517618786216C732.7537393633181,411.6138224647333 730.1379527418644,410.58239718630887 728.8184437661725,409.262888210617C726.9108896809581,407.35533412540263 726.6283756722644,405.72732298878424 726.223816438169,394.31112633199547C725.9422790594169,386.3664650532645 726.2040279531637,379.90050661228855 726.9128788496621,377.2892820285606C727.9053183045957,373.63339005553036 728.5463674423091,372.9423577225206 731.7779665212663,372.0448589629633C733.8250849345699,371.4763211611764 736.5266231583522,371.0086442483241 737.7813847963382,371.00557693440265C739.0548353103599,371.00246393479244 740.3283754280385,370.22683582494057 740.6639487818801,369.25C740.9945973359421,368.2875 742.3682130619616,364.8 743.7164281730343,361.5C745.0646432841071,358.2 746.6630004253922,354.30395098534683 747.2683329314455,352.84211330077073C748.2428293059166,350.4887694617416 748.00405842072,349.7686523026097 745.1844687439531,346.55731707246446C743.4330109347788,344.5625168314721 742.0,342.59619365565777 742.0,342.1877100150991C742.0,341.77922637454054 742.7516638346111,340.33238467727836 743.6703640769135,338.9725062434054C744.589064319216,337.61262780953246 747.8130377026108,333.64658604862643 750.8347493733465,330.1590801080588C753.8564610440822,326.67157416749114 759.2469062781352,321.60907416749114 762.8135165601309,318.9090801080588C766.3801268421267,316.20908604862643 769.8277121467128,314.0 770.4748172369887,314.0C771.1219223272644,314.0 772.7423132586003,315.16632007617255 774.0756859732905,316.59182239149453C775.4090586879807,318.0173247068165 777.2811031190995,319.6047338913732 778.23578470911,320.119398357176C779.4522763371461,320.77520341348793 781.0977061712244,320.4897847085562 783.73578470911,319.1653601814894C785.8061031190995,318.1259747190589 790.4985355900287,316.28984333956515 794.163412422286,315.08506822705885L800.826824844572,312.89456802250186L801.5108238587998,307.9213011461659C801.8870233166251,305.18600436418114 802.8190903286289,302.3237668142285 803.582083885475,301.56077325738227C804.3618850097189,300.780972133138 808.3373047170728,299.8579085891258 812.6607817142954,299.45276564817704C816.8910719633005,299.05635501996045 824.2052712907758,299.02818812292924 828.9145579975738,299.39017254366325C833.6238447043717,299.7521569643973 838.0327088573936,300.6041374288218 838.7120338931779,301.28346246460654C839.3913589289623,301.9627875003913 840.2965569994545,304.91979743877204 840.7235851609385,307.8545956610081L841.5,313.19059242871003L848.5,315.42337309771125C852.35,316.65140246566193 857.010774363388,318.4450388785078 858.8572763630846,319.40923179292423C862.202136107204,321.1558261998227 862.228025049119,321.1516032698977 865.8572763630846,318.26741187722496C867.860774363388,316.6752180091739 870.0742983167086,315.0298488916636 870.7762184815746,314.6110360605355C871.5721812296945,314.1361110922861 874.5826734950134,315.72688951507376 878.7762184815746,318.8383272344436C882.4742983167085,321.5821502112212 886.625,325.091884773892 888.0,326.63773737371207C889.375,328.18358997353215 892.6334775555346,332.1599933098279 895.2410612345213,335.474189232147C897.848644913508,338.78838515446614 899.986144913508,341.77417120892767 899.9910612345213,342.1092693531725C899.9959775555345,342.44436749741743 898.5015338028074,344.6121471893864 896.67007511735,346.926557557548L893.3401502347,351.13457640875095L895.6762316596056,355.7489269337197C896.9610764433037,358.2868197224525 898.7530774266714,362.7132523961649 899.6584560670894,365.5854439864138L901.3045990496676,370.8076105141391L906.5823165463853,371.46701778304833C909.48506116958,371.8296917809484 912.388974179693,372.7637589269198 913.0354565688588,373.54272255187374C913.6819389580244,374.32168617682765 914.6663883112485,378.52712260280896 915.2231217982458,382.8881368318322C915.9066840451368,388.2426282621801 915.9060053269994,393.6429386877461 915.2210315386387,399.5195632325224C914.6339128452037,404.5566554295756 913.5959783945066,408.83259303406436 912.7566683339467,409.67190309462467C911.9591517011472,410.46941972742457 909.1452873791368,411.4319983354613 906.5036365072569,411.81096666803955C902.1481988549575,412.43579296977026 901.5866190929555,412.82614475291734 900.477081888716,416.0C899.8041277203985,417.925 897.8428252158529,422.39980094301984 896.1186318786149,425.9440020955996L892.9837349018185,432.38800419119923L895.9918674509092,435.49160933874793C897.6463403529092,437.19859216989977 899.0,439.3167034390077 899.0,440.19852327009903C899.0,441.0803431011903 896.9615997480091,444.513503695155 894.4702216622426,447.8277690344652C891.978843576476,451.1420343737753 887.366343576476,456.05261920735836 884.2202216622426,458.74017977576096C881.0740997480092,461.42774034416357 877.0805332752701,464.61065649078205 875.3456295006001,465.8133267682465C873.6107257259303,467.0159970457109 871.7138840286681,468.0 871.1304257289064,468.0C870.5469674291446,468.0 868.4518254137714,466.5795817233314 866.4745545836324,464.8435149407363L862.8795167106526,461.6870298814727L859.1897583553264,463.4906388071111C857.1603912598969,464.48262371621223 852.3504951383638,466.3105945943893 848.5011003074753,467.55279631417125C841.5177478697244,469.806327788368 841.5005738234216,469.8208742950696 840.7698687082461,474.10118976131145C840.3670861595585,476.46060443745665 839.3392464668103,479.09055183594825 838.4857805021388,479.945517313515C837.2426985707383,481.19078330082783 833.7853942692476,481.56303918881315 821.1053489375911,481.8169082647944zM360.38915548982686,465.6287563346315C361.93931173272824,465.3965305889214 362.58323513391514,464.4741586510573 362.8133584840881,462.1562675114713C363.1035577464013,459.23326861403484 362.9003149330896,459.0 360.0633584840881,459.0C357.3663374035208,459.0 357.0,459.3388294194211 357.0,461.83333333333337C357.0,463.3916666666667 357.2876199704221,464.9542866370888 357.63915548982686,465.30582215649355C357.9906910092316,465.6573576758983 359.22819100923164,465.8026780560604 360.38915548982686,465.6287563346315zM474.5,465.0L566.0,465.0L566.0,462.0L566.0,459.0L474.5,459.0L383.0,459.0L383.0,462.0L383.0,465.0L474.5,465.0zM820.3025945473471,453.9449384240381C824.5940215483879,453.97522229081716 831.3440215483879,453.2877619054352 835.3025945473471,452.41724867874495C839.2611675463062,451.54673545205475 846.1300181005676,449.06518814505205 850.56670689015,446.90269910762794C855.0033956797326,444.74021007020383 861.1699028456155,440.710164847143 864.2700561476674,437.94704305638163C867.3702094497195,435.1839212656203 872.0923608723351,429.6553487555674 874.7637259757021,425.6613263673751C877.435091079069,421.66730397918286 880.7185839131862,415.04708729680846 882.0603767181847,410.9497337398764C884.1191087194483,404.66310524051073 884.5,401.5484113910593 884.5,391.0C884.5,380.5566286875983 884.122047002938,377.4064119885406 882.2028364469659,371.8532726516586C880.9393964927972,368.1975726100708 878.2393964927971,362.46441364071893 876.2028364469659,359.1129193864322C874.1662764011347,355.7614251321455 869.4328857398245,349.9051312096243 865.6841905329435,346.09893289194065C861.3882710136455,341.73711611440103 856.3233878139283,337.8412162177844 851.9846720706887,335.5612856340975C848.1986321233296,333.5717779599674 841.631263243261,331.05659918924226 837.3905190038695,329.9719994769305C833.1497747644779,328.8873997646187 826.406477301439,328.0 822.4054135304498,328.0C818.4043497594605,328.0 811.8914801019139,328.6814018987679 807.9323698470128,329.5142264417064C803.9732595921116,330.3470509846449 797.0813403631652,332.76452801050834 792.6169937826871,334.88639761029174C788.1526472022092,337.00826721007513 782.104845367544,340.82337423395006 779.177434150098,343.3644132189026C776.2500229326517,345.90545220385513 772.2727894605571,349.8781091750521 770.3391375454432,352.1925398215625C768.4054856303293,354.5069704680729 765.3256025334933,359.3748375519589 763.4949528858078,363.0100222301981C761.6643032381222,366.64520690843733 759.3708249791316,372.29257291137696 758.3983345324953,375.55972445895287C757.1768611291216,379.6633521438912 756.6446610074134,384.746449151371 756.6770381198979,392.0C756.7132083745269,400.10334094137585 757.2273585508693,403.98364608391023 758.9295808135155,409.0C760.1427018752971,412.575 762.8595893741611,418.425 764.9671085887687,422.0C767.0746278033764,425.575 770.6088771328876,430.5539289125658 772.8209959876826,433.06428647236845C775.0331148424776,435.5746440321711 779.9158484585743,439.6868339993496 783.6715151345641,442.2024863994317C787.4271818105539,444.71813879951384 792.3,447.5387900795211 794.5,448.47060035500334C796.7,449.4024106304856 801.65,451.0029429541243 805.5,452.02733885197824C809.35,453.0517347498321 816.0111675463062,453.9146545572591 820.3025945473471,453.9449384240381zM360.0,452.0C362.77885420723237,452.0 363.0,451.73410986713156 363.0,448.3930111958157C363.0,445.51475182323713 362.68042731895605,444.9086539356359 361.4182125317642,445.3930111958157C360.54822942423453,445.72685503811704 359.19822942423457,446.0 358.4182125317642,446.0C357.5090874964706,446.0 357.0,447.07689253564274 357.0,449.0C357.0,451.6666666666667 357.3333333333333,452.0 360.0,452.0zM415.3865006410068,452.0L447.7730012820136,452.0L448.2133077909241,449.0L448.65361429983466,446.0L415.82680714991733,446.0L383.0,446.0L383.0,449.0L383.0,452.0L415.3865006410068,452.0zM385.77955313294103,438.5310989980386C386.54076512488285,438.23899454911736 412.4541303262255,438.0 443.3648091359247,438.0L499.56604333537774,438.0L499.4457588309573,435.25L499.32547432653683,432.5L441.1627371632684,432.24194217762795L383.0,431.98388435525584L383.0,434.82527551096126C383.0,436.3880406465992 383.31399454911735,437.98066121578404 383.69776566470523,438.364432331372C384.08153678029316,438.74820344695985 385.01834114099927,438.82320344695984 385.77955313294103,438.5310989980386zM360.0,438.0C362.6666666666667,438.0 363.0,437.6666666666667 363.0,435.0C363.0,432.3333333333333 362.6666666666667,432.0 360.0,432.0C357.3333333333333,432.0 357.0,432.3333333333333 357.0,435.0C357.0,437.6666666666667 357.3333333333333,438.0 360.0,438.0zM792.8205541299127,427.07259508298364C791.5445351623214,427.77331017510704 790.634436338068,427.35071969798645 789.0318585761277,425.3133722172118L786.92260889243,422.6318957662947L792.9613044462151,416.5390425921631C796.2825870007968,413.1879733463907 799.0,410.1207967989744 799.0,409.72309470901575C799.0,409.3253926190571 796.75,409.0 794.0,409.0L789.0,409.0L789.0,405.5897691050479L789.0,402.17953821009576L797.25,401.50004624293877C801.7875,401.12632566100245 807.075,400.9734295637309 809.0,401.16027713789094L812.5,401.5L812.5,413.5L812.5,425.5L809.25,425.8133584840881L806.0,426.12671696817625L806.0,421.0633584840881C806.0,418.2785113178397 805.6455836702756,416.0 805.2124081561681,416.0C804.7792326420605,416.0 802.1917326420605,418.28382683701363 799.4624081561681,421.07517074891916C796.7330836702756,423.8665146608247 793.7442493584607,426.5653556111537 792.8205541299127,427.07259508298364zM360.0,424.6666666666667C362.73333333333335,424.6666666666667 363.0,424.3703703703704 363.0,421.33333333333337C363.0,418.2962962962963 362.73333333333335,418.0 360.0,418.0C357.26666666666665,418.0 357.0,418.2962962962963 357.0,421.33333333333337C357.0,424.3703703703704 357.26666666666665,424.6666666666667 360.0,424.6666666666667zM430.7300251507548,425.0L478.12671696817625,425.0L477.8133584840881,421.9566126593511L477.5,418.91322531870225L432.0,418.91286910265586C406.975,418.91267318383035 385.7649597186766,418.9321974871223 384.86657715261464,418.9562564433047C383.9406863381058,418.9810520786804 383.02809132327235,420.07271770187975 382.75974173262864,421.4764979133473C382.4993648176983,422.83857176568836 382.5219050990217,424.1885717656883 382.8098312466807,424.4764979133473C383.0977573943396,424.7644240610063 404.66184465117294,425.0 430.7300251507548,425.0zM309.6084080298746,423.0C309.8237836134436,423.0 310.0,421.335 310.0,419.3C310.0,416.70395177239317 309.68511849647314,415.9148815035269 308.9446445105806,416.65535548941943C308.3619874028116,417.23801259718834 308.1865916310538,418.89525892758724 308.5530525404552,420.35535548941937C308.9181224760669,421.8099099702387 309.39303244630565,423.0 309.6084080298746,423.0zM822.4624873928897,423.0C819.0895854345184,423.0 819.0,422.8965074244575 819.0,419.0C819.0,415.08806945410595 819.0777927116353,415.0 822.5332437301885,415.0C824.4765277817921,415.0 828.3033135111505,413.8665144596225 831.0372120176513,412.48114324360563C834.150131302054,410.90370766428885 837.3030025207007,408.1940245842621 839.4730016137405,405.23114324360563C841.3787873850888,402.6290144596225 843.2996577115985,398.7206122852094 843.7416023393175,396.5458050782431C844.4848945536263,392.8880679700827 844.8245946696169,392.56438353012953 848.2725690130399,392.2284576850765C851.9176239639888,391.87333086489053 852.0,391.94061355462827 852.0,395.27293026179007C852.0,397.1471240382579 850.6214151628094,401.43934772145184 848.9364781395764,404.8112051133321C847.1746252743656,408.33698472708153 843.9442038104906,412.63961073866017 841.3335723245349,414.9375804761744C838.8369111494951,417.13522953385745 834.3486153134861,419.8483121775886 831.3595815778483,420.9666530177991C828.3705478422104,422.08499385800957 824.3668554589791,423.0 822.4624873928897,423.0zM248.0,416.9031365425336C252.125,416.937311457988 258.5351776806573,416.3220751747916 262.24483929034955,415.53594480209716C265.95450090004175,414.7498144294027 272.6293936520979,412.21302899541706 277.0779342949188,409.8986438376846C281.8368270170407,407.4227957860107 287.5327285300136,403.38219801857605 290.9153885074158,400.0825354533224C294.07744768146824,396.99806099965576 298.33967278897677,391.95153859017444 300.38699985743466,388.8680412100306C302.43432692589255,385.78454382988673 305.23331662749194,380.0298972596871 306.60697697210003,376.07993772069807C308.06446604824583,371.8889287118901 309.3480170859711,365.4481114321015 309.6892072206578,360.61340677512635C310.1112817676003,354.63256040755175 309.7994624456998,350.1962348441651 308.56792954056743,344.6607300598986C307.62966052441897,340.4433903475987 305.24323394373874,333.73195074727164 303.2647593612781,329.7464198369494C300.6693993313201,324.5182062857056 297.4161164826808,320.2445553357249 291.5837664238566,314.40176986757797C285.781471700257,308.5890935105301 281.64491283648834,305.42344509082 276.9270097130577,303.1851668292385C273.3118650552395,301.47006173098396 267.70482061290323,299.37676529057387 264.46691095231057,298.53339696166057C261.2290012917179,297.69002863274727 254.51184692084192,297.0066514890132 249.53990123925286,297.01478108669596C244.5679555576638,297.02291068437876 237.58182439186268,297.71733981698077 234.01516531525039,298.55795693692266C230.44850623863812,299.3985740568645 224.17587710999157,301.6997789692252 220.0759894738136,303.67174563105743C214.5432546731869,306.33288406795526 210.66543716231155,309.2218187255994 205.03306740068825,314.87856978083084C199.5026710205755,320.4329060341443 196.42762992236857,324.56917515007933 193.69530939927125,330.12910360054207C191.6332620025329,334.3251105808402 189.29106617427522,340.8501105808402 188.4904297809209,344.62910360054207C187.68979338756657,348.40809662024395 187.03031298762534,353.525 187.02491778105153,356.0C187.01952257447772,358.475 187.4741891113698,363.32897556365924 188.03528786303397,366.78661236368725C188.59638661469813,370.24424916371527 189.97288475028506,375.5252422846774 191.09417260878274,378.52215263249207C192.21546046728042,381.51906298030667 194.95476136901175,386.6993727073452 197.18150794596352,390.033952025911C199.40825452291529,393.36853134447676 204.2810603830432,398.6649401647856 208.00996541291445,401.803749404375C211.7388704427857,404.9425586439645 217.79306914049224,409.00535504700224 221.4637402967067,410.83218585557006C225.1344114529212,412.6590166641378 230.91920808643175,414.75833979770556 234.31884392673015,415.4973483746095C237.71847976702858,416.23635695151336 243.875,416.8689616270792 248.0,416.9031365425336zM793.3920938438757,393.0L789.721418095074,393.0L790.2863377683384,388.25C790.5970435886337,385.6375 791.7222407493222,381.475 792.7867759032017,379.0C793.8513110570811,376.525 796.6236315302676,372.6015877789234 798.9474880658386,370.28130617538534C801.2713446014094,367.96102457184725 805.4963283693291,364.9434524280674 808.3363408834382,363.57559030031905C811.1763533975472,362.2077281725707 815.75,360.9561403936473 818.5,360.7942841249337L823.5,360.5L823.8018383715639,364.1069707789078C824.1015536205797,367.68857022761836 824.0716367401674,367.718333128738 819.5486394811348,368.3382788656244C817.0433689870388,368.68166438491926 813.2433926154367,369.85550648749586 811.1042475442414,370.94681687135017C808.9651024730462,372.0381272552045 805.6447502994321,374.76537602831274 803.7256871584325,377.0073697004798C801.8066240174328,379.24936337264677 799.6893011976529,383.20238441956167 799.0205253366993,385.7918609158462C798.3517494757457,388.3813374121308 797.6376643084053,391.0625 797.433669409276,391.75C797.2243000764779,392.45561282126727 795.4641545407312,393.0 793.3920938438757,393.0zM108.5,392.0C107.345,392.0 105.86,391.46 105.2,390.8C104.54,390.14000000000004 104.0,388.65500000000003 104.0,387.5C104.0,386.34499999999997 104.53999999999999,384.85999999999996 105.19999999999999,384.2C105.86,383.54 107.345,383.0 108.5,383.0C109.65499999999999,383.0 111.14,383.54 111.8,384.2C112.46,384.85999999999996 113.0,386.34499999999997 113.0,387.5C113.0,388.65500000000003 112.46,390.14000000000004 111.8,390.8C111.14,391.46 109.655,392.0 108.5,392.0zM211.1371700255179,392.0C210.59029794005448,392.0 209.43571428571428,391.29285714285714 208.57142857142856,390.42857142857144C207.21696299746455,389.0741058546074 207.0,384.9534837177677 207.0,360.5835589906835C207.0,334.5486075892377 207.14359640304482,332.18002216550457 208.81360049398972,330.6686892345231C209.81108076568407,329.7659819951875 218.88468775935615,324.071237592237 228.97717159103883,318.013701672411C239.0696554227215,311.956165752585 248.21291990548863,307.0 249.2955371082992,307.0C250.3781543111097,306.99999999999994 252.8920473174376,307.98810801048376 254.88196601125009,309.1957955788529C256.87188470506254,310.40348314722195 265.475,315.87007432816176 274.0,321.34377598094125C282.525,326.8174776337208 289.8306092514673,331.791869623237 290.23468722548296,332.39798040208836C290.6387651994986,333.0040911809398 290.9762651994986,345.5670836543402 290.98468722548296,360.31574145408933C290.9935303710616,375.8018641821304 290.5892382489884,387.8989982606103 290.0277800885716,388.94809242969166C289.493059137286,389.94722766652376 288.3354601543772,391.0410302573071 287.4553379043298,391.3787648536547C286.57521565428243,391.71649945000223 284.98771461442516,391.5286088196616 283.9275578157582,390.9612301195644C282.10149876048325,389.9839529711413 281.99919368040725,388.57557609455665 281.98468722548296,364.21481624151204C281.9762651994985,350.0716673086804 281.63876519949855,338.0025839756622 281.23468722548296,337.39463105702714C280.8306092514673,336.78667813839206 273.5953129324921,331.9491781383921 265.1562509610935,326.64463105702714C256.71718898969493,321.3400839756622 249.6198347827181,317.0 249.38435272336724,317.0C249.14887066401639,317.0 244.3535577315243,319.7704791667267 238.72810176227375,323.1566203705039C233.10264579302319,326.54276157428103 225.6875,331.1054215022796 222.25,333.29586465494526L216.0,337.27848856888284L216.0,363.6040605259534C216.0,388.6079260329042 215.90288826390938,389.9816051069383 214.06574145408933,390.96481624151204C213.00189925383847,391.5341673086804 211.68404211098132,392.0 211.1371700255179,392.0zM236.67857142857144,391.96959131409926C236.03035714285716,391.95286653685383 234.7125,391.4805059857468 233.75,390.919901200528C232.15739634096255,389.99229472550115 232.0,387.6586431858128 232.0,364.97336286628297C232.0,340.1817430455759 232.01224296136337,340.03890338593584 234.25,338.72242368158413C235.8368960180703,337.7888476209861 240.5755448759158,337.41366250980883 250.32886578983428,337.4493707017299C262.8298838212863,337.4951385745413 264.29418889323335,337.6863872767207 265.57886578983425,339.44112963510497C266.7128075199008,340.98998257310984 267.0,346.1890592452799 267.0,365.16807665525073L267.0,388.9538940402916L264.5670577760284,390.5480190112445C262.684861976923,391.7812810649067 261.67059370909567,391.8940746201402 260.08649106907023,391.0462886154206C258.13312733737155,390.00088007179596 258.02646344047025,388.95260071406807 257.76943329304186,368.274536337129L257.5,346.5986394256142L250.5,346.47906213460465C246.65,346.41329462454934 242.9375,346.55174571566914 242.25,346.7867312259819C241.30370217409,347.11017308420634 241.0,352.2728255371858 241.0,368.03556023275576C241.0,385.6309383761379 240.75651467085004,389.1006281862928 239.42857142857144,390.42857142857144C238.56428571428572,391.29285714285714 237.3267857142857,391.9863160913447 236.67857142857144,391.96959131409926zM842.75,380.7817353124535L831.0,381.063470624907L831.0,368.6483124650681L831.0,356.2331543052293L833.744302790836,355.70854758652274C835.2536693257956,355.42001389123413 836.8286693257957,355.3941118200263 837.244302790836,355.6509874282831C837.6599362558761,355.9078630365398 838.0,358.11647634128116 838.0,360.55901699437493C838.0,363.00155764746876 838.3528720740887,365.0 838.7841601646417,365.0C839.2154482551946,365.0 842.0125761811058,362.525 845.0,359.5C847.9874238188942,356.475 850.9311104327861,354.0 851.5415258086489,354.0C852.1519411845115,354.0 853.6220278920775,355.0332159067115 854.8083851587955,356.2960353482478L856.9653983710101,358.5920706964956L850.482699185505,365.0171470325283C846.9172146334773,368.55093901734637 844.0,371.76920629926286 844.0,372.1688521034539C844.0,372.568497907645 846.3625,373.03149764971874 849.25,373.1977404191734L854.5,373.5L854.5,377.0L854.5,380.5L842.75,380.7817353124535zM620.4259114104749,370.6173884487673L610.4447309312403,371.2714938813083L609.2223654656202,368.5886939195283C608.550064459529,367.1131539405493 608.0,364.4258456798724 608.0,362.61689778469065C608.0,359.46644876304737 607.7577844184926,359.26000386596934 602.25,357.7160646062008C599.0875,356.82955425321313 593.8099804624846,354.47687215920934 590.5221788055214,352.48788217508127L584.544357611043,348.8715367493938L579.7697803121373,351.1078291338672L574.9952030132317,353.34412151834067L572.521154868527,351.0198739670756C571.1604283889394,349.74153781387986 568.2072341691289,345.5986622862557 565.9585010467258,341.8134839056886C563.6359955539111,337.90412823668134 562.005984294767,333.97622940328705 562.1849476848147,332.7202118409397C562.3640278873219,331.46337445449126 564.1579560300228,329.43817817694907 566.3415442361356,328.02775863581553C570.0750266435093,325.61623409602504 570.1595054550785,325.4332627261851 569.3447239470262,321.5232174926591C568.8836234581414,319.3104478716966 568.5049285518804,313.52423521566294 568.5031797108907,308.6649671459176L568.5,299.82993429183523L565.49961286501,298.56819539223363C563.8493999407656,297.8742389974528 561.8786389283221,296.55869514174185 561.1201439484689,295.6447646017649C560.2046917429777,294.5417121746419 559.9438453988946,292.73346613063063 560.344247716899,290.26607587131247C560.6759997693886,288.2217276095405 562.3369631427448,283.7265430872759 564.0352774354683,280.27677693294663C565.7335917281916,276.8270107786173 568.0188616531076,273.52508930808665 569.1136550463923,272.9391736651006C570.5995066902377,272.1439699977919 572.3541896395176,272.28905621922513 576.0343625133239,273.51141339446843L580.9645365379193,275.1489542929017L585.7322682689596,271.1396527373745C588.3545207210318,268.93453688183456 593.3352650762642,265.72720468281017 596.800589058365,264.01224785065364C602.0527478264397,261.4130029865643 602.9971587921821,260.5664086487969 602.4760693000791,258.9246010411215C602.1322594509212,257.8413521280353 602.1426119370774,255.62717719217815 602.4990748248707,254.0042122947722C603.0113267886022,251.67194438068393 603.9178636436741,250.83931534043802 606.8235945831566,250.03226044778341C608.8456175624204,249.47065182934554 614.4109423525313,249.00864424832423 619.1909830056251,249.0055769344027C624.1897941189638,249.00236923722363 628.157724665471,249.44618687522131 628.5310727829296,250.05027681890516C628.8880815073534,250.627929069303 629.4771391548221,253.15342155842495 629.8400897773046,255.6624823502873C630.4942266634492,260.18450025539687 630.5533452851508,260.2437167203208 636.5975310713394,262.4311074272282C639.9511731605761,263.64479042768335 644.2261731605761,265.60999301207255 646.0975310713394,266.79822428142637C647.9688889821027,267.9864555507802 650.4806454539333,269.47566755430205 651.6792121198519,270.1075842892527C653.4850457429734,271.05966857412017 654.322000153455,270.8918749404434 656.5640708116534,269.1282619036724C658.0521764262257,267.95771785665255 660.3158199266321,267.0 661.5943897014453,267.0C662.8729594762584,267.0 665.0825671792659,268.2375 666.5046290414618,269.75C667.9266909036577,271.2625 670.7434634508948,275.8234590698282 672.7641235908774,279.8854645996181L676.4380511181186,287.27092919923626L673.0067997758463,290.1354645996181C671.1196115375966,291.71095906982816 669.1691995454654,293.0 668.6725509044436,293.0C668.156479263343,293.0 668.0779139479736,295.4638205359369 668.4891972239357,298.75C668.8850013406781,301.9125 669.1659530773056,307.39512200491816 669.1135344164412,310.9336044553737C669.0611157555768,314.47208690582926 668.7815743168559,318.11283788572615 668.4923312192834,319.0241621884779C668.1115476594823,320.22390494827937 669.0807358402718,321.18359527945654 672.0047165864685,322.50212688415724C674.6517596392081,323.69577698892635 676.2549530821041,325.16763264352704 676.6582288502345,326.7744112859728C677.1000557964943,328.53479005655606 676.0370542366743,331.6380686899884 672.8867296028873,337.78475545920287C670.4740283212993,342.49224461335274 667.7256149613472,346.81839126292294 666.7791443585493,347.39841468047007C665.5140877119966,348.1736764554846 663.8655089513793,348.0109273996027 660.5549839449891,346.78396042741065L656.0516791728796,345.11491814244755L651.9477718480896,348.54363538225556C649.690622819455,350.42942986414994 644.9539950055571,353.35156017541476 641.4219322616498,355.03725829617724L635.0,358.102163970291L635.0,362.5280290052913C635.0,366.0408586535569 634.5262522015975,367.2643055198271 632.7035459448548,368.45858852825893C631.2767740106389,369.3934454047512 626.6271537763772,370.2109970075466 620.4259114104749,370.6173884487673zM482.359016994375,359.0C481.1264763412812,359.0 479.7889526124296,358.4675351480492 479.38674204137146,357.8167447734426C478.98453147031336,357.16595439883605 478.62047382284464,353.67845439883604 478.57772504699653,350.0667447734426L478.5,343.5L472.0383476104055,343.1967888335571C468.48443879612853,343.0300226920135 464.9969387961285,342.41242257006456 464.2883476104055,341.82434411811494C463.5797564246825,341.2362656661653 463.0,339.7752106910646 463.0,338.5775552845579C463.0,337.3798998780511 463.53999999999996,335.86000000000007 464.19999999999993,335.20000000000005C464.8749775917708,334.5250224082292 468.10955804351437,334.0 471.5930111958156,334.0C476.3177367598796,334.0 477.9299318585511,333.6249779406721 478.3930111958157,332.4182125317642C478.72685503811704,331.54822942423453 479.0,328.41406211555415 479.0,325.4533962902522C479.0,321.09382335596797 479.38025278411027,319.86686240280034 481.0,319.0C482.4209886054524,318.23950997736534 483.5790113945476,318.23950997736534 485.0,319.0C486.70610686527755,319.9130806845414 487.0,321.09382335596797 487.0,327.03518375848796L487.0,334.0L493.4182125317643,334.0C496.9482294242346,334.0 500.54822942423465,334.27314496188296 501.4182125317643,334.60698880418437C502.318754710506,334.9525592623963 503.0,336.37380547939756 503.0,337.9069888041844C503.0,339.38814496188303 502.46,341.14000000000004 501.79999999999995,341.80000000000007C501.1019607843137,342.4980392156863 497.7555555555553,343.0 493.79999999999995,343.0L487.0,343.0L487.0,349.8C487.0,353.75555555555553 486.4980392156863,357.10196078431375 485.8,357.8C485.14000000000004,358.46 483.59155764746873,359.0 482.359016994375,359.0zM84.5,351.99618273059804C83.4,352.38776350263004 81.825,352.48133968403215 81.0,352.20412980038043C80.175,351.92691991672876 79.16939074853268,351.20508666833115 78.76531277451707,350.60005591505234C78.36123480050145,349.9950251617735 78.02373480050144,348.72287384093437 78.01531277451707,347.77305297985424C78.00689074853268,346.82323211877406 79.09482400078721,345.3287497227796 80.4329422239716,344.4519809887555C82.35547294208189,343.1922904811195 83.31178888436827,343.096496830015 84.99134541184557,343.9953682049833C86.58477958848546,344.84814829654067 87.03960958878609,345.90275485135294 86.80840318787398,348.20854904135194C86.6084949235352,350.2022106036039 85.79640854698593,351.53468394905474 84.5,351.99618273059804zM402.46862339169945,342.0C401.8711231248801,342.0 400.58583048520774,341.41763705393606 399.61241752576075,340.7058601198579C398.38191025196164,339.8060912332764 397.9427461903584,338.38932759641204 398.1712878906559,336.05670905870204C398.3520795507951,334.2114529091445 399.2637540687899,332.2235960884373 400.19723126397764,331.6392494571305C401.3427884937975,330.92214301718184 402.8054843599412,330.89523135345445 404.69723126397764,331.55645542620704C406.8441079354811,332.3068552462887 407.5716541731911,333.26995550900625 407.8061937890237,335.6719912773376C408.03518891415695,338.01724318452966 407.5378736453133,339.2102779612197 405.8336875456183,340.4039363694169C404.58040252778227,341.2817713662376 403.0661236585188,342.0 402.46862339169945,342.0zM620.5,334.65157921133994C625.2092398827596,334.4259347700002 628.9036563103286,333.5967352759527 631.7892287578921,332.1177493202711C634.1483045747328,330.90861662133597 636.959122447536,328.47497782925603 638.0354906974546,326.70966311564905C639.1383295183739,324.9009349248528 639.9941554458126,321.7038472663216 639.9962619395624,319.3848586918013C639.9986812828366,316.7214615603873 639.2632885787914,314.33314057984114 637.9117039695302,312.61487918614864C636.7631411527718,311.15471817754894 634.6030667629061,309.3289780407134 633.1115386587176,308.5576788820697C631.6200105545289,307.7863797234259 626.2760421996104,306.6949258480474 621.2360534255654,306.1322258256729C616.1960646515204,305.56952580329835 611.156139041386,304.6187468375037 610.036218736378,304.0193836794625C608.9162984313701,303.42002052142135 608.0,302.1152095772941 608.0,301.1198038036241C608.0,300.12439802995414 608.9330538842447,298.46557296420235 610.0734530760993,297.43352587973123C611.5551683011568,296.09259203046213 614.0523100287896,295.45941356341666 618.8234530760993,295.2148646298151C624.0722503608657,294.9458331281493 626.3386711628997,295.3096440682588 629.4218552184102,296.9161438642773C631.8560909896364,298.1845077373151 633.7526671816906,298.61713871490593 634.4218552184102,298.05670172692317C635.0148348482846,297.5600883694415 636.3195212929733,295.7580313171222 637.3211584288296,294.05213049954693L639.1423168576591,290.95049264941025L634.3211584288296,288.73501454724016C630.553005612146,287.0034265535596 627.6434860863069,286.5174029343585 621.0,286.50976822253506C613.7786419802586,286.50146941875363 611.8288937152738,286.8760711706643 608.0387016004131,289.0C605.5849874806403,290.375 602.5474874806403,293.0290474489063 601.2887016004131,294.89788321979177C600.029915720186,296.7667189906773 599.0,299.60156595777516 599.0,301.197543146676C599.0,302.79352033557683 599.630883906683,305.3193148022301 600.4019642370735,306.8104197392389C601.1730445674639,308.3015246762477 603.6613987430243,310.56547630975297 605.9316401827634,311.8414233692506C608.8713794941533,313.4936492798519 612.6843700002107,314.40756558408344 619.1802018441629,315.0169037410832C625.1288857526606,315.57491696809626 628.8394500543922,316.4108786258207 629.8490948856276,317.4205234570561C631.0255129833243,318.5969415547529 631.1694234204462,319.60919723965213 630.4485689871545,321.63718125726086C629.7966269202483,323.4712937091403 628.2491603699248,324.750130797662 625.5,325.7267129854642C623.0306510792177,326.6038979608793 619.6383028212696,326.94086453344386 616.6348881426798,326.6072966198135C613.9590766211537,326.31011325953153 609.7730894206263,325.1003837095764 607.3326943637301,323.9190087310243C604.8922993068339,322.7376337524722 602.7733725323436,321.93506702403863 602.6239681981962,322.135527112283C602.4745638640487,322.33598720052737 601.3772854854127,323.913520029025 600.1855718012272,325.6411556200555L598.0188196481627,328.78231124011097L600.503004214618,330.41001148339C601.8693057261685,331.3052466171935 605.3525713053319,332.7012984411916 608.2435943905367,333.51234887005245C611.3679803758594,334.3888671539399 616.3392286436413,334.85094364203826 620.5,334.65157921133994zM440.9174694928178,316.79850833084663C438.4664036971868,317.00638527934643 436.8819676982381,316.5270571177938 435.69888699818716,315.21976765926263C434.7644991491842,314.1872807079257 434.0,312.17259481618754 434.0,310.7426878998445C434.0,309.31278098350145 434.6776638918076,307.4651932510495 435.50591975957246,306.63693738328465C436.33417562733734,305.80868151551977 437.84973883543756,304.8650787115527 438.8738379997952,304.5400422633578C439.89793716415284,304.2150058151629 441.9077051273064,304.394610568422 443.33998902902533,304.93916393726704C444.914943762963,305.5379606598405 446.2135557166036,307.0026924016474 446.6258331889892,308.6453366905955C447.04897527238813,310.33126903777696 446.7631949583179,312.33588486451043 445.8723448948173,313.93070620483024C444.8275908996308,315.80105008779566 443.47966808374974,316.5812061166496 440.9174694928178,316.79850833084663zM709.1224454227383,312.0C708.5674748057462,312.0 707.4188435157113,311.00837038093783 706.569931444883,309.7963786243064C705.2547125261234,307.91864058466814 705.2270248149279,307.29012781314015 706.3827072898437,305.5463786243064C707.1286460754003,304.42087038093786 708.4943113743018,303.3503409450154 709.4175190651804,303.16742432225647C710.3407267560589,302.9845076994975 711.7494608399345,303.3771078214465 712.5480392515706,304.0398690376986C713.3466176632068,304.70263025395076 714.0,306.2989566176158 714.0,307.5872609569542C714.0,308.87963918682965 713.1329477481651,310.3936647659665 712.0657414540893,310.96481624151204C711.0018992538385,311.5341673086804 709.6774160397306,312.0 709.1224454227383,312.0zM106.04724778138137,306.9103283560635C105.74626150162162,306.86100895189844 102.8,304.1539862352216 99.5,300.8947223190039L93.5,294.9687879258808L99.97801559803452,289.1261417854173L106.45603119606905,283.28349564495375L112.22801559803452,288.3642064483241C115.40260701911554,291.1585973901778 118.0,293.77563454674566 118.0,294.1798445740304C118.0,294.5840546013152 115.43376150162162,297.633948219684 112.29724778138137,300.9573859481832C109.16073406114114,304.2808236766824 106.34823406114114,306.95964776022856 106.04724778138137,306.9103283560635zM513.1285714285714,305.0C512.1778571428571,305.0 510.85999999999996,304.46 510.2,303.8C509.54,303.14000000000004 509.0,301.65500000000003 509.0,300.5C509.0,299.34499999999997 509.54,297.85999999999996 510.2,297.2C510.85999999999996,296.54 512.345,296.0 513.5,296.0C514.655,296.0 516.14,296.54 516.8,297.2C517.46,297.85999999999996 518.0,299.17785714285714 518.0,300.1285714285714C518.0,301.0792857142857 517.2928571428572,302.5642857142857 516.4285714285714,303.42857142857144C515.5642857142857,304.29285714285714 514.0792857142858,305.0 513.1285714285714,305.0zM400.50632891025407,290.0C400.3064194381858,290.0 399.4357142857143,289.29285714285714 398.57142857142856,288.42857142857144C397.4493419613868,287.3064848185296 397.0,284.90232298039774 397.0,280.02079087961295L397.0,273.1844389020831L390.22270076537615,273.2888730877396C386.495186186333,273.34631188985065 382.89518618633304,273.0532554894132 382.22270076537615,272.63763664232306C381.55021534441926,272.22201779523294 381.0,270.58508130618753 381.0,269.0C381.0,267.41491869381247 381.5625,265.75406363933564 382.25,265.3092109900515C382.9375,264.8643583407674 386.425,264.5003006932987 390.0,264.50019399567657L396.5,264.5L397.0,257.2117366959813C397.3404879957295,252.248604366513 397.9785360128115,249.621541438758 399.0,248.97704947049837C399.825,248.45651631369304 401.19749999999993,248.02373480050147 402.0499999999999,248.01531277451707C402.90249999999986,248.00689074853267 404.1399999999998,248.53999999999996 404.7999999999999,249.1999999999999C405.49452395271794,249.89452395271786 406.0,253.22220095921614 406.0,257.0999043164752L406.0,263.7998086329506L414.25,264.6499043164753L422.5,265.5L422.81387124823584,268.7568750986916C423.0092557036832,270.7842757325329 422.6317544401732,272.18722215175603 421.81387124823584,272.4732770152801C421.0912420617061,272.72601676512335 417.35,273.0676893712483 413.5,273.23254947333555L406.5,273.53229511349423L406.20534821754666,280.8078749812413C405.9326869821484,287.5404614209383 405.72258955443687,288.15497295754307 403.3902485563721,289.0417274244942C402.0040022230755,289.5687773410224 400.70623838232234,290.0 400.50632891025407,290.0zM740.25,286.8195509530758C738.277206703271,287.09973227671645 738.0,286.699322594214 738.0,283.5695509530758C738.0,280.1434830156414 737.8565169843586,280.0 734.4304490469242,280.0C731.3006774057859,280.0 730.9002677232835,279.7227932967291 731.1804490469242,277.75C731.4239155674198,276.03572042786186 732.2597798998954,275.4264370121103 734.6910389932068,275.19103899320686C737.4694899447837,274.9220253568483 737.9220253568483,274.46948994478373 738.1910389932068,271.69103899320686C738.4264370121103,269.2597798998954 739.0357204278619,268.4239155674198 740.75,268.1804490469242C742.722793296729,267.90026772328355 743.0,268.300677405786 743.0,271.4304490469242C743.0,274.84326918377275 743.1536769929907,275.0 746.5,275.0C749.5666666666667,275.0 750.0,275.3095238095238 750.0,277.5C750.0,279.68169706510946 749.5624427677275,280.0 746.5633584840882,280.0C743.4170672321031,280.0 743.1002423655337,280.2745815510268 742.8133584840882,283.25C742.5731864473372,285.74094618169346 741.9745012027108,286.57463272956176 740.25,286.8195509530758zM502.419759070363,259.299849190008L496.339518140726,264.9010930792753L490.4404666802565,258.93983892974416L484.54141521978704,252.97858478021297L490.76,246.76L496.978584780213,240.54141521978704L502.9971387310777,246.4971685869799C506.30734340405326,249.772832938936 508.8996618285053,252.7332007071506 508.7578463409712,253.07576362745675C508.61603085343705,253.41832654776292 505.76389158166336,256.219165050911 502.419759070363,259.299849190008z"/></svg>