<svg version="1.1" xmlns="http://www.w3.org/2000/svg" xmlns:xlink="http://www.w3.org/1999/xlink" width="1024" height="1024" viewBox="0 0 1024 1024"><path stroke="none" fill="black" fill-rule="evenodd" d="M394.8071799468222,939.9149547855013C393.53823097607,939.868179917527 390.25,939.2804988432166 387.5,938.6089968425895C384.75,937.9374948419622 379.8336863881145,936.1645788003722 376.5748586402543,934.6691834168339C372.52895219001584,932.8126171003455 370.3246701605934,932.2753298394066 369.62485864025433,932.9751413597457C369.06118638811444,933.5388136118855 367.44012780953244,934.0 366.0225062434054,934.0C364.6048846772784,934.0 362.47932253431236,933.3236044281093 361.299034814592,932.4968987291318C360.11874709487165,931.6701930301541 358.65057034547857,929.4712475088411 358.0364198159407,927.6103531262138C357.2432383760818,925.2069897570601 357.21390384540274,922.4005821138196 357.935150884784,917.9220473704453C358.4936035021856,914.4543735873998 358.84915244204626,911.5694356521557 358.72525964002983,911.5110741810139C358.6013668380134,911.4527127098721 357.2625,910.8734933278761 355.75,910.2239199988005C353.3577123397485,909.1965042899901 353.0026668413188,908.487260722636 353.0205019866853,904.7714387911499C353.0317780793622,902.4221474560175 353.6957531696812,892.85 354.4960021873942,883.5C355.2962512051072,874.15 356.18419916830356,853.9 356.46921988338613,838.5C356.7542405984687,823.1 357.1939484304986,795.425 357.4463483990082,777.0C357.7617500325755,753.9759277990645 357.5905668928898,744.2762352952426 356.898937678978,745.9822510129318C356.34546181445177,747.3474890700442 354.38515981059317,753.6517913919292 352.5427110037366,759.9918117282318C350.4351356424744,767.2441546975272 348.75485341483005,775.9658423377771 348.01188425470167,783.5095607153C347.362378349589,790.104302321885 345.9706615606687,801.1967436957724 344.9191802793232,808.1594304350497C343.86769899797764,815.122117174327 340.99655810640616,830.872117174327 338.53886718694207,843.1594304350497C336.081176267478,855.4467436957724 333.406649298218,870.0 332.59547392191985,875.5C331.78429854562177,881.0 330.8051701759841,890.45 330.4196331005028,896.5C330.028590265028,902.6363985595124 329.231845165355,907.8132119983986 328.61763591721297,908.2083911016442C328.01207454188483,908.5980062075486 326.4305526683957,908.644197850887 325.1031428650149,908.3110391979519C322.93861074108526,907.767776217065 322.7609373812396,907.9525736753722 323.38060200641075,910.1026480963077C323.76061433755933,911.4211916433385 324.34576036885784,915.7673868187918 324.6809265204074,919.760859597315C325.19741486644483,925.9147690562171 325.0145044364128,927.3264914350002 323.481155270321,929.0208231919066C322.4861149312238,930.1203303904089 319.41411748615576,931.6904435716172 316.6544942812808,932.5099635945917C313.8948710764059,933.3294836175662 310.2916063996999,934.0 308.64723944415636,934.0C307.0028724886128,934.0 304.92890153760794,933.340644337962 304.03841510858996,932.5347651954711C302.61593127818054,931.247435021645 301.81715935026153,931.2514565615679 297.4596744370059,932.5678868755512C294.73185349665266,933.3919829420861 288.225,934.7585737425482 283.0,935.6047553210224C277.67519275501604,936.4671005458323 271.522277116045,936.868410082479 269.0,936.5178725881387C266.525,936.1739055065785 263.0340454489953,935.4306318262174 261.24232321998954,934.8661532984474C259.4506009909838,934.3016747706774 257.5381009909838,933.0054508987793 256.99232321998954,931.9856558053405C256.4465454489953,930.9658607119015 256.00000000000006,929.077027063371 256.0,927.7882476974949C256.0,926.4994683316186 256.7141367544874,924.4254394482252 257.5869705655276,923.1792946232874C258.45980437656783,921.9331497983496 265.0973043765678,917.9409162879914 272.3369705655276,914.3076646002693C279.5766367544874,910.6744129125472 286.9478455678005,906.9813581416003 288.71743459511225,906.1008762203872C290.487023622424,905.2203942991742 291.949523622424,904.2347317591386 291.96743459511225,903.9105150203081C291.9853455678005,903.5862982814776 290.875,902.808445737495 289.5,902.181953811458C287.5012562545262,901.2712652159987 287.0,900.3146060357144 287.0,897.4106458644449C287.0,895.4129184196246 288.11277585632473,887.6407709636072 289.4728352362772,880.139207073295C290.8328946162297,872.6376431829827 292.39980002153175,861.9187002308887 292.95484724805954,856.3193338464193C293.5098944745873,850.71996746195 294.42904665638036,834.5199674619499 294.997407652044,820.3193338464193C295.56576864770756,806.1187002308887 296.4969982778923,788.2 297.06680683023234,780.5C297.63661538257236,772.8 299.220080250286,758.4 300.5856176473738,748.5C301.9511550444616,738.6 304.42306322767564,722.625 306.078746943405,713.0C307.7344306591343,703.375 310.0056007749417,691.5664604573645 311.12579164519906,686.7588010163657C312.24598251545643,681.9511415753669 313.64406969618807,677.7199770253818 314.2326520468249,677.3562131275099C314.98057592408213,676.8939707503673 315.1263160693748,679.8270800626065 314.7166721102011,687.0974121111442C314.39430079442127,692.8188354500148 312.5573790535881,706.725 310.63462379723853,718.0C308.711868540889,729.275 306.2120899270883,745.475 305.07956021101484,754.0C303.9470304949414,762.525 302.5921738941602,775.8 302.0687677648345,783.5C301.54536163550875,791.2 300.84741382264775,806.5 300.5177726251433,817.5C300.1881314276389,828.5 299.45058775208844,843.125 298.87878667947564,850.0C298.3069856068628,856.875 296.72413199923096,868.8 295.36133421807153,876.5C293.99853643691216,884.2 292.6338324622775,892.3448245668183 292.3286587188834,894.599610148485C291.9130308567915,897.6704893806261 292.145075837784,898.8416932140778 293.25338445995726,899.2669911373132C294.06715736094196,899.579265099502 299.4055529533089,900.52133468873 305.1164857763283,901.3604791133755C310.82741859934777,902.199623538021 317.6375,903.08152534177 320.25,903.3202608994844L325.0,903.7543255498742L325.0,898.5891554105497C325.0,895.7483118339212 325.64604801031226,888.2660885851996 326.43566224513836,881.9619926356127C327.22527647996446,875.6578966860257 329.8967364454297,860.375 332.37223994617233,848.0C334.84774344691493,835.625 337.7869856762196,820.1 338.90388934462715,813.5C340.02079301303473,806.9 341.59740980537475,795.2 342.4074822164938,787.5C343.2175546276129,779.8 344.6173339248407,770.35 345.51810287700005,766.5C346.41887182915934,762.65 349.55670422944996,750.95 352.4910637665347,740.5C355.4254233036194,730.05 358.8709389272352,717.3375 360.1477651523476,712.25C361.42459137745993,707.1625 362.78610941456145,703.0 363.17336079035096,703.0C363.56061216614046,703.0 364.1818433077436,705.0298119954746 364.55387443835775,707.5106933232769C364.925905568972,709.9915746510792 364.987035616017,719.7790746510792 364.6897189873466,729.2606933232769C364.39240235867624,738.7423119954746 363.6740420567134,770.8 363.09336276076255,800.5C362.5126834648117,830.2 361.54692142806664,861.925 360.94722490132915,871.0C360.3475283745916,880.075 359.44798622704343,890.425 358.948242351222,894.0C358.4484984754006,897.575 358.03070326990326,901.7375 358.01980856122793,903.25L358.0,906.0L368.25,905.912394188171C373.8875,905.8642109916651 380.75,905.5267109916651 383.5,905.162394188171L388.5,904.5L389.14323284081115,892.0C389.4970109032573,885.125 391.5992419799386,868.25 393.81485745565845,854.5C396.0304729313783,840.75 398.33098332307617,824.775 398.9271027705426,819.0C399.52322221800904,813.225 400.6804381662086,799.2162839101238 401.4986937665417,787.8695198002753C402.3169493668747,776.5227556904267 404.0833540379606,760.7727556904267 405.4240374800658,752.8695198002753C406.764720922171,744.9662839101238 409.7172591301431,730.7009411772997 411.9852334977815,721.168758171777C414.25320786541994,711.6365751662544 416.37617749016306,700.0490751662544 416.7029437749884,695.418758171777L417.2970642928528,687.0L395.20754914080135,687.0C383.0583158071731,687.0 372.87567647023195,686.6078572976089 372.57946172537663,686.1285717724642C372.28324698052137,685.6492862473194 371.78300360853984,678.7867862473195 371.46780978763996,670.8785717724642C371.1526159667401,662.9703572976089 370.6810157801198,655.08009472579 370.4198093729283,653.3446549462C369.9668419526695,650.3351664408169 369.7034799469098,650.1700545088645 364.72244431628997,649.7727541747657C361.8500999423305,649.5436485300669 359.18165076540413,649.6169030388724 358.7925572564536,649.9355419721112C358.4034637475031,650.25418090535 356.69829010111056,657.0365362524954 355.0032824866924,665.0074427435454C353.30827487227424,672.9783492345955 351.4813481251943,680.5507402802534 350.94344527095916,681.8349784005633C350.06206793893904,683.9392586795121 349.54724325252016,684.1010641915376 345.73272004072044,683.472669999557C343.4047240183242,683.0891622586937 336.3420679257262,681.220459668153 330.0379287238361,679.3199975761332C323.73378952194594,677.4195354841135 316.3087895219459,674.8320677899924 313.5379287238361,673.5700693669753C310.7670679257262,672.3080709439582 307.42705116982773,670.9390230890984 306.1156692662838,670.5277408006203C303.85256604050994,669.8179748115951 303.7606331196029,669.4662459423055 304.3075112625477,663.6098558484543C304.62440626403674,660.2163014132412 306.67695799571993,649.3533115783881 308.86873733295477,639.4698784376698C311.06051667018954,629.5864452969514 313.60572002461583,619.25 314.52474478723536,616.5C315.44376954985484,613.75 316.60166664834395,611.0724999999971 317.09784945054446,610.5499999999936C317.6431458824926,609.9757814167793 317.99999999999994,610.9872709563391 318.0,613.1071117134757C318.0,615.0360231558943 317.11835027748066,621.3135231558972 316.04077839440146,627.0571117134821C314.96320651132226,632.800700271067 312.6787080761901,643.9680015648686 310.96411520521895,651.8733368108191C308.94297113995566,661.1920629567055 308.1889278639558,666.5889278639578 308.8199108946733,667.2199108946731C309.3551913948443,667.7551913948424 315.5771898299764,670.1236136857995 322.64657408385574,672.4830715412445C329.7159583377351,674.8425293966894 338.1231873270127,677.3133837319407 341.32930517113937,677.9738589529138C344.53542301526596,678.634334173887 347.42735795540665,678.905975377923 347.7558272603409,678.5775060729939C348.0842965652751,678.2490367680646 350.89613019085425,665.047224095079 354.00434642829464,649.2401445774703C357.11256266573497,633.4330650598616 359.9667011382906,619.2625 360.3468763673071,617.75C360.7270515963237,616.2375 361.67797299626307,615.0 362.4600350338391,615.0C363.2420970714152,615.0 364.0803478850653,615.3375 364.3228146197283,615.75C364.5652813543913,616.1625 363.50927405256766,622.8 361.9761317267869,630.5C360.4429894010062,638.2 359.31013927105795,644.6264740963969 359.4586869935687,644.7810535475487C359.60723471607935,644.9356329987005 362.0914895182782,645.3419358257585 364.9792532206771,645.6839487187887L370.22973267958423,646.3057903424799L369.6233680357666,641.40289517124C369.2898674816668,638.7063028270579 368.9006776287604,631.0459122907876 368.7585016959745,624.3798050906391L368.5,612.2596101812782L350.5,611.685360330039C339.79873373314535,611.3439602988273 329.687188169339,610.470704977444 325.5630963119024,609.531754463652C321.7477992834488,608.6631086553206 316.6718958985791,607.2888974312987 314.28331101219214,606.4779517436032C311.89472612580516,605.6670060559078 307.7679827459913,603.9026430072691 305.1127701681613,602.5571449688507C302.4575575903313,601.2116469304324 298.80665676589683,598.8667477330032 296.9996572249736,597.3462578634526C295.19265768405035,595.825767993902 292.6579037355749,592.3133413916272 291.36687067280604,589.540865413953C289.870305927625,586.3270129382081 289.0159971823492,582.6377332765841 289.009768915704,579.3618667545782C289.0043960120668,576.5358934695962 290.13000287575574,570.2358934695961 291.51111750167945,565.3618667545782C292.9306666052085,560.352202731034 297.6950347850721,549.0814097285225 302.47139112371974,539.4337750157824C307.1184269899182,530.0473512744628 313.6903159183647,518.4736835025022 317.07558874248974,513.7145133003144C320.46086156661477,508.95534309812655 324.7266872016039,504.17878136000564 326.55520126468775,503.09993166004574C328.3837153277716,502.0210819600859 333.58605783007573,499.5322497320465 338.1159623809191,497.56919337551386C342.6458669317624,495.6061370189812 346.9479181668552,493.99999999999994 347.67607623668073,494.0C348.40423430650634,494.0 349.0,493.2903846153841 349.0,492.42307692307566C349.00000000000006,491.5557692307673 350.3153846153852,489.5307692307673 351.92307692307816,487.92307692307566C353.53076923077106,486.31538461538406 355.64404428342397,485.0 356.6192437067512,484.99999999999994C358.0289979626316,484.9999999999999 357.73738583067313,485.67573457410583 355.1961667836731,488.29760724314826C352.20235335776755,491.386438804859 352.0,492.0512070727144 352.0,498.7976072431483C352.0,502.75892325941675 352.3933211553729,506.0 352.8740470119398,506.0C353.3547728685067,505.99999999999994 355.9422728685067,504.7989476602766 358.6240470119398,503.3309948006148C361.30582115537294,501.86304194095294 363.5914957806714,500.60904616028466 363.70332395704753,500.5443375102409C363.8151521334237,500.4796288601971 362.78111449785746,497.32587570333976 361.4054625446782,493.535997161669C359.3115694381069,487.7673864787076 359.0905952725218,486.1954972267641 360.04845824973023,483.88301143629246C360.6777578406881,482.36374782900606 360.8404798408091,480.53105332558675 360.41006269444347,479.81035698424955C359.9796455480779,479.0896606429123 358.3979150793287,476.925 356.8951060972231,475.0C355.39229711511746,473.075 353.4511127505627,469.05582444765673 352.58136306487916,466.0684987725705C351.7116133791956,463.0811730974843 351.0,459.4249230974843 351.0,457.9434987725705C351.0,455.75083708309757 350.44227807528824,455.13845561505764 348.000574896819,454.6501149793638C346.05791085554915,454.26158217110986 344.29762183641753,452.89633750787 343.0043129572574,450.7751149793638C341.82945573357864,448.848171114056 341.0059373825005,445.7318154396356 341.0037380604384,443.2045454545404C341.000885298554,439.926399152341 341.6061369535695,438.30295395551383 343.5593361202275,436.3497547888637C345.46384707721296,434.445243831886 346.8710629443929,433.90084617670925 349.0593361202275,434.22201648424067C351.86134830214417,434.6332645514888 352.0,434.47920726022386 352.0,430.95461537163743C352.0,427.44802556679156 351.80330422655203,427.22416352065295 348.21859170452933,426.65094486834954C345.77872878521106,426.26079505136295 343.3022298653231,424.8752984099776 341.23809464057865,422.74565132687616C339.4785958179147,420.93030924536566 337.7521627693155,418.01081384657726 337.4015767548026,416.257883774013C337.0509907402897,414.50495370144876 337.0530234120197,411.530897925218 337.4060938030914,409.6488709379447C337.7648868854499,407.7363393835537 339.85550511369064,404.1736148467569 342.14580682344456,401.5716947003695C344.3995785935671,399.0112747569765 347.9708424703316,396.0351989270962 350.08194877181006,394.9581928561911C352.2671207631314,393.8434012898087 355.7679738287851,393.03662930511337 358.2101619327036,393.08504521449873L362.5,393.17009042899747L357.5,394.3992673290994C354.75,395.0753146241555 351.5492148654046,396.1448481753289 350.3871441453436,396.77600855392916C349.2250734252826,397.40716893252943 346.86257342528256,399.5314272836973 345.1371441453436,401.4965826676356C343.41171486540463,403.4617380515739 342.0,405.5646205651852 342.0,406.1696549201052C342.0,406.7746892750252 342.9107729115645,406.111857252876 344.02393980347665,404.69669487088476C345.13710669538875,403.2815324888935 348.39960669538874,400.9855584027103 351.27393980347665,399.5945302349221C354.56195275871937,398.0033024736283 359.8773024526811,396.640700576681 365.6070978785402,395.9201927958419C373.3410327731862,394.94766937154174 375.5345203910935,395.01347232069656 380.1547565803478,396.3566114188885C383.1815710338657,397.23653025181477 387.3488038125392,399.45505144625673 389.5476587018077,401.3571365972325C393.4962657855312,404.77281761267557 393.5024564590128,404.77430062479993 396.09994825815596,402.9267759722186C397.5299198001417,401.9096764467533 400.6660253456912,400.63574429207824 403.0690716927103,400.09581562849627C406.50431864385126,399.3239668883734 408.1395470240227,399.44691586239406 410.71912343455426,400.67100501749536C412.52360554554946,401.5272878450268 414.0,402.6747541983261 414.0,403.2209302470493C414.00000000000006,403.805483449495 413.2801302275508,403.8841399618443 412.25,403.4121438552315C411.2875,402.97113529100847 407.575,402.5146482437686 404.0,402.3977281946984C397.69081167048085,402.191386765585 397.6516819474843,402.2050308261054 402.6670458948529,402.86251314815263C405.508921137022,403.23506492162267 408.74996492836254,404.3687338079641 409.86936543116514,405.3817773400225C411.0120617190402,406.4159032678211 412.4045014983257,409.6314990801514 413.0444358816074,412.7140464953425C413.67132412654803,415.73375099871004 413.90570107563315,419.689119471072 413.565273546241,421.50375421170236C413.22484601684886,423.3183889523327 411.88987671634646,426.7899763700989 410.5986751006801,429.2183929178494C409.3074734850137,431.6468094655999 407.9392282928374,434.6161141922545 407.5581302291772,435.8168478659707C407.0090143816757,437.5469587002626 407.2662573797245,438.0000000000001 408.7977536376385,438.0C409.86064457595245,437.9999999999999 411.9159690277031,438.93266106706363 413.3651413081956,440.0725801490305C415.3208506949763,441.6109413768726 415.99999999999994,443.0532658448501 416.0,445.6682880923972C416.0,447.606008379282 415.28228082384385,450.40641761068537 414.40506849743076,451.891419717738C413.5278561710176,453.3764218247906 411.36251029988927,455.58335325027565 409.59318878381214,456.7957117743714C407.82386726773495,458.0080702984671 405.6251598565877,459.0 404.70717231459594,459.0C403.7148853329366,458.99999999999994 402.767393143784,460.11508232290015 402.37048069402306,461.75C402.00328784469974,463.2625 400.6837682929313,466.8301859531597 399.4382150234265,469.6781910070215C398.1926617539217,472.5261960608833 395.39475867377257,476.80119606088334 393.2206526230951,479.1781910070215C391.0465465724176,481.55518595315965 388.5374280549232,484.93060913109355 387.6448336953298,486.67913140243C386.7522393357363,488.42765367376654 385.09802177032617,490.1515014280953 383.968794661085,490.50990418982724C382.83956755184374,490.8683069515592 380.1585339508293,490.8646819700009 378.01094221438615,490.5018486752533C375.863350477943,490.1390153805058 371.6198246434574,488.10041917084254 368.5808848044181,485.9716348760017C365.5419449653788,483.84285058116086 362.81207299581104,482.49505528580687 362.51450264982304,482.97653421965947C362.21693230383505,483.458013153512 362.64316334701954,485.82449906254965 363.4616827457885,488.23539179529854C364.2802021445575,490.64628452804743 366.3054720067416,495.2920956738662 367.9622824395309,498.5594165637847C369.61909287232027,501.8267374537031 370.9803654095669,505.2875 370.98733252230124,506.25C370.99429963503553,507.2125 371.4196755482493,508.0 371.9326123294429,508.0C372.4455491106366,508.0 373.12471976227755,507.18240332733717 373.4418804442007,506.18311850519365C373.7590411261238,505.1838336830502 377.5840189990331,500.6839033993397 381.94183127288795,496.1832734302815C386.2996435467428,491.6826434612232 390.1507973468525,487.1002401338861 390.49995082868725,486.0001549250878C390.849104310522,484.9000697162895 391.5063059274793,484.0 391.96039886637004,484.0C392.4144918052608,484.0 393.05916735351013,484.71180436070307 393.39301119581296,485.581787468229C393.72685503811584,486.45177057575495 394.0,487.6205243975304 394.0,488.1790181832856C394.0,488.7375119690408 391.0799253419468,492.2191334808628 387.5109452043263,495.9159548762235L381.0218904086526,502.6374483223339L386.6334175776785,507.48208884776284L392.24494474670433,512.3267293731918L394.0765301559178,509.9133646865959C395.0839021309852,508.5860141089682 397.3102446638298,504.63245553819047 399.0239580066835,501.1276789737566L402.13980044823563,494.75535794751323L399.71649261503023,492.1276789737566C398.38367330676726,490.6824555381905 397.01634136426566,488.7125 396.67797718724887,487.75C396.3396130102321,486.78749999999997 396.4829881315842,485.99999999999994 396.99658856803137,486.0C397.5101890044785,486.00000000000006 399.5210658461271,487.3966164876103 401.46520377169486,489.1035921946895C403.8171928109438,491.168665922492 405.0071445711752,493.09272063393826 405.0213514116896,494.85359219468944C405.03712652154917,496.80884341971426 406.1340324330119,498.2726963079924 409.22135535954465,500.4586197960531C411.5196142544357,502.08586068388223 416.7975061191754,506.1000601360294 420.95000394785507,509.3790630230468C425.1025017765348,512.6580659100641 430.4066180844226,517.152107926216 432.73692907649456,519.3658230589398C435.06724006856655,521.5795381916636 437.43412678095893,524.7853873049903 437.9966773262554,526.4899321996659C438.5592278715519,528.1944770943414 439.12010306466584,540.5940561699657 439.24306664428644,554.0445523677198C439.43706074068956,575.2647938742549 439.2256356225987,579.2937387630905 437.6448698980346,584.5C436.64289810797544,587.8 434.88190580311993,592.075 433.73155366502226,594.0C432.58120152692453,595.925 430.32964728183316,599.191973245178 428.7280997870414,601.25994054484C427.1265522922496,603.3279078445019 422.72465885949373,606.8565290845311 418.94611438091727,609.101321078238C413.69585925627126,612.2204402881739 410.7113365395279,613.3004684644646 406.28801675538915,613.6819871985238C401.76936606546,614.071728382749 398.6358707114377,613.5881316699565 392.0,611.4768976245564C387.325,609.9895239864243 382.2625,608.1371949213135 380.75,607.3606108131992C378.20833308980343,606.0556070905026 378.0,606.0960808140054 378.0,607.8948645879493C378.0,609.2498913872378 377.07664645940434,610.0438919258031 374.96031889902724,610.5087154317794C371.9272324100448,611.1748929754327 371.9217876045353,611.188624778277 372.45062273647375,616.8381706975985C372.74211445260437,619.9521768139193 373.43507571071945,631.275 373.9905366433961,642.0C374.54599757607286,652.725 375.27284468277827,666.3114926283856 375.6057524360748,672.192205840857L376.2110392602504,682.884411681714L393.8555196301252,682.404374251671C403.5599838335563,682.1403536651475 414.3710913843769,681.6742691484139 417.8802030763931,681.3686308811523L424.26040615278623,680.8129249406763L423.64859117103015,670.6564624703382C423.31209293106434,665.0704081116522 422.75839527521424,650.15 422.41815193580777,637.5C422.0484028476656,623.7529977128796 422.18174413865495,613.5102493457878 422.74959584057456,612.0397956691164C423.6294043390666,609.7615289367972 423.78361947256764,609.9464095138701 424.83493027568295,614.5397956691164C425.45932672796437,617.2679080511024 426.4293093886149,626.925 426.99044729935076,636.0C427.55158521008667,645.075 428.12079098576106,660.6 428.25534902307163,670.5L428.5,688.5L425.3876449131913,688.8030925403152L422.2752898263826,689.1061850806306L421.7184484660375,697.3030925403152C421.4121857178477,701.8113916431419 419.5794572863866,712.025 417.64571861834634,720.0C415.711979950306,727.975 413.43769233504264,737.9100748561754 412.59174613998334,742.0779441248342C411.745799944924,746.2458133934929 410.3882398935436,754.1208133934929 409.57494602580465,759.5779441248342C408.7616521580657,765.0350748561754 407.3967695333264,778.725 406.541873526384,790.0C405.6869775194416,801.275 404.51156166688264,814.9436614741913 403.9298382984752,820.3748032759806C403.34811493006777,825.80594507777 401.75060950607923,837.2809450777701 400.3798262451673,845.8748032759806C399.00904298425536,854.4686614741913 396.99640007345096,868.25 395.90728644337963,876.5C394.8181728133083,884.75 394.0049657744312,895.2260211040876 394.1001596903193,899.7800468979724C394.19535360620733,904.3340726918573 394.0992606414761,908.1831425981 393.88661976869423,908.3335355785116C393.6739788959124,908.4839285589234 392.3842364561451,909.0743097920011 391.0205254581002,909.64549387424L388.54105091620045,910.6840103874016L390.8889819466601,911.9405849409536C392.1803440134129,912.6317009454073 395.9961075572678,915.2413044720263 399.3684564885599,917.739703888996C402.74080541985194,920.2381033059656 406.5102647847769,923.4562424197019 407.7450328550598,924.8911241417431C409.0599421584324,926.4191352484113 409.9921236125164,928.8303450932477 409.9950328550598,930.7110448525805C409.99808214785037,932.6822810530581 409.1954369122943,934.6716542429195 407.9162202514303,935.8634258513189C406.7701413897169,936.9311607317059 403.8708723657869,938.2986905480446 401.4734001982524,938.9023809987384C399.075928030718,939.5060714494323 396.07612891757435,939.9617296534756 394.8071799468222,939.9149547855013zM466.8746410492148,927.0C465.29358847214667,927.0 464.0,926.5812317241433 464.0,926.0694038314296C464.0,925.5575759387157 468.47746374513514,911.2700759387158 473.9499194336336,894.3194038314296C479.4223751221321,877.3687317241432 487.0561678988103,853.6 490.91390338180736,841.5C494.7716388648044,829.4 502.93725211834374,803.75 509.0597106118948,784.5C515.1821691054458,765.25 524.3337551211981,736.45 529.3965684246775,720.5L538.6016835219131,691.5L518.7390422321737,691.2290976580026L498.8764009424343,690.9581953160052L499.18820047121716,687.7290976580026L499.5,684.5L546.5,684.5L593.5,684.5L593.7895140628885,675.7101522419598L594.0790281257771,666.9203044839196L537.2895140628885,667.0070718539866C502.00456405473784,667.0609829036879 479.23740867629994,666.7146826573279 477.16573349032166,666.0925579554214C475.33188690999856,665.5418532576737 471.8888911731386,663.9528514398244 469.514631852855,662.5614428046454C467.14037253257146,661.1700341694664 463.3445618271866,657.9262228957429 461.0794969519999,655.3529733074821C458.56723003969734,652.4988873744466 456.3751778906469,648.6585021568976 455.4584862687634,645.5051937530874C454.1554679179808,641.0229680866199 453.99193587715683,626.1943492279665 454.22788767929694,533.9180249068561L454.5,427.5L456.65268204109543,423.5C457.83665716369785,421.3 459.8616571636979,418.5154304870341 461.15268204109543,417.31206774896464C462.4437069184929,416.1087050108952 465.525,414.2060879111163 468.0,413.0840297494559C472.4545465727131,411.06453062282594 473.81068390240324,411.0437021680508 602.2608984155703,411.0219620004912C730.1122420916442,411.00032319167514 732.0846310570248,411.0295355725333 736.2916014266032,413.0070450706998C738.6399939541075,414.11091985958467 742.2064861654163,416.3701041884493 744.2171396739561,418.02745469039894C746.227793182496,419.68480519234856 749.02314969771,423.39413491053364 750.4290430410986,426.27040961969914L752.9852127563503,431.5L753.0118315330164,527.6503885799358C753.035079063868,611.6234108170869 753.2259892060614,623.8727425867929 754.5192251548413,624.3690037835958C755.8206706944715,624.868415295996 756.0,613.1570675816615 756.0,527.6649595272618L756.0,430.3926886472036L753.4161020911723,425.20748115011264C751.9949582413171,422.3556170267126 748.8338809886956,418.26327922983916 746.3914859742356,416.1133971570605C743.9490909597756,413.9635150842818 740.274345018748,411.371003512352 738.2253838830633,410.35226033054965C734.6649689599902,408.58202254316694 728.7446752602576,408.48843682112096 604.5313439055644,408.238876451452C492.81526981883815,408.01442465998167 473.86120994438903,408.183385094704 469.5677706217872,409.4419698343344C466.82056616764925,410.2472891466211 464.4021047838762,410.7354381172055 464.1934119911805,410.5267453245219C463.9847191984848,410.31805253183836 465.72946778319636,408.7597248268026 468.0706310683173,407.06379486888693C470.41179435343827,405.36786491097126 474.5853265320491,403.30972153723343 477.3451470207858,402.49014292724735C481.5289719185304,401.2476804525636 491.64073735170246,400.9999999999999 538.1815012274262,400.99999999999994L594.0,401.0L594.0,383.0L594.0,365.0L597.5,365.0L601.0,365.0L601.0,382.97363321952747L601.0,400.94726643905494L670.25,401.22363321952747L739.5,401.5L745.2273914608876,404.22739146088736C748.3774567643758,405.7274567643754 752.810874087125,408.8108740871243 755.0794299558856,411.07942995588496C757.3479858246465,413.34798582464566 760.3956596672471,417.74565966724634 761.8520384949982,420.8520384949976L764.5,426.5L764.7633007638269,533.1769379160585L765.0266015276538,639.853875832117L762.8506731629013,645.6695655169831C761.3158226865687,649.7718210083007 759.0264059835336,653.133594016465 755.0800000000024,657.0799999999977C751.1461989614066,661.0138010385948 747.7692720508372,663.3167763737742 743.7051149938177,664.837372399073C737.9868086999769,666.9768649678548 737.1925870894886,667.0 669.4624873928897,667.0L601.0,667.0L601.0,675.3524002347858L601.0,683.7048004695716L610.25,684.1868149195956C615.3375,684.4519228671087 635.1370939759544,684.6308427614551 654.2490977243431,684.5844146848098L688.9981954486863,684.5L688.9990977243431,687.7284072053943L689.0,690.9568144107886L670.0888030764856,691.2284072053943L651.1776061529712,691.5L660.980641464856,726.0C666.3723108863926,744.975 678.9028974718904,789.075 688.8263894326287,824.0C698.7498813933672,858.925 709.3735541186005,895.9796360931932 712.4345510442583,906.3436357626517C715.4955479699163,916.7076354321102 718.0,925.6197914680115 718.0,926.1484269535434C718.0,926.6770624390754 715.9334297246397,926.9724263458821 713.4076216103106,926.8047911908917L708.815243220621,926.5L702.9828931229642,906.0C699.775100569253,894.725 690.1836465847541,860.975 681.6685509351888,831.0C673.1534552856235,801.025 661.8216597961758,760.975 656.4867831808605,742.0C651.1519065655451,723.025 645.6568949920339,703.7875 644.2756463508356,699.25L641.7642851850205,691.0L621.3821425925103,691.0L601.0,691.0L601.0,809.0L601.0,927.0L597.5,927.0L594.0,927.0L594.0,808.9822214196727L594.0,690.9644428393452L569.7877192854887,691.2322214196727L545.5754385709774,691.5L541.2310901464984,705.0C538.841698513035,712.425 533.3572707997921,729.525 529.0434730059585,743.0C524.729675212125,756.475 515.9501128708592,783.925 509.5333344698123,804.0C503.11655606876536,824.075 492.90394329796226,856.025 486.83863942358323,875.0C480.77333554920426,893.975 474.44696947516235,913.4375 472.78004814793456,918.25C469.91627313345845,926.5178870514465 469.5908933358844,927.0 466.8746410492148,927.0zM208.74129201087214,910.0C207.2985000987049,910.0 205.81323037568512,909.5068173941675 205.44069262638376,908.9040386537055C205.0681548770824,908.3012599132435 205.38697573359215,907.1844528378364 206.14918341862767,906.4222451528009C206.91139110366322,905.6600374677654 209.95105744238072,904.5782200735979 212.90399750466656,904.0182064990954C215.8569375669524,903.4581929245929 221.1100014155052,903.0 224.57747272367277,903.0C228.25540281767886,903.0 231.17851118700304,903.4798201735681 231.59375816404267,904.1517038961438C231.98524384807857,904.785141039023 231.5551372556209,905.8521232196092 230.63796573635898,906.5227754085579C229.72079421709702,907.1934275975066 225.00906915323284,908.2501608442418 220.16746559443857,908.8710715124141C215.32586203564426,909.4919821805863 210.1840839230394,910.0 208.74129201087214,910.0zM248.58348888945534,904.0C247.8044077786558,904.0 244.03975268615602,900.6061475347435 240.21758868390032,896.4581056327632C236.17042210119735,892.0658774187362 231.14029665828446,885.070697494784 228.17292334508693,879.7081056327632C225.3705214109953,874.6436475347434 222.37645964596118,868.5062168575339 221.51945275612223,866.0693707945197C220.55626369889507,863.3306023086753 220.3172068860752,861.2827931139248 220.89341298561646,860.7065870143836C221.46961908515766,860.1303809148425 224.1866771549456,864.4952310651455 228.00881953017972,872.1372162198638C231.40960811362876,878.9367472989387 235.92133285998167,886.75 238.03487452207509,889.5C240.14841618416847,892.25 243.70520009664887,896.2788264944686 245.93883877203154,898.4529477654858C248.1724774474142,900.6270690365028 250.0,902.7645690365028 250.0,903.2029477654858C250.0,903.6413264944686 249.3625700002549,904.0 248.58348888945534,904.0zM216.62755528455784,884.9583349700698C216.00739987805102,884.9354192036083 211.0,883.3739018015467 205.5,881.488296298822C200.0,879.6026907960971 195.3875,878.0464400595657 195.25,878.029961328752C195.1125,878.0134825979385 195.0,877.0858768416475 195.0,875.9686152036613C195.0,874.851353565675 195.61486128748766,873.7012859930912 196.36635841663926,873.4129094868085C197.11785554579086,873.1245329805257 201.34682177277764,874.0830630198313 205.7640611432766,875.542976240821C210.18130051377554,877.0028894618107 215.23170583422373,879.0708303253612 216.98718407760595,880.1384003820444C219.61022581058342,881.7335672957408 219.96301192818783,882.3396416127852 218.96703663552643,883.5397184243707C218.3004772990005,884.3428732909667 217.24771069106464,884.9812507365314 216.62755528455784,884.9583349700698zM244.00723877119964,867.0C243.57567743622351,867.0 242.94405390830286,865.5153187031611 242.60363093137596,863.700708229247C242.18875192822503,861.489213014321 242.95266128129356,856.9557544171724 244.92057138194036,849.950708229247C246.53531160667774,844.2028187031611 248.32762071104594,838.2625 248.9034805027586,836.75C249.59782976751185,834.9262865231209 250.6753529147584,834.0 252.1024784164327,834.0C254.07411433218078,834.0 254.21204750250527,834.3980682354606 253.7483835670485,838.75C253.47004233907913,841.3625 251.34096571287955,848.7875 249.01710217549385,855.25C246.69323863810814,861.7125 244.43880010617576,867.0 244.00723877119964,867.0zM215.46779608793094,846.0C214.69921037390571,846.0 213.6371504459063,845.1905264982374 213.10766291459888,844.2011699960833C212.57817538329147,843.2118134939292 210.72067007247125,836.8570575420011 208.9798733349984,830.0794901029101C206.084668319766,818.8073830163477 205.95058641740422,817.6208421540243 207.40739417888753,816.164034392541C208.80431174233405,814.7671168290946 209.17110068266607,814.7513497523983 210.39250022694483,816.0357142857142C211.1583753517645,816.8410714285715 213.2069638175414,823.0337232124895 214.94491903978246,829.7971626944209C216.6828742620235,836.5606021763524 217.82592470814762,842.9731021763524 217.48503114228055,844.0471626944209C217.14413757641347,845.1212232124894 216.23638180195616,846.0 215.46779608793094,846.0zM369.5,695.8239305279983C366.2,695.836740346283 359.7591507956363,695.0432471533271 355.1870017680806,694.0606123214295C350.61485274052495,693.0779774895319 346.36235274052495,691.762352740525 345.73700176808063,691.1370017680806C344.8876660773065,690.2876660773064 346.41650941623175,690.0 351.7797635554721,690.0C355.9989767715752,690.0 360.59236545752634,690.6533323744799 362.9193966989975,691.5844256757007C365.61038615937116,692.6611461835981 369.14245566069764,693.061689717755 373.9421358026269,692.8344256757007C378.2219903661766,692.6317752867675 380.87629722154986,692.8831658871385 380.6783637054452,693.4724168609689C380.49871081842844,694.0072461345018 379.2600846218328,694.7498901230939 377.9258610463437,695.1227368356183C376.59163747085466,695.4955835481426 372.8,695.8111207097136 369.5,695.8239305279983zM350.86434367572247,645.787608540275C349.977364568585,645.9584251086414 348.95528000153496,645.3258448430495 348.59304463783343,644.3818746167372C348.2308092741319,643.4379043904248 348.3689391871069,642.2310608128931 348.9,641.7C349.4310608128931,641.1689391871068 350.60407091924736,641.0178261530592 351.5066891252317,641.3641932576718C352.4093073312159,641.7105603622845 352.99688759680794,642.7776449293345 352.8124230487695,643.7354922955608C352.6279585007311,644.6933396617871 351.7513227828599,645.6167919719086 350.86434367572247,645.787608540275zM450.7460738995791,616.0C450.5754563267823,630.2138611543854 450.2000171027454,635.8867181614035 449.5217127644245,634.5C448.9041002650892,633.2373595874999 448.53542047133925,595.2633408312524 448.5217127644245,531.5C448.5028076286557,443.5600824787592 448.69396162097166,430.1511866012822 450.0,427.8024555298329C451.34115969464625,425.3905635845636 451.47311086711454,434.1267803790207 451.2460738995791,510.3024555298329C451.1064145443476,557.1611049884248 450.8814145443476,604.725 450.7460738995791,616.0zM354.01545591125785,630.0C353.5916443470524,630.0 352.7010488553192,629.3447121944249 352.03635481851734,628.5438048765C351.37166078171543,627.7428975585749 351.1181183072352,626.6178975585749 351.4729270974501,626.0438048765C351.82773588766497,625.4697121944249 352.73991869381246,625.0 353.5,625.0C354.26008130618754,625.0 355.1349836082746,625.4093910717374 355.44422733797114,625.9097579371943C355.7534710676677,626.4101248026511 355.7318837532535,627.5351248026511 355.39625552816176,628.4097579371943C355.06062730307,629.2843910717374 354.4392674754633,630.0 354.01545591125785,630.0zM661.0,629.9463382602382C662.925,629.9651064098327 666.7683894362799,628.9241623899624 669.5408654139553,627.6331293271928C672.3133413916308,626.3420962644234 675.8175007986911,623.8171673192286 677.3278863185337,622.0221761156488C678.8382718383764,620.2271849120691 680.7323824020965,617.1829249231629 681.5370209045784,615.2571539180794C682.3416594070602,613.3313829129961 683.0,609.8663996132424 683.0,607.5571910297379C683.0,604.9393569000849 681.9646455064234,601.3462927660704 680.25,598.0136709795122C678.5211932356742,594.6535250683265 675.9003313986244,591.5342841024913 673.1922074098165,589.6137792093872C669.6177605979982,587.0789090850475 667.745153365143,586.5033105981582 662.1922074098165,586.2326199119689C656.215341127227,585.941264287709 654.9389566500737,586.2341547379555 650.2512895306893,588.9726883447771C647.2648496720086,590.717365539096 643.8339610582121,593.8048843198135 642.2912599472887,596.1360630853578C640.2537184366983,599.2149961786 639.4797201098977,601.8070793542515 639.1766469847499,606.5667521182868C638.8567593558964,611.5904916328453 639.2208249499711,613.8247147804288 640.9370122816613,617.369884736625C642.1270248116093,619.828122593744 644.7249282129404,623.0782891599774 646.7101309512859,624.5924771060327C648.6953336896315,626.1066650520879 651.9351826185516,627.9230464557909 653.9097952377753,628.6288802253724C655.8844078569989,629.334713994954 659.075,629.9275701106436 661.0,629.9463382602382zM502.5,613.0L521.0,613.0L521.0,595.0L521.0,577.0L502.5,577.0L484.0,577.0L484.0,595.0L484.0,613.0L502.5,613.0zM564.9387271004384,613.0L581.8774542008769,613.0L582.4918859229741,608.75C582.8298233701277,606.4125 582.9698961749303,598.425 582.8031588225357,591.0L582.5,577.5L565.25,577.2263860727294L548.0,576.9527721454589L548.0,594.9763860727294L548.0,613.0L564.9387271004384,613.0zM403.0718611680918,608.9450194424194C405.0363848105423,608.9752587490887 408.79411601799046,608.2672872315143 411.42237496242115,607.3717494033651C414.47993478432255,606.3299340646809 418.46139260759276,603.6290382304579 422.4769815678816,599.8726517725536C426.4650220849733,596.1420355316673 429.5161863779094,592.2275803123372 430.8466017490914,589.1349463405656C431.99811816018416,586.4581742217694 433.4530061428094,580.963410669126 434.0796861549252,576.9243606680247C434.7703856221675,572.4726953364518 435.0702335467656,561.3451865680299 434.84108111306307,548.6686070747035L434.46305786735405,527.7565807561114L428.738545832791,522.4282208303196C425.59006421378126,519.497622871134 418.7464381935417,513.7023922010089 413.5304880100364,509.5499304522638C408.314537826531,505.3974687035187 403.8499787189162,502.0 403.6092455486702,502.0C403.3685123784241,502.0 401.82007730771255,504.1375 400.1682787248668,506.75C398.516480142021,509.3625 396.06080804218556,512.8308491161822 394.7112296141213,514.457442480405C392.4585170992715,517.1725475472606 392.08951641717874,517.2954598685424 390.20801124376635,515.957442480405C389.08081956813527,515.1558491161823 385.9299990195479,512.5934084704451 383.20618780246105,510.2631299343224L378.25380377139396,506.02625986864484L375.49090094936764,510.0131299343224C373.9713043972531,512.2059084704451 372.16039329697236,514.0 371.4666540598548,514.0C370.697643210607,514.0 369.7970385741312,516.4395267661769 369.15932992797207,520.25C368.5840408925542,523.6875 367.83836062739334,528.75 367.50226267205915,531.5C367.16616471672495,534.25 366.20996624905973,539.7625 365.37737718835865,543.75C364.5447881276575,547.7375 363.3782424385052,551.0 362.7850534346867,551.0C362.0506280439539,551.0 361.91361357028103,548.5273874900698 362.3556039488897,543.25C362.7125957355198,538.9875 363.6967836585747,531.225 364.54268822234496,526.0C365.38859278611517,520.775 366.513969954941,515.4631872990799 367.0435263752911,514.1959717757331C367.57308279564126,512.9287562523863 367.7224123788426,510.1162562523863 367.3753698935162,507.9459717757331C367.0283274081899,505.7756872990799 366.2880254459717,504.0 365.7302544219202,504.0C365.1724833978687,504.0 361.81443834489994,505.8325811081281 358.26793208198956,508.07240246250694C354.72142581907923,510.31222381688576 351.249282955819,511.92590044877596 350.55205905252245,511.658350533374C349.8548351492259,511.3908006179721 348.9953939019688,509.726969509844 348.6421896141734,507.9609480708671C348.28898532637805,506.1949266318902 348.0,503.48280764746875 348.0,501.93401699437493C348.0,500.38522634128117 347.6446135199554,498.8983930649401 347.21025226656747,498.6299430469504C346.77589101317955,498.3614930289607 341.8637392028454,500.32889268486446 336.2943593547137,503.00194228229213C326.96529317602483,507.47947070974993 325.8612486679449,508.32007346925013 322.26850372934814,513.6810162297166C320.12366298352873,516.8814573033725 316.3369622694002,523.1 313.853613253507,527.5C311.37026423761375,531.9 307.5145789550063,539.1 305.2854237366015,543.5C303.05626851819676,547.9 299.7913479177719,555.7163344277521 298.03004462454624,560.8696320616716C296.09483639787163,566.531748299131 294.64233187651274,573.0607145057919 294.3592759540069,577.3696320616716C293.95443437854163,583.5324742181939 294.20654488949845,585.0427634535409 296.2172530105835,588.5C297.4967598672716,590.7 300.708252194724,593.9532046454899 303.35390262714446,595.7293436566442C305.9995530595649,597.5054826677987 312.51473650899305,600.3714521485517 317.8320880703181,602.0981647249845C326.710719025177,604.9813375892289 329.0103259256423,605.294006860122 346.0,605.9280542960457C356.175,606.3077809836967 364.55993293705905,606.5918115029435 364.6331843045756,606.5592332277056C364.7064356720922,606.5266549524675 365.0736792850591,605.064869072263 365.44928122227975,603.3108201605844C366.1234549892634,600.162450450326 366.03857388445806,600.0762056294232 358.8160969177041,596.5710658457047C354.79224361296684,594.6182498841993 349.475,591.9012017512673 347.0,590.5331811058559C344.525,589.1651604604446 341.9375,587.5678079420786 341.25,586.9835088428206C340.5625,586.3992097435624 340.0,584.6464025040054 340.0,583.0883816438051C340.0,580.5894092691875 339.5581267743653,580.1841797776372 336.25,579.6493622482958C334.1875,579.315922440966 330.7732723761326,577.8655299275994 328.6628275025168,576.4262677741476L324.8256550050336,573.8094274951445L319.9128275025168,576.8634089127133C316.71929403178297,578.8486184221066 315.0,579.4554347315075 315.0,578.5973670366236C315.0,577.7285674484192 314.14542472920385,577.4407061569802 312.5,577.755249024097C311.0690715726211,578.0287883250436 310.0,577.7666555139565 310.0,577.1422572988461C310.0,576.5422639453355 311.35,575.3532481608547 313.0,574.5C314.65,573.6467518391453 316.0,572.7634875282148 316.0,572.5371904201545C316.0,572.3108933120941 314.48671865162413,572.3713128891629 312.63715255916475,572.671456146974C310.7875864667053,572.9715994047851 308.26427478527273,572.6766193313439 307.0297932670923,572.0159448726602C305.43222079124246,571.1609500305779 305.094427590174,570.5055724098256 305.85784289289916,569.7421571071009C306.6212581956243,568.9787418043762 306.4873740168747,568.3456439265691 305.39334090503235,567.5456673836538C304.3589865957937,566.7893290466351 303.8264347954883,564.6357171591412 303.76503176010044,560.960869568625C303.6982534500318,556.9643226503136 304.27224193650846,554.5081116375011 305.90559569788434,551.8009702997606C307.8108713980366,548.6431420756223 308.82035642674106,547.9995257555897 312.8052721917928,547.4019507322053C315.3725989736497,547.0169563051815 319.6114422487364,547.1399872276506 322.22492391420775,547.6753527821367C326.24335014129196,548.4985179160831 327.04083122800847,548.4057666248577 327.3921892107855,547.074372349692C327.62070345843193,546.2084675573614 329.0468742244109,541.3375 330.5614575796276,536.25C332.07604093484434,531.1625 333.7084384194602,527.0 334.1890075454405,527.0C334.6695766714209,527.0 335.31871302091815,527.6669778825863 335.63153276654555,528.4821730724138C335.94435251217294,529.2973682622413 334.8695463799966,534.475416604333 333.24307469504265,539.9889471659508L330.28585344967183,550.013548187074L333.8929267248359,552.1606637024647C335.8768170261762,553.3415772359295 339.36116121087264,556.0818372712789 341.6359138019392,558.2501304476855C344.9486508319126,561.407829937964 346.1428393155988,562.0040338773439 347.6359138019392,561.2456572720919C348.6756666428067,560.7175361120477 352.1533108545651,560.6061706180737 355.5,560.9938236195462C358.8,561.3760685336293 365.325,562.8442078734433 370.0,564.2563554857995C374.675,565.6685030981557 379.79512901694335,567.3242924963711 381.3780644820963,567.9358874818336C384.06686658923996,568.9747535138553 384.59294896475325,568.7314665410848 389.3780644820963,564.2362847717741C392.1951290169433,561.589908295779 396.075,558.4703018345917 398.0,557.3038259691358C399.925,556.1373501036799 403.4125,554.6744497554988 405.75,554.0529363065114C409.7664536172175,552.985009059309 410.0031668716315,552.7189595934337 410.0576296848337,549.2114559269033C410.08932601149235,547.1701551671065 410.43367214615597,543.7048443242958 410.8228433174197,541.5107651651017C411.31149166971176,538.7558510165097 412.10662758858376,537.4105642869846 413.39266487289865,537.1628961356942C415.0996192649415,536.834166756095 415.19640167817624,537.2918881732064 414.5533302345638,542.6521309705925C414.16746549922993,545.8684589367666 413.61132882764565,549.5125 413.3174709643765,550.75C412.90505979515314,552.4867540083364 413.2205330295924,553.0 414.7004623350206,553.0C415.75496545214395,553.0 417.4852751736954,553.6343566732877 418.54559504957933,554.4096814961949C420.43739207647775,555.7929972561053 420.4380680535462,555.8584589063046 418.5817371225721,557.9096814961949C416.81694878325726,559.8597506608983 416.8010658063255,560.1226988471427 418.34501243788793,561.828740671584C419.25525559704954,562.8345480409553 420.0,564.172991975151 420.0,564.8030605253525C420.0,565.4331290755539 418.7625,566.5809986341237 417.25,567.3538817666188C415.7375,568.1267648991137 413.0426604128867,569.0729424177371 411.2614675841926,569.4564984746704C409.48027475549844,569.8400545316038 407.76621710802976,570.5692516708211 407.4524505898176,571.07693656182C407.13868407160544,571.5846214528191 408.2218218925783,572.0 409.85942352531276,572.0C412.16132136256016,572.0 413.30916910499843,572.764178142659 414.9184405196877,575.3680339887499C416.0632982338595,577.2204526825624 417.0,579.2454526825624 417.0,579.8680339887499C417.0,580.4906152949375 416.3625,581.0 415.58333333333337,581.0C414.8041666666667,581.0 413.97791942082694,580.6625 413.7472283425784,580.25C413.5165372643298,579.8375 413.53911959888217,580.175 413.7974113082502,581.0C414.05570301761827,581.825 414.2310857549058,583.3383645085522 414.1871507244447,584.3630322412271C414.1432156939836,585.3876999739019 413.79652621657414,586.5126999739019 413.4167296635348,586.8630322412271C413.03693311049545,587.2133645085522 412.5537199327883,587.05 412.3429226019633,586.5C412.1321252711383,585.95 410.5894503679995,583.316782045996 408.9147561505437,580.6484045466577C407.24006193308793,577.9800270473194 405.64274703596976,576.0239196306969 405.3651674902811,576.3014991763855C405.08758794459254,576.5790787220741 405.79186999058845,578.6318695457948 406.9302387036055,580.8632565624314C408.06860741662246,583.094643579068 409.0,585.3882509956906 409.0,585.9601619327036C409.0,586.5320728697166 408.33258064283035,587.0 407.5168458729564,587.0C406.70111110308244,587.0 404.93621489850983,584.8342336845567 403.5948543072396,582.1871859656815C402.25349371596934,579.5401382468064 400.5584130731389,576.9014702993607 399.8280084342832,576.3234794158022C399.09760379542746,575.7454885322438 395.9502422537551,574.9867596887092 392.8338716750114,574.6374153190586C389.71750109626765,574.2880709494082 381.84250109626765,572.4668923535448 375.3338716750114,570.5903517726956C368.8252422537551,568.7138111918464 362.94502857495985,567.0258063508244 362.2667301665774,566.8392299037577C361.490846102499,566.6258110158133 359.57240081242736,570.6923811251963 357.0939397959682,577.8041058958369L353.1544192587815,589.1082117916737L355.3272096293907,589.9479677467145C356.52224433322584,590.409833521987 363.35,593.5867081676537 370.5,597.0076891815294C377.65,600.4286701954051 387.1,604.5016911115988 391.5,606.058846773071C395.9,607.6160024345431 401.1073375256413,608.91478013575 403.0718611680918,608.9450194424194zM373.5,606.0C374.325,606.0 375.0,605.8231449618829 375.0,605.6069888041843C375.0,605.3908326464857 374.325,604.9549558048382 373.5,604.638373600523C372.675,604.3217913962079 372.0,604.498646434325 372.0,605.0313847963387C372.0,605.5641231583525 372.675,606.0 373.5,606.0zM560.8466088382069,605.0C560.4458926710055,605.0 559.8148141775076,604.5093800393477 559.4442121859893,603.9097334207727C559.0736101944709,603.3100868021976 560.5095525470023,601.022331755293 562.6351951916143,598.8258333165401L566.5,594.8321997915349L562.75,591.5601228099263C560.6875,589.7604804700417 559.0,587.7732355169462 559.0,587.1440229141589C559.0,586.5148103113715 559.6314637860053,586.0 560.4032528577895,586.0C561.1750419295737,586.0 563.9875419295737,587.9903123303887 566.6532528577895,590.4229162897527L571.5,594.8458325795053L566.5375918438319,599.9229162897527C563.8082673579395,602.7153123303887 561.2473250054082,605.0 560.8466088382069,605.0zM618.6870912047659,604.0C619.4091910421447,604.0 620.0,603.7454163456598 620.0,603.4342585459107C620.0,603.1231007461615 619.5863941887528,602.0956875642294 619.0808759750064,601.151118141617C618.3419988263703,599.7705135606344 618.5871328771842,599.4402182646528 620.3308759750064,599.4668595957064C621.5238941887528,599.4850868180679 622.725,599.05 623.0,598.5C623.275,597.95 622.4868047346012,597.3561109609835 621.2484549657803,597.1802465799635C619.4096369584976,596.9191066348515 619.108719427213,596.4150086457698 619.6068629956549,594.4302465799635C619.9423371809067,593.0936109609836 619.8305324463057,592.0121053605145 619.3584080298747,592.0269008011434C618.8862836134435,592.0416962417722 616.925,593.3606313470323 615.0,594.9578677017212L611.5,597.8619338011557L614.4370912047659,600.9309669005779C616.0524913673872,602.61893510526 617.9649913673873,604.0 618.6870912047659,604.0zM536.2909453906705,602.0C536.8092199261588,602.0 536.997907440939,601.1 536.7102509790709,600.0C536.2758353653853,598.3387921413241 536.6795686472695,598.0 539.0936196151099,598.0C541.0104021794566,598.0 542.0,597.4892627480793 542.0,596.5C542.0,595.6443083513275 541.1007089316545,595.0 539.9063803848901,595.0C538.6537646860638,595.0 537.6026677204642,594.1966029452399 537.2897490209291,593.0C537.002092559061,591.9 536.5107244354758,591.0 536.1978198574066,591.0C535.8849152793373,591.0 534.5873993931198,591.9784413120193 533.3144512213676,593.1743140267095C532.0415030496154,594.3701867413997 531.0,595.8036836917844 531.0,596.3598628053419C531.0,596.9160419188995 531.9784413120193,598.4126006068802 533.1743140267095,599.6855487786324C534.3701867413997,600.9584969503846 535.7726708551822,602.0 536.2909453906705,602.0zM503.5,601.0C495.72222222222223,601.0 494.0,600.7280701754386 494.0,599.5C494.0,598.2719298245614 495.72222222222223,598.0 503.5,598.0C511.27777777777777,598.0 513.0,598.2719298245614 513.0,599.5C513.0,600.7280701754386 511.27777777777777,601.0 503.5,601.0zM502.25,591.984687225483C495.7650299651502,591.9967239386822 494.0,591.6948046451286 494.0,590.5734736931363C494.0,589.4737067640759 495.97074591578706,589.0728526694796 502.60364257000003,588.8234736931363C507.33564598350006,588.6455631619114 511.72314598350005,588.8375 512.35364257,589.25C513.1739910510909,589.7867098818543 513.0734197637087,590.2800320728797 512.0,590.984687225483C511.175,591.5262651994985 506.7875,591.9762651994986 502.25,591.984687225483zM349.7231203047985,585.6054897039613C349.8458364724377,585.4853713648375 351.5473360489346,580.9639964373926 353.5042304747916,575.5579898651946C355.46112490064866,570.1519832929966 356.90290826348934,565.569574930156 356.70819350332647,565.3748601699931C356.5134787431636,565.1801454098303 354.9955682492155,564.7491136498431 353.3350590723307,564.4170118144662C350.3167562922817,563.8133512584564 350.31510964513063,563.8156010563928 347.1579757389973,572.8567005037739C345.4210890825488,577.8306311182702 344.0,582.1332915340292 344.0,582.4181680943497C344.0,582.7030446546701 345.2375,583.5858717484234 346.75,584.3800060804683C348.2625,585.1741404125133 349.60040413715933,585.7256080430851 349.7231203047985,585.6054897039613zM687.1099586654632,584.6291795844143C688.4244813994584,584.2566500606767 690.7375,583.6814362126546 692.25,583.3509265888094C693.7625,583.0204169649643 695.0,582.35625 695.0,581.875C695.0,581.39375 694.5295454545454,581.0 693.9545454545455,581.0C693.3795454545455,581.0 691.7493181818181,579.8402272727272 690.3318181818181,578.4227272727273C688.9143181818182,577.0052272727273 687.3947898859523,576.2177272727273 686.9550886354493,576.6727272727273C686.5153873849465,577.1277272727273 685.8325960571323,579.2564638480221 685.4377745736399,581.4032529956048C684.7457194957325,585.1662101620669 684.8058233255139,585.2821606387693 687.1099586654632,584.6291795844143zM340.72206510994783,576.8976385193907C341.3942009204191,576.9539373337258 342.6775341760407,574.4771790173585 343.5739167891069,571.3937311496857L345.2037033583182,565.7874622993712L340.3518516791591,561.4174634368878C337.6833332556216,559.0139640625218 333.19969994650046,555.9280273949238 330.38822210333444,554.5598263977809C327.57674426016837,553.1916254006378 323.39612639840914,551.649708861747 321.097960188314,551.1333452002455C318.7997939782188,550.616981538744 315.7000940317183,550.5620604543244 314.20973808497956,551.0112983459799C311.56582395140003,551.8082532034327 311.5850207004054,551.832030501478 315.0,551.9901251818164C316.925,552.0792420498711 320.0478340402113,552.7114229051641 321.93963120046953,553.3949715269118C323.8314283607277,554.0785201486597 325.55554709118496,555.1666412735549 325.77100615704114,555.8130184711233C326.0598849037835,556.6796547113504 324.21157379825104,556.8233149544775 318.73203012978604,556.3601238823358C313.9957390407352,555.9597606622856 310.61212006796336,556.1321679752082 309.40065517321443,556.8355903267202C307.87636877836934,557.7206486762336 308.836638696906,557.9452041728351 314.25,557.9695913140993C317.9625,557.9863160913446 321.0,558.4018550381171 321.0,558.8930111958157C321.0,559.3841673535143 320.2881956392939,560.0591673535143 319.4182125317642,560.3930111958157C318.5482294242345,560.726855038117 316.6357294242345,561.0202967651211 315.1682125317642,561.0451039224913C313.7006956392939,561.0699110798616 311.15,561.6717829531883 309.5,562.3825969743284C306.8117941280133,563.5406663231281 307.3574338520365,563.6265563144738 314.75,563.2090075795527C321.7721375575302,562.8123814831604 323.0,562.9762801411781 323.0,564.310241628154C323.0,565.4150089825217 321.59839384559643,566.0839593178933 318.25,566.5772936691515C315.6375,566.9622053767025 312.6,567.6451132963782 311.5,568.0948668239863C310.34162400377767,568.5684883608932 311.9222204003319,568.6623460306954 315.25606301497993,568.3179062558013C320.6582217233069,567.7597760305582 321.3903427554461,567.9566606554229 327.1636174480995,571.5201286817428C330.54693772807633,573.6084328561205 334.70670937133536,575.6496474896087 336.40755443311957,576.0561612006054C338.1083994949038,576.4626749116022 340.0499292994765,576.8413397050556 340.72206510994783,576.8976385193907zM397.55572034201043,570.9297147373896C400.3907118797085,570.9788448814633 402.6313610960102,570.2475265172578 405.0,568.5C406.8637076237885,567.125 409.3136334698838,565.9931092514673 410.44427965798957,565.984687225483C411.5749258460953,565.9762651994986 413.175,565.5331559480312 414.0,565.0C415.1665799149447,564.2460981569618 414.8815905129684,564.0272218246462 412.71788136910357,564.015312774517C411.18771612211054,564.0068907485327 408.3061230571103,564.6809069349998 406.3143412246586,565.5131265222217C404.3225593922069,566.3453461094437 402.49195179646966,566.825285129803 402.24632434524244,566.5796576785758C402.0006968940152,566.3340302273486 402.10163615023157,565.6445662488146 402.47063380350096,565.0475155040558C402.8396314567703,564.450464759297 405.3278462451949,562.8540827824719 408.0,561.5C410.67215375480515,560.1459172175281 413.1418652110578,558.5794742610623 413.48824768056147,558.0190156522983C413.84858204936825,557.4359823962542 413.09938332904676,557.0 411.73715582628313,557.0C410.42767283692643,557.0 407.1386151894577,557.7319793573214 404.4281388319082,558.6266207940475C401.36159331111907,559.6387892576696 397.6987679332926,561.9923384927429 394.7316536376664,564.8570994431141C390.6739657047802,568.7748136869031 390.2268557160463,569.5651691113239 391.7316536376664,570.1601933864563C392.70424413694985,570.5447732350339 395.32507415390467,570.891057842954 397.55572034201043,570.9297147373896zM699.2821186308964,566.9780379995091C701.9122838778894,566.9901170997791 705.7372838778895,566.3030279812599 707.7821186308964,565.4511732916887C709.8269533839034,564.5993186021176 713.2070196479609,562.2389316812148 715.2933769954687,560.205869023016C717.8340491008676,557.7300967923461 719.594752352226,554.761938487704 720.6250486944411,551.2178435742524C721.5894382285973,547.9004601161685 721.9168193651153,544.4671325290966 721.5025606863705,542.0151565718152C721.1391301950047,539.8640300590959 719.5038754216054,536.0841531661281 717.8686611899277,533.615430142998C715.8482419006291,530.5651535986516 713.2471776283799,528.30542700838 709.7514278789279,526.563421414108C706.4539212673432,524.9202045432694 702.9726622003612,524.0078838120489 700.0536556763982,524.0219620004909C697.5491450543792,524.034041100761 693.475,524.9619715877952 691.0,526.084029749456C688.525,527.2060879111169 685.4437069184929,529.108705010896 684.1526820410954,530.3120677489651C682.8616571636979,531.5154304870343 680.9491571636979,534.1695728697166 679.9026820410954,536.2101619327036C678.7159232973073,538.5242990399055 678.0,541.9803069245573 678.0,545.395062271529C678.0,548.4061683948961 678.4198556370861,551.9741046897994 678.9330125268582,553.3238095935365C679.4461694166301,554.6735144972735 681.3548095616294,557.4734503879716 683.1744350713009,559.5458893506434C684.9940605809724,561.6183283133153 688.2867049438862,564.1334362484744 690.4914225444427,565.1350180954415C692.6961401449993,566.1365999424087 696.6519533839034,566.965958899239 699.2821186308964,566.9780379995091zM533.0958235046423,522.781551159665L575.2302019700215,522.5L578.6151009850107,518.5833900622029L582.0,514.6667801244056L582.0,482.3333900622028L582.0,450.0L542.25,450.02196200049093C505.36373451005295,450.0423417786242 502.19859226674015,450.18076764437495 498.31631699620857,451.94337899786854C495.7274958325431,453.1187427362096 493.4402357719496,455.1117231548001 492.31631699620857,457.1714169973776C490.69027068421605,460.1513098943076 490.47824119253823,463.642689595702 490.29229121935987,490.5C490.17805139000785,507.0 490.281876523842,521.0766980218492 490.5230137389914,521.781551159665C490.8722672933298,522.8024324181476 499.5316563711479,523.0058342872159 533.0958235046423,522.781551159665zM693.25,513.9730991988566C693.6625,513.9878946394855 694.019597979473,513.6625 694.0435510654956,513.25C694.0675041515182,512.8375 694.4570807801421,510.5875 694.909276906882,508.25C695.361473033622,505.9125 695.6041824697559,504.0 695.4486312094016,504.0C695.2930799490474,504.0 692.9910033204235,504.93224916443825 690.3329053680152,506.0716648098628L685.5,508.1433296197256L689.0,511.0447640087194C690.925,512.6405529226661 692.8375,513.9583037582278 693.25,513.9730991988566zM537.0,507.0C510.6666666666667,507.0 510.0,506.95061728395063 510.0,505.0C510.0,503.04938271604937 510.6666666666667,503.0 537.0,503.0C563.3333333333334,503.0 564.0,503.04938271604937 564.0,505.0C564.0,506.95061728395063 563.3333333333334,507.0 537.0,507.0zM663.0536556763982,500.9561071759422C665.0081662984173,500.980248229174 668.9582490305199,499.8284783294282 671.8316173032929,498.39661850984044C674.704985576066,496.9647586902527 678.15951248496,494.34635694813096 679.508343767502,492.5779479717921C680.8571750500439,490.80953899545324 682.6445923179413,487.4244837305709 683.4803821406073,485.0556029387202C684.3161719632733,482.6867221468695 684.9901170997791,479.3426238889913 684.9780379995091,477.62427347676856C684.965958899239,475.90592306454585 684.0871210007489,472.58562536900985 683.0250648917532,470.2458341533553C681.9630087827576,467.9060429377007 679.8353916829784,464.8222688599884 678.2970268922442,463.39300286955023C676.7586621015099,461.96373687911205 673.8304271302834,459.9406115101022 671.7898380672964,458.897168716195C669.5248557499776,457.7389837978292 666.0134137654771,457.0 662.7750289452329,457.0C659.3105345713402,457.0 656.0879410482385,457.7303240677466 653.4851908779365,459.10532053682186C651.2933358950714,460.26324683207395 648.4437069184929,462.1757468320739 647.1526820410954,463.35532053682186C645.8616571636979,464.5348942415699 643.8779005488311,467.3 642.7443340080581,469.5C641.3750810116804,472.1574148792151 640.6805118154913,475.4176171481348 640.6749853002959,479.21320840205266C640.6683138087268,483.7951654139497 641.2441851097366,485.85517120538333 643.5833333333333,489.61694580146184C645.1875,492.1967367500079 647.6510210985666,495.16159006186405 649.0578246634814,496.20550871669775C650.4646282283961,497.2494273715314 653.3896282283961,498.73549377097123 655.5578246634814,499.5078784932307C657.7260210985667,500.2802632154902 661.0991450543792,500.9319661227104 663.0536556763982,500.9561071759422zM619.0831642130163,491.0C619.6659955163847,491.0 619.8624564903106,490.1419992770179 619.5238840040965,489.0752518333641C619.069594324619,487.64391179838316 619.4469979492449,487.0671255385142 620.9961072772401,486.8252518333641C622.1418203128287,486.64636332501385 623.0753871389938,486.05 623.0707002242739,485.5C623.0660133095538,484.95 621.9231883848885,484.35760994443626 620.5310892805733,484.1835776543028C619.138990176258,484.0095453641693 618.0,483.53704536416933 618.0,483.13357765430277C618.0,482.7301099444362 618.4892095301906,481.9107904698094 619.0871322893124,481.31286771068756C619.7156748451106,480.68432515488945 619.7880016466811,479.98701180083975 619.2585901210599,479.65981748396996C618.7549691693991,479.348562618397 616.8256592446911,480.47969926254933 614.9712347328197,482.173454470975L611.5995538021443,485.2530093953854L614.8155534435314,488.12650469769267C616.5843532462942,489.70692711396174 618.5047780925624,491.0 619.0831642130163,491.0zM537.1666666666666,489.0C522.4083333333333,489.0 510.08227624246524,488.7489429091319 509.7754286869598,488.4420953536265C509.46858113145436,488.13524779812104 509.4460652452368,487.01024779812104 509.7253933842541,485.9420953536265C510.2123273656863,484.08005694817246 511.3414474756878,484.0 537.116631363961,484.0L564.0,484.0L564.0,486.5L564.0,489.0L537.1666666666666,489.0zM378.0,483.4142517134366C379.925,483.10447487718596 383.40126774533724,481.7471546660083 385.72503943408276,480.39798457748634C388.0488111228282,479.0488144889643 391.31847942458,476.49483474099816 392.99096899353117,474.7224740264504C395.02125886919123,472.570947295542 397.02180634417226,468.42743371431146 399.01060441690163,462.2546663674356C401.06107047777186,455.89049590690854 402.18151738209866,449.96944400718115 402.6059944831818,443.2546663674356L403.2226392514573,433.5L398.61131962572864,428.7324406684219C394.69959882517435,424.68818381379884 394.0,423.36069185550537 394.0,419.9824406684219C394.0,417.6415274151395 393.5246787405757,416.0 392.84684307027794,416.0C392.21260675893086,416.0 388.79726606767866,417.36849274973764 385.25719708971747,419.04109499941694C381.7171281117563,420.71369724909624 374.6985487301313,422.9333344402962 369.6603540194395,423.9736220909724C364.62215930874777,425.0139097416486 359.4047449581424,426.27346263474095 358.066099906983,426.77262852006646C355.7478478188246,427.6370789992963 355.6156913292426,428.15107674434023 355.28476621532286,437.590101428511C355.0936777360691,443.04054564282995 354.8554820631814,451.36981231981 354.75544249779466,456.0995829329112C354.5823053086544,464.2853361003238 354.73941345419644,464.97283536999254 358.0202258451145,470.38615069274783C359.9158962515271,473.5139923475569 362.6611143019144,477.2172660927294 364.1207104015307,478.61564790424234C365.58030650114705,480.0140297157553 368.51275415610024,481.7925077469091 370.6372607458711,482.5678213068064C372.81407392792147,483.362223539086 376.0276053764094,483.73165543620735 378.0,483.4142517134366zM537.0,472.0L510.0,472.0L510.0,469.5L510.0,467.0L537.0,467.0L564.0,467.0L564.0,469.5L564.0,472.0L537.0,472.0zM376.47784046331776,471.0C374.3599570978532,471.0 372.07098284861775,470.1044004663363 370.3057637013263,468.5850715351549C368.76259366559685,467.2568608794901 367.8513449649015,465.81801591458856 368.2807665886701,465.3876382798182C368.7101882124386,464.9572606450478 370.354619637925,465.3689784542281 371.9350586453065,466.3025667446633C373.5154976526881,467.2361550350985 375.67934760885316,468.0 376.74361410345114,468.0C377.8078805980491,468.0 380.11186204833876,466.425 381.8635728818726,464.5C383.6152837154064,462.575 385.48758879433984,461.0 386.02425083505796,461.0C386.56091287577607,461.0 387.0,461.3690006261487 387.0,461.82000139144156C387.0,462.27100215673437 385.3899345428961,464.52100215673437 383.42207676199143,466.82000139144156C380.5372414084397,470.19028268637453 379.1920571422464,471.0 376.47784046331776,471.0zM375.640983005625,460.0C374.9584423525313,460.0 373.85999999999996,459.46 373.2,458.8C372.54,458.14000000000004 372.0,456.5449820287742 372.0,455.2555156194983C372.0,453.9660492102223 372.72711153234854,450.0163859271618 373.61580340521897,446.47848610158616C374.5723204812314,442.6705728082486 374.89953199539394,439.3225267188834 374.4177455286771,438.2729704820879C373.8262600103908,436.98443840910977 373.45307408571495,437.86617731091405 373.05194212345805,441.5C372.5866869050014,445.7147101904609 372.14813883600834,446.5499889332745 370.2596731823237,446.81828334372426C368.63423036056764,447.04921008720606 367.6850856813978,446.4029444006052 366.80146920774064,444.46361749025846C365.7942820614031,442.25308249585834 365.86348154103575,441.30298899496415 367.20147139715016,438.9716761849341C368.09130503762407,437.42123052546026 368.55841844112905,435.8917517744624 368.2395011827167,435.5728345160501C367.9205839243044,435.2539172576377 366.57218628027414,435.7055196136074 365.2430619737606,436.5763953070939C363.913937667247,437.4472710005804 362.54968613732524,437.88301947065855 362.21139190726774,437.544725240601C361.8730976772102,437.2064310105435 362.6996414039605,435.91834756832964 364.04815574449066,434.68231759123694C365.3966700850208,433.44628761414424 367.625,432.3439135158543 369.0,432.2325973728149C370.375,432.1212812297755 372.7264959584269,432.52344453008095 374.22554657428196,433.126293595716C376.2454554576535,433.93860784990403 377.12770777210727,435.16381968728257 377.63327238639,437.85871076837077C378.06787160975273,440.1753237942839 377.6778585074005,443.97010881074175 376.5586345910833,448.3148194969073C374.88487226918204,454.8121905234261 374.88463822368675,455.1951602124002 376.553683937393,456.41559623537347C377.5172104460862,457.12014402015984 377.9852438480786,458.21485896097704 377.5937581640427,458.84829610385617C377.20227248000674,459.4817332467353 376.3235236587188,460.0 375.640983005625,460.0zM405.89424474514544,456.0C406.3860793549755,456.0 408.1860793549755,454.6944555898609 409.89424474514544,453.09879019969094C412.2166157573188,450.92937085155023 413.0,449.3207198450224 413.0,446.7212349151331C413.0,444.80924489879624 412.38203669029673,442.7320254356017 411.62674820065945,442.10519166358966C410.8714597110221,441.4783578915776 409.5680947506815,441.22850718768893 408.7303816221247,441.5499678771704C407.8926684935679,441.87142856665184 407.0078966425837,443.492837859323 406.764221953271,445.15309963866184C406.3702570590721,447.8373540357201 406.57022075622547,448.1241497009047 408.56929331298835,447.7420027680073C410.1499584626873,447.43983947891024 410.6643034893384,447.7112361474142 410.3017159769983,448.6561240583684C410.0180845050465,449.3952558262658 409.1750000448339,450.0 408.42819495430365,450.0C407.6813898637734,450.0 406.6045348256564,450.8704163456598 406.03518375848796,451.93425854591067C405.4658326913196,452.9981007461615 405.0,454.34810074616155 405.0,454.93425854591067C405.0,455.5204163456598 405.40241013531545,456.0 405.89424474514544,456.0zM349.54380955272063,452.0C350.8204447183526,452.0 351.036771909276,450.747137573929 350.79380955272063,444.7606047769418C350.5407568240622,438.5254476894072 350.23173188707386,437.46997451301064 348.5660972467414,437.1518641794861C347.5024507324491,436.94872422356747 346.0399507324491,437.59246040974085 345.3160972467414,438.58238903764914C344.5922437610336,439.5723176655575 344.0,442.0962509344126 344.0,444.19112963510486C344.0,446.6666666666667 344.70012009104966,448.70012009104966 346.0,450.0C347.1,451.1 348.69471429872425,452.0 349.54380955272063,452.0zM389.37727770024276,447.80287201560947C388.1252522013618,447.9815121921808 386.99725905657624,447.4352405069149 386.62727770024276,446.47108454737366C386.28227496510925,445.5720218312588 386.0,444.23037228137736 386.0,443.48964110319275C386.0,442.7489099250082 386.7226756794519,441.42018146340524 387.6059459543376,440.5369111885196C388.87553181610565,439.26732532675146 389.51456740980336,439.1821635890768 390.65701131270686,440.130307815812C391.4986774774035,440.8288286909879 391.9764117863494,442.6179582857402 391.8010653583693,444.414825198721C391.5802787468027,446.6773415312358 390.9339784325977,447.58076048996946 389.37727770024276,447.80287201560947zM348.0037989621493,447.0C347.490411667304,447.0 346.6219708462365,446.1621631568075 346.0739304708882,445.13814034846104C345.3692341242288,443.82140318018395 345.4609083699787,442.75192951523394 346.3870428162564,441.4853651900434C347.1072949815572,440.5003616612602 348.21485896097704,440.0147561519214 348.84829610385617,440.4062418359573C349.4817332467353,440.79772751999326 350.0,441.7664763412812 350.0,442.55901699437493C350.0,443.3515576474687 349.50185503811707,444.0 348.8930111958157,444.0C348.28416735351425,444.0 348.04504419516184,444.675 348.36162639947696,445.5C348.6782086037921,446.325 348.5171862569946,447.0 348.0037989621493,447.0zM395.80156257667716,442.1067768946547L395.42648628333177,444.5L394.62767420435324,442.19271590095593C394.18832756091507,440.92370964648165 392.6298681471654,439.42846675283096 391.16443106268736,438.8699539150655C389.69899397820933,438.31144107730006 387.20782122359145,438.1119046771516 385.62849160798106,438.4265396925134C382.843402085235,438.98138693663 382.80192993884896,438.93090997717417 384.2504636681968,436.74930167840375C385.29248825773493,435.1799288388202 386.7324466202959,434.5 389.0140515274204,434.5C391.3734802949591,434.5 392.8261592253287,435.22595047817106 394.23039890221594,437.1067768946547C395.3124761900731,438.5561018077564 396.0100988029166,440.77618436243597 395.80156257667716,442.1067768946547zM232.87244471544216,440.96480618778304C231.97728930893535,440.98416278450236 230.64427539533187,440.2763043600678 229.9101915741011,439.39178746681733C228.78071661944608,438.03085340315596 228.84357266923845,437.5875508180349 230.31898530069665,436.50870276169087C231.27790567155498,435.80752306712174 235.44180122359924,434.7312187070539 239.5720865274617,434.1169152948735C243.70237183132411,433.5026118826931 248.65243769075957,433.0 250.5722328817627,433.0C252.81897838855704,433.0 254.27706707958473,433.5584502991284 254.6641673535143,434.5672174428245C254.99493612197458,435.42918703637787 254.7781794319892,436.6218205680108 254.18248582021351,437.21751417978646C253.58679220843783,437.81320779156215 248.91454005770882,438.8921227267935 243.79970326303794,439.6151029247451C238.68486646836706,440.3380831226966 233.767600121949,440.9454495910637 232.87244471544216,440.96480618778304zM398.4297937532113,436.85303092668306C397.9184071889451,437.29997106489117 395.31164348101356,436.1658782538363 392.63698551336347,434.3328246798944C389.96232754571344,432.49977110595245 386.89183167226867,431.0 385.813661350153,431.0C384.48991092901036,431.0 383.9620717047199,430.43546227938214 384.18815935607597,429.26148351928657C384.3723035814494,428.30529945489417 385.31586135957326,427.37026954446003 386.28495441857353,427.1836392738775C387.2540474775738,426.99700900329486 389.98774586942847,427.78383864070105 392.3598397338061,428.93214957922464C394.7319335981838,430.0804605177482 397.27727888244976,432.1495832392372 398.01616258773043,433.5302000714224C398.8305253567337,435.05185082424794 398.9934199037551,436.36043458719337 398.4297937532113,436.85303092668306zM366.25,430.3035046655764C362.2625,430.6225766329134 359.0,430.4853343102342 359.0,429.99852172628914C359.0,429.51170914234405 360.00012780953244,428.41289115140603 361.2225062434054,427.55670396864906C362.4860455980875,426.6716865547209 365.51994717724796,426.0 368.25389103974413,426.0C371.6656927724848,426.0 373.2348022901434,426.4483100233525 373.65492339359275,427.54312806941266C373.98060798409614,428.3918485075896 374.07898482574376,429.22960761616093 373.873538597254,429.4048149773489C373.6680923687643,429.58002233853693 370.2375,429.9844326982393 366.25,430.3035046655764zM393.4230769230769,403.0C393.19038461538463,403.0 393.0,402.7454163456598 393.0,402.43425854591067C393.0,402.1231007461615 393.46333996494855,401.0027584479911 394.02964436655236,399.9446089944207C394.5959487681561,398.8864595408504 396.3736018010582,397.34104319519065 397.9799844396681,396.51035044851005C399.58636707827804,395.6796577018295 401.8230271133295,395.0 402.9503400731158,395.0C404.0776530329021,395.0 405.0,395.45 405.0,396.0C405.0,396.55 403.8403846153846,397.0 402.4230769230769,397.0C400.8931623931624,397.0 398.62724837351703,398.21890547263683 396.84615384615387,400.0C395.1961538461539,401.65 393.65576923076924,403.0 393.4230769230769,403.0zM271.5,383.92329965496106C270.95,383.8979585171584 266.80592529789783,382.21734926569104 262.2909451064396,380.1886124294781C257.77596491498133,378.15987559326516 253.55371276425234,375.967747849271 252.908162549264,375.3172174428244C252.26261233427567,374.6666870363778 252.00506387802545,373.42918703637787 252.3358326464857,372.5672174428244C252.66660141494597,371.70524784927096 253.66823439638497,371.0 254.5616837163501,371.0C255.45513303631526,371.0 260.1976497230354,372.6875 265.1006096868393,374.75C270.76686892368906,377.133592719965 274.2335147671958,379.18314746434953 274.61455337192933,380.3748458301869C274.95769622456146,381.4480252184448 274.6337787440317,382.6173517532154 273.8570121977789,383.10953305566983C273.11065548900046,383.58244582308265 272.05,383.9486407927637 271.5,383.92329965496106zM315.8432365722189,344.79515277134936C314.93201668693933,344.96872403114264 313.96632512759044,344.7483210820499 313.6972553292213,344.3053684400322C313.4281855308522,343.8624157980145 311.5862290733537,339.2923415312193 309.6040187570024,334.14964784715403C307.6218084406511,329.0069541630887 306.0,323.9303310047363 306.0,322.86826305081524C306.0,321.80619509689427 306.6807307210656,320.67600951978324 307.51273493570125,320.3567395461241C308.3447391503369,320.03746957246494 309.63519021671544,320.2822716273758 310.38040397209795,320.90074411259263C311.12561772748046,321.51921659780953 313.1777517217638,326.0576044277604 314.9407017371721,330.9860504013724C316.7036517525804,335.91449637498437 318.00070068620187,340.9667204275186 317.8230327007754,342.2132149625597C317.64536471534893,343.4597094976007 316.7544564574985,344.6215815115561 315.8432365722189,344.79515277134936zM366.4000853214991,336.7218621377117C365.79513224832357,336.91147334408726 364.7263113898583,336.3751516863739 364.02492785824296,335.53003623168195C362.975705170815,334.26580023441437 363.2749249241265,332.0001267088854 365.7131752131419,322.7467313388483C368.33017550577523,312.8149624386926 368.9465867782406,311.46038688372386 370.9852740744209,311.161193306255C373.22242456794754,310.8328736758985 373.27705520760907,311.00311484793394 372.7502320722183,316.661193306255C372.4512241741131,319.8725369878147 371.14760054500283,325.6223507601951 369.85329067419536,329.438557244878C368.5589808033879,333.2547637295609 367.00503839467456,336.5322509313361 366.4000853214991,336.7218621377117z"/></svg>