<svg data-v-0dd9719b="" version="1.0" xmlns="http://www.w3.org/2000/svg" xmlns:xlink="http://www.w3.org/1999/xlink" width="100%" height="100%" viewBox="0 0 340.000000 250.000000" preserveAspectRatio="xMidYMid meet" color-interpolation-filters="sRGB" style="margin: auto;"> <rect data-v-0dd9719b="" x="0" y="0" width="100%" height="100%" fill="#8875b5" fill-opacity="1" class="background"></rect> <rect data-v-0dd9719b="" x="0" y="0" width="100%" height="100%" fill="url(#watermark)" fill-opacity="1" class="watermarklayer"></rect> <g data-v-0dd9719b="" fill="#f7dbf0" class="iconbordersvg" transform="translate(45.92689514160156,78.51744842529297)"><g data-gra="graph-icon-name"><g><rect data-gra="graph-name-bg" stroke-width="2" class="i-icon-bg" x="0" y="0" width="248.14620971679688" height="92.96510314941406" fill-opacity="0" stroke="rgb(247, 219, 240)"></rect> <!----> <!----> </g> <g transform="translate(0,0)"><g hollow-target="black" data-gra="graph-icon" transform="translate(0,0)" mask="url(#fd649b5b-d259-43e1-bfa8-99cf44f206e1)"><g><rect data-gra="graph-name-bg" stroke-width="2" class="i-icon-bg" x="0" y="0" width="56" height="92.96510314941406" fill-opacity="1"></rect> <!----> <!----> </g> <g transform="translate(5,5)"><g class="iconsvg-imagesvg"><g><!----> <svg filter="url(#colors816685770)" x="0" y="0" width="46" height="82.96510055009469" filtersec="colorsb5875968355" class="image-svg-svg primary" style="overflow: visible;"><svg xmlns:rdf="http://www.w3.org/1999/02/22-rdf-syntax-ns#" xmlns="http://www.w3.org/2000/svg" xmlns:cc="http://creativecommons.org/ns#" xmlns:dc="http://purl.org/dc/elements/1.1/" version="1.1" x="0px" y="0px" viewBox="24.46082305908203 3.934814453125 51.0772705078125 92.122802734375"><g transform="translate(0,-952.36218)"><path d="m49.842,956.31a0.85009,0.85009,0,0,0,-0.53125,0.34375c-1.2224,1.6542-3.3554,4.2584-5.0938,8.0625-2.8881-2.9947-5.7725-4.7804-7.4688-5.9375a0.85009,0.85009,0,0,0,-0.625,-0.125,0.85009,0.85009,0,0,0,-0.65625,0.5625c-0.63706,1.8658-1.5992,4.6013-2.0625,8.0938-3.2033-1.6158-6.016-2.3559-7.7812-2.9062a0.85009,0.85009,0,0,0,-0.34375,-0.0625,0.85009,0.85009,0,0,0,-0.75,0.84375c-0.13362,4.1747-0.70037,12.402,6.25,21.875,6.5822,8.971,14.881,11.441,18.375,12.375v24.125c-0.95394-2.0167-2.6121-4.4467-5.625-6.7188-5.0245-3.7889-9.5424-3.7092-11.5-3.8125a0.85009,0.85009,0,0,0,-0.0937,0,0.85009,0.85009,0,0,0,-0.78125,1.0938c0.60917,2.0089,1.7341,6.2175,6.75,10,4.8168,3.6323,9.4338,3.7895,11.25,3.8125v19.531a0.85009,0.85009,0,1,0,1.6875,0v-27.5a0.85009,0.85009,0,0,0,0.0937,0c1.6172-0.019,6.525-0.014,11.562-3.8125,5.0159-3.7824,6.1408-7.9598,6.75-9.9687a0.85009,0.85009,0,0,0,-0.875,-1.0938c-1.9576,0.1033-6.4755-0.01-11.5,3.7813-3.5547,2.6806-5.1903,5.5614-6.0312,7.75v-17.188c3.497-0.9342,11.824-3.404,18.406-12.375,6.9509-9.4735,6.3523-17.703,6.2188-21.875a0.85009,0.85009,0,0,0,-0.84375,-0.84375,0.85009,0.85009,0,0,0,-0.0937,0,0.85009,0.85009,0,0,0,-0.15625,0.0625c-1.769,0.55147-4.5729,1.2856-7.7812,2.9062-0.46257-3.4916-1.4242-6.2243-2.0625-8.0938a0.85009,0.85009,0,0,0,-0.9375,-0.5625,0.85009,0.85009,0,0,0,-0.34375,0.125c-1.6899,1.1528-4.5594,2.8984-7.4375,5.875-1.707-3.7296-3.8057-6.3088-5.1562-8.0312a0.85009,0.85009,0,0,0,-0.8125,-0.3125zm0.15625,2.25c1.4361,1.8222,3.3031,4.247,4.7188,7.6562a0.85009,0.85009,0,0,0,0.0312,0.0937c0.004,0.009-0.004,0.0224,0,0.0312a0.85009,0.85009,0,0,0,0.0312,0.125c0.99269,2.4655,1.7528,5.4548,2,9.0625a0.85009,0.85009,0,0,0,0,0.0937c0.003,0.0519-0.003,0.10411,0,0.15625,0.0456,0.70931,0.0937,1.4232,0.0937,2.1875,0,0.64466-0.0286,1.2934-0.0625,1.9062-0.003,0.0505,0.003,0.10596,0,0.15626-0.008,0.1392-0.0212,0.2687-0.0312,0.4062-0.33129,4.4612-1.5232,8.0898-2.9062,10.938-0.0401,0.082-0.0846,0.1692-0.125,0.25-0.16332,0.3283-0.33334,0.6619-0.5,0.9688-0.0216,0.039-0.0409,0.086-0.0625,0.125-0.18652,0.3395-0.3751,0.6557-0.5625,0.9687-0.18618,0.3074-0.37872,0.6251-0.5625,0.9063-0.0891,0.1376-0.19319,0.2747-0.28125,0.4062-0.64695,0.9544-1.275,1.7729-1.7812,2.4063-1.0725-1.2577-2.366-2.8729-3.5312-5.0313-0.13829-0.2586-0.27183-0.5392-0.40625-0.8125-0.0597-0.1204-0.12872-0.2515-0.1875-0.375-0.11223-0.2377-0.20415-0.5013-0.3125-0.75-0.009-0.021-0.0219-0.041-0.0312-0.062-0.10642-0.2459-0.21054-0.4932-0.3125-0.75-0.14106-0.3532-0.27519-0.7189-0.40625-1.0937-0.50494-1.4521-0.92376-3.0865-1.2188-4.875-0.0636-0.388-0.13653-0.7822-0.1875-1.1875-0.0254-0.2007-0.0404-0.3888-0.0625-0.5938-0.0316-0.2942-0.0692-0.6029-0.0937-0.9062-0.0293-0.3594-0.0438-0.7219-0.0625-1.0938-0.0309-0.61754-0.0625-1.2525-0.0625-1.9062,0-0.81883,0.0432-1.5828,0.0937-2.3438a0.85009,0.85009,0,0,0,0,-0.0937,0.85009,0.85009,0,0,0,0,-0.0625c0.25968-3.5437,1.0346-6.4849,2.0312-8.9375a0.85009,0.85009,0,0,0,0.0312,-0.0625c0.0125-0.0306,0.0187-0.0633,0.0312-0.0937a0.85009,0.85009,0,0,0,0,-0.0625c1.4405-3.4695,3.3102-5.9344,4.6875-7.75zm-13.25,2.2812c1.8539,1.2371,4.2548,2.8961,6.75,5.625-0.77969,2.0365-1.4339,4.3538-1.7812,7.0312-2.2321-2.3405-4.524-4.0169-6.6875-5.2812,0.33724-3.0703,1.0638-5.46,1.7188-7.375zm26.531,0c0.64783,1.905,1.3506,4.2867,1.6875,7.3438-2.1607,1.2606-4.4247,2.945-6.6562,5.2812-0.25534-2.0081-0.6698-3.7991-1.1875-5.4375-0.11382-0.37967-0.24862-0.73452-0.375-1.0938-0.0655-0.18257-0.11966-0.35336-0.1875-0.53125,2.4822-2.6998,4.8741-4.3339,6.7188-5.5625zm-37.094,5.5312c2.3244,0.6944,5.514,1.6507,8.9688,3.875,0.1612,0.10312,0.30656,0.20392,0.46875,0.3125,0.19191,0.12918,0.36924,0.26886,0.5625,0.40625,0.14647,0.10337,0.29046,0.20438,0.4375,0.3125,0.20836,0.15421,0.4155,0.30438,0.625,0.46875,0.134,0.10429,0.27197,0.20402,0.40625,0.3125,0.22266,0.18122,0.43277,0.36908,0.65625,0.5625,0.11533,0.0992,0.22834,0.1788,0.34375,0.28125,0.24815,0.22125,0.50141,0.45028,0.75,0.6875,0.0956,0.0908,0.18574,0.18807,0.28125,0.28125,0.61107,0.59811,1.2039,1.2342,1.8125,1.9375-0.0426,0.70362-0.0625,1.4102-0.0625,2.1562,0,1.2781,0.0765,2.5036,0.1875,3.6563,0.0406,0.4164,0.0715,0.8176,0.125,1.2187,0.0292,0.2215,0.0608,0.4396,0.0937,0.6563,0.0424,0.2758,0.10813,0.5441,0.15625,0.8125,0.0853,0.481,0.14769,0.9494,0.25,1.4062,0.009,0.04,0.022,0.085,0.0312,0.125,0.102,0.447,0.22722,0.8884,0.34375,1.3125,0.0556,0.2016,0.12891,0.3972,0.1875,0.5938,0.13468,0.4531,0.25726,0.8858,0.40625,1.3125,0.006,0.019-0.006,0.044,0,0.062,0.33029,0.9398,0.71175,1.8082,1.0938,2.625,0.0229,0.049,0.0395,0.1073,0.0625,0.1562,0.0299,0.063,0.0637,0.1254,0.0937,0.1875,0.2755,0.5746,0.55447,1.1091,0.84375,1.625,0.10214,0.1801,0.20937,0.3583,0.3125,0.5313,0.67527,1.1473,1.3455,2.1119,2,2.9687-3.9438-1.2419-10.179-3.946-15.469-11.156-6.1436-8.3733-6.117-15.305-5.9688-19.688zm47.625,0c0.15097,4.3844,0.20565,11.315-5.9375,19.688-5.3627,7.309-11.694,9.9698-15.625,11.188,0.31486-0.4276,0.65556-0.8871,1-1.4063,0.47595-0.7148,0.98177-1.5473,1.4688-2.4375,0.22228-0.4081,0.43934-0.8055,0.65625-1.25,0.22199-0.4535,0.41387-0.9135,0.625-1.4062,0.11673-0.2715,0.23148-0.5606,0.34375-0.8438,0.0848-0.2151,0.16825-0.4342,0.25-0.6562,0.0684-0.1846,0.15267-0.3733,0.21875-0.5625,0.0527-0.1524,0.1052-0.3132,0.15625-0.4688,0.0919-0.277,0.16386-0.5571,0.25-0.8437,0.13899-0.4682,0.28483-0.9428,0.40625-1.4375,0.58844-2.36,0.96875-5.0252,0.96875-7.9688,0-0.76765-0.019-1.4968-0.0625-2.2188,0.60045-0.69061,1.1781-1.3178,1.7812-1.9062,0.10386-0.10115,0.20859-0.18292,0.3125-0.28125,0.23544-0.22354,0.45242-0.447,0.6875-0.65625,0.12228-0.10845,0.2528-0.20772,0.375-0.3125,0.22303-0.19204,0.43402-0.38257,0.65625-0.5625,0.13642-0.11019,0.27014-0.20663,0.40625-0.3125,0.53189-0.41517,1.0704-0.80424,1.5938-1.1562,0.0922-0.0618,0.18936-0.0962,0.28125-0.15625,3.5454-2.3263,6.814-3.322,9.1875-4.0312zm-6.6562,40.563c-0.66903,2.1157-1.7602,4.9135-5.6875,7.875-3.9108,2.9491-7.2084,3.2715-9.25,3.3437,0.59526-2.0585,1.7162-4.9115,5.6875-7.9062,3.9345-2.967,7.0222-3.2072,9.25-3.3125zm-33.875,7.9687c2.2276,0.1069,5.332,0.358,9.25,3.3125,3.9553,2.9827,5.0888,5.8168,5.6875,7.875-2.0402-0.071-5.3658-0.3598-9.2812-3.3125-3.9273-2.9615-4.9872-5.7593-5.6562-7.875z"></path></g></svg></svg> <defs><filter id="colors816685770"><feColorMatrix type="matrix" values="0 0 0 0 0.96484375  0 0 0 0 0.85546875  0 0 0 0 0.9375  0 0 0 1 0" class="icon-fecolormatrix"></feColorMatrix></filter> <filter id="colorsf54310812"><feColorMatrix type="matrix" values="0 0 0 0 0.99609375  0 0 0 0 0.99609375  0 0 0 0 0.99609375  0 0 0 1 0" class="icon-fecolormatrix"></feColorMatrix></filter> <filter id="colorsb5875968355"><feColorMatrix type="matrix" values="0 0 0 0 0  0 0 0 0 0  0 0 0 0 0  0 0 0 1 0" class="icon-fecolormatrix"></feColorMatrix></filter></defs></g></g></g></g> <g data-gra="graph-name" transform="translate(56,0)"><g><rect data-gra="graph-name-bg" stroke-width="2" class="i-icon-bg" x="0" y="0" width="192.14620971679688" height="92.96510314941406" fill-opacity="0"></rect> <!----> <!----> </g> <g transform="translate(5,26.037851333618164)"><g data-gra="path-name" fill-rule="" class="tp-name"><g transform="scale(1.3800000000000001)"><g><path d="M18-7.43L18-7.43Q18-9.33 16.66-10.36 15.33-11.39 11.84-12.44 8.36-13.49 6.3-14.77L6.3-14.77Q2.36-17.25 2.36-21.23L2.36-21.23Q2.36-24.71 5.2-26.97 8.04-29.23 12.58-29.23L12.58-29.23Q15.59-29.23 17.94-28.12 20.3-27.01 21.65-24.96 22.99-22.91 22.99-20.42L22.99-20.42 18-20.42Q18-22.68 16.59-23.95 15.17-25.23 12.54-25.23L12.54-25.23Q10.08-25.23 8.72-24.18 7.37-23.13 7.37-21.25L7.37-21.25Q7.37-19.66 8.83-18.61 10.3-17.55 13.66-16.55 17.03-15.55 19.07-14.27 21.11-12.99 22.06-11.34 23.01-9.68 23.01-7.47L23.01-7.47Q23.01-3.86 20.25-1.73 17.49 0.4 12.75 0.4L12.75 0.4Q9.62 0.4 7-0.76 4.38-1.92 2.92-3.96 1.47-6 1.47-8.71L1.47-8.71 6.48-8.71Q6.48-6.26 8.1-4.91 9.72-3.56 12.75-3.56L12.75-3.56Q15.37-3.56 16.68-4.62 18-5.68 18-7.43ZM36.38 0.4L36.38 0.4Q31.8 0.4 28.96-2.49 26.12-5.37 26.12-10.16L26.12-10.16 26.12-10.75Q26.12-13.96 27.36-16.49 28.6-19.01 30.83-20.42 33.07-21.82 35.82-21.82L35.82-21.82Q40.2-21.82 42.59-19.03 44.97-16.24 44.97-11.13L44.97-11.13 44.97-9.19 30.97-9.19Q31.19-6.54 32.75-4.99 34.3-3.45 36.66-3.45L36.66-3.45Q39.96-3.45 42.04-6.12L42.04-6.12 44.64-3.64Q43.35-1.72 41.2-0.66 39.05 0.4 36.38 0.4ZM35.8-17.96L35.8-17.96Q33.82-17.96 32.61-16.58 31.39-15.19 31.05-12.71L31.05-12.71 40.22-12.71 40.22-13.07Q40.06-15.49 38.93-16.72 37.8-17.96 35.8-17.96ZM66.42 0L61.51 0Q61.19-0.61 60.96-2L60.96-2Q58.66 0.4 55.33 0.4L55.33 0.4Q52.1 0.4 50.06-1.45 48.02-3.29 48.02-6L48.02-6Q48.02-9.43 50.57-11.26 53.11-13.09 57.85-13.09L57.85-13.09 60.8-13.09 60.8-14.5Q60.8-16.16 59.87-17.16 58.94-18.16 57.03-18.16L57.03-18.16Q55.39-18.16 54.34-17.34 53.29-16.52 53.29-15.25L53.29-15.25 48.48-15.25Q48.48-17.01 49.65-18.55 50.82-20.08 52.83-20.95 54.84-21.82 57.31-21.82L57.31-21.82Q61.07-21.82 63.31-19.93 65.55-18.04 65.61-14.62L65.61-14.62 65.61-4.95Q65.61-2.06 66.42-0.34L66.42-0.34 66.42 0ZM56.22-3.47L56.22-3.47Q57.65-3.47 58.91-4.16 60.16-4.85 60.8-6.02L60.8-6.02 60.8-10.06 58.2-10.06Q55.53-10.06 54.18-9.13 52.84-8.2 52.84-6.5L52.84-6.5Q52.84-5.11 53.76-4.29 54.68-3.47 56.22-3.47ZM70.58-21.43L75.11-21.43 75.25-18.95Q77.63-21.82 81.49-21.82L81.49-21.82Q88.19-21.82 88.3-14.16L88.3-14.16 88.3 0 83.49 0 83.49-13.88Q83.49-15.92 82.61-16.9 81.73-17.88 79.73-17.88L79.73-17.88Q76.82-17.88 75.39-15.25L75.39-15.25 75.39 0 70.58 0 70.58-21.43ZM102.01-3.45L102.01-3.45Q103.81-3.45 105-4.5 106.19-5.54 106.27-7.09L106.27-7.09 110.8-7.09Q110.72-5.09 109.55-3.36 108.38-1.62 106.38-0.61 104.38 0.4 102.07 0.4L102.07 0.4Q97.57 0.4 94.94-2.52 92.3-5.43 92.3-10.56L92.3-10.56 92.3-11.05Q92.3-15.94 94.92-18.88 97.53-21.82 102.05-21.82L102.05-21.82Q105.87-21.82 108.28-19.6 110.68-17.37 110.8-13.74L110.8-13.74 106.27-13.74Q106.19-15.59 105.01-16.77 103.83-17.96 102.01-17.96L102.01-17.96Q99.67-17.96 98.4-16.27 97.14-14.58 97.12-11.13L97.12-11.13 97.12-10.36Q97.12-6.87 98.37-5.16 99.63-3.45 102.01-3.45ZM113.53-10.67L113.53-10.91Q113.53-14.06 114.78-16.59 116.03-19.11 118.29-20.47 120.54-21.82 123.48-21.82L123.48-21.82Q127.81-21.82 130.52-19.03 133.22-16.24 133.44-11.62L133.44-11.62 133.46-10.5Q133.46-7.33 132.24-4.83 131.02-2.34 128.75-0.97 126.49 0.4 123.51 0.4L123.51 0.4Q118.98 0.4 116.26-2.62 113.53-5.64 113.53-10.67L113.53-10.67ZM118.35-10.5L118.35-10.5Q118.35-7.19 119.71-5.32 121.08-3.45 123.51-3.45 125.95-3.45 127.31-5.35 128.66-7.25 128.66-10.91L128.66-10.91Q128.66-14.16 127.27-16.06 125.87-17.96 123.48-17.96L123.48-17.96Q121.12-17.96 119.73-16.09 118.35-14.22 118.35-10.5Z" transform="translate(-1.4700000286102295, 29.229999542236328)"></path></g> <!----> <!----> <!----> <!----> <!----> <!----> <!----></g></g> <!----></g></g></g></g></g><mask id="fd649b5b-d259-43e1-bfa8-99cf44f206e1"><g fill="white"><rect data-gra="graph-name-bg" stroke-width="2" class="i-icon-bg" x="0" y="0" width="56" height="92.96510314941406" fill-opacity="1"></rect>   </g> <g transform="translate(5,5)" fill="black"><g class="iconsvg-imagesvg"><g> <svg x="0" y="0" width="46" height="82.96510055009469" class="image-svg-svg primary" style="overflow: visible;" filter="url(#colorsb5875968355)"><svg xmlns:rdf="http://www.w3.org/1999/02/22-rdf-syntax-ns#" xmlns="http://www.w3.org/2000/svg" xmlns:cc="http://creativecommons.org/ns#" xmlns:dc="http://purl.org/dc/elements/1.1/" version="1.1" x="0px" y="0px" viewBox="24.46082305908203 3.934814453125 51.0772705078125 92.122802734375"><g transform="translate(0,-952.36218)"><path d="m49.842,956.31a0.85009,0.85009,0,0,0,-0.53125,0.34375c-1.2224,1.6542-3.3554,4.2584-5.0938,8.0625-2.8881-2.9947-5.7725-4.7804-7.4688-5.9375a0.85009,0.85009,0,0,0,-0.625,-0.125,0.85009,0.85009,0,0,0,-0.65625,0.5625c-0.63706,1.8658-1.5992,4.6013-2.0625,8.0938-3.2033-1.6158-6.016-2.3559-7.7812-2.9062a0.85009,0.85009,0,0,0,-0.34375,-0.0625,0.85009,0.85009,0,0,0,-0.75,0.84375c-0.13362,4.1747-0.70037,12.402,6.25,21.875,6.5822,8.971,14.881,11.441,18.375,12.375v24.125c-0.95394-2.0167-2.6121-4.4467-5.625-6.7188-5.0245-3.7889-9.5424-3.7092-11.5-3.8125a0.85009,0.85009,0,0,0,-0.0937,0,0.85009,0.85009,0,0,0,-0.78125,1.0938c0.60917,2.0089,1.7341,6.2175,6.75,10,4.8168,3.6323,9.4338,3.7895,11.25,3.8125v19.531a0.85009,0.85009,0,1,0,1.6875,0v-27.5a0.85009,0.85009,0,0,0,0.0937,0c1.6172-0.019,6.525-0.014,11.562-3.8125,5.0159-3.7824,6.1408-7.9598,6.75-9.9687a0.85009,0.85009,0,0,0,-0.875,-1.0938c-1.9576,0.1033-6.4755-0.01-11.5,3.7813-3.5547,2.6806-5.1903,5.5614-6.0312,7.75v-17.188c3.497-0.9342,11.824-3.404,18.406-12.375,6.9509-9.4735,6.3523-17.703,6.2188-21.875a0.85009,0.85009,0,0,0,-0.84375,-0.84375,0.85009,0.85009,0,0,0,-0.0937,0,0.85009,0.85009,0,0,0,-0.15625,0.0625c-1.769,0.55147-4.5729,1.2856-7.7812,2.9062-0.46257-3.4916-1.4242-6.2243-2.0625-8.0938a0.85009,0.85009,0,0,0,-0.9375,-0.5625,0.85009,0.85009,0,0,0,-0.34375,0.125c-1.6899,1.1528-4.5594,2.8984-7.4375,5.875-1.707-3.7296-3.8057-6.3088-5.1562-8.0312a0.85009,0.85009,0,0,0,-0.8125,-0.3125zm0.15625,2.25c1.4361,1.8222,3.3031,4.247,4.7188,7.6562a0.85009,0.85009,0,0,0,0.0312,0.0937c0.004,0.009-0.004,0.0224,0,0.0312a0.85009,0.85009,0,0,0,0.0312,0.125c0.99269,2.4655,1.7528,5.4548,2,9.0625a0.85009,0.85009,0,0,0,0,0.0937c0.003,0.0519-0.003,0.10411,0,0.15625,0.0456,0.70931,0.0937,1.4232,0.0937,2.1875,0,0.64466-0.0286,1.2934-0.0625,1.9062-0.003,0.0505,0.003,0.10596,0,0.15626-0.008,0.1392-0.0212,0.2687-0.0312,0.4062-0.33129,4.4612-1.5232,8.0898-2.9062,10.938-0.0401,0.082-0.0846,0.1692-0.125,0.25-0.16332,0.3283-0.33334,0.6619-0.5,0.9688-0.0216,0.039-0.0409,0.086-0.0625,0.125-0.18652,0.3395-0.3751,0.6557-0.5625,0.9687-0.18618,0.3074-0.37872,0.6251-0.5625,0.9063-0.0891,0.1376-0.19319,0.2747-0.28125,0.4062-0.64695,0.9544-1.275,1.7729-1.7812,2.4063-1.0725-1.2577-2.366-2.8729-3.5312-5.0313-0.13829-0.2586-0.27183-0.5392-0.40625-0.8125-0.0597-0.1204-0.12872-0.2515-0.1875-0.375-0.11223-0.2377-0.20415-0.5013-0.3125-0.75-0.009-0.021-0.0219-0.041-0.0312-0.062-0.10642-0.2459-0.21054-0.4932-0.3125-0.75-0.14106-0.3532-0.27519-0.7189-0.40625-1.0937-0.50494-1.4521-0.92376-3.0865-1.2188-4.875-0.0636-0.388-0.13653-0.7822-0.1875-1.1875-0.0254-0.2007-0.0404-0.3888-0.0625-0.5938-0.0316-0.2942-0.0692-0.6029-0.0937-0.9062-0.0293-0.3594-0.0438-0.7219-0.0625-1.0938-0.0309-0.61754-0.0625-1.2525-0.0625-1.9062,0-0.81883,0.0432-1.5828,0.0937-2.3438a0.85009,0.85009,0,0,0,0,-0.0937,0.85009,0.85009,0,0,0,0,-0.0625c0.25968-3.5437,1.0346-6.4849,2.0312-8.9375a0.85009,0.85009,0,0,0,0.0312,-0.0625c0.0125-0.0306,0.0187-0.0633,0.0312-0.0937a0.85009,0.85009,0,0,0,0,-0.0625c1.4405-3.4695,3.3102-5.9344,4.6875-7.75zm-13.25,2.2812c1.8539,1.2371,4.2548,2.8961,6.75,5.625-0.77969,2.0365-1.4339,4.3538-1.7812,7.0312-2.2321-2.3405-4.524-4.0169-6.6875-5.2812,0.33724-3.0703,1.0638-5.46,1.7188-7.375zm26.531,0c0.64783,1.905,1.3506,4.2867,1.6875,7.3438-2.1607,1.2606-4.4247,2.945-6.6562,5.2812-0.25534-2.0081-0.6698-3.7991-1.1875-5.4375-0.11382-0.37967-0.24862-0.73452-0.375-1.0938-0.0655-0.18257-0.11966-0.35336-0.1875-0.53125,2.4822-2.6998,4.8741-4.3339,6.7188-5.5625zm-37.094,5.5312c2.3244,0.6944,5.514,1.6507,8.9688,3.875,0.1612,0.10312,0.30656,0.20392,0.46875,0.3125,0.19191,0.12918,0.36924,0.26886,0.5625,0.40625,0.14647,0.10337,0.29046,0.20438,0.4375,0.3125,0.20836,0.15421,0.4155,0.30438,0.625,0.46875,0.134,0.10429,0.27197,0.20402,0.40625,0.3125,0.22266,0.18122,0.43277,0.36908,0.65625,0.5625,0.11533,0.0992,0.22834,0.1788,0.34375,0.28125,0.24815,0.22125,0.50141,0.45028,0.75,0.6875,0.0956,0.0908,0.18574,0.18807,0.28125,0.28125,0.61107,0.59811,1.2039,1.2342,1.8125,1.9375-0.0426,0.70362-0.0625,1.4102-0.0625,2.1562,0,1.2781,0.0765,2.5036,0.1875,3.6563,0.0406,0.4164,0.0715,0.8176,0.125,1.2187,0.0292,0.2215,0.0608,0.4396,0.0937,0.6563,0.0424,0.2758,0.10813,0.5441,0.15625,0.8125,0.0853,0.481,0.14769,0.9494,0.25,1.4062,0.009,0.04,0.022,0.085,0.0312,0.125,0.102,0.447,0.22722,0.8884,0.34375,1.3125,0.0556,0.2016,0.12891,0.3972,0.1875,0.5938,0.13468,0.4531,0.25726,0.8858,0.40625,1.3125,0.006,0.019-0.006,0.044,0,0.062,0.33029,0.9398,0.71175,1.8082,1.0938,2.625,0.0229,0.049,0.0395,0.1073,0.0625,0.1562,0.0299,0.063,0.0637,0.1254,0.0937,0.1875,0.2755,0.5746,0.55447,1.1091,0.84375,1.625,0.10214,0.1801,0.20937,0.3583,0.3125,0.5313,0.67527,1.1473,1.3455,2.1119,2,2.9687-3.9438-1.2419-10.179-3.946-15.469-11.156-6.1436-8.3733-6.117-15.305-5.9688-19.688zm47.625,0c0.15097,4.3844,0.20565,11.315-5.9375,19.688-5.3627,7.309-11.694,9.9698-15.625,11.188,0.31486-0.4276,0.65556-0.8871,1-1.4063,0.47595-0.7148,0.98177-1.5473,1.4688-2.4375,0.22228-0.4081,0.43934-0.8055,0.65625-1.25,0.22199-0.4535,0.41387-0.9135,0.625-1.4062,0.11673-0.2715,0.23148-0.5606,0.34375-0.8438,0.0848-0.2151,0.16825-0.4342,0.25-0.6562,0.0684-0.1846,0.15267-0.3733,0.21875-0.5625,0.0527-0.1524,0.1052-0.3132,0.15625-0.4688,0.0919-0.277,0.16386-0.5571,0.25-0.8437,0.13899-0.4682,0.28483-0.9428,0.40625-1.4375,0.58844-2.36,0.96875-5.0252,0.96875-7.9688,0-0.76765-0.019-1.4968-0.0625-2.2188,0.60045-0.69061,1.1781-1.3178,1.7812-1.9062,0.10386-0.10115,0.20859-0.18292,0.3125-0.28125,0.23544-0.22354,0.45242-0.447,0.6875-0.65625,0.12228-0.10845,0.2528-0.20772,0.375-0.3125,0.22303-0.19204,0.43402-0.38257,0.65625-0.5625,0.13642-0.11019,0.27014-0.20663,0.40625-0.3125,0.53189-0.41517,1.0704-0.80424,1.5938-1.1562,0.0922-0.0618,0.18936-0.0962,0.28125-0.15625,3.5454-2.3263,6.814-3.322,9.1875-4.0312zm-6.6562,40.563c-0.66903,2.1157-1.7602,4.9135-5.6875,7.875-3.9108,2.9491-7.2084,3.2715-9.25,3.3437,0.59526-2.0585,1.7162-4.9115,5.6875-7.9062,3.9345-2.967,7.0222-3.2072,9.25-3.3125zm-33.875,7.9687c2.2276,0.1069,5.332,0.358,9.25,3.3125,3.9553,2.9827,5.0888,5.8168,5.6875,7.875-2.0402-0.071-5.3658-0.3598-9.2812-3.3125-3.9273-2.9615-4.9872-5.7593-5.6562-7.875z"></path></g></svg></svg> <defs>  </defs></g></g></g></mask><defs v-gra="od"></defs></svg>