<?xml version="1.0" standalone="no"?>
<!DOCTYPE svg PUBLIC "-//W3C//DTD SVG 20010904//EN"
 "http://www.w3.org/TR/2001/REC-SVG-20010904/DTD/svg10.dtd">
<svg version="1.0" xmlns="http://www.w3.org/2000/svg"
 width="1080.000000pt" height="1080.000000pt" viewBox="0 0 1080.000000 1080.000000"
 preserveAspectRatio="xMidYMid meet">
<metadata>
Created by potrace 1.14, written by Peter Selinger 2001-2017
</metadata>
<g transform="translate(0.000000,1080.000000) scale(0.100000,-0.100000)"
fill="#000000" stroke="none">
<path d="M0 5400 l0 -5400 5400 0 5400 0 0 1675 0 1675 -5385 0 -5385 0 0
2050 0 2050 5385 0 5385 0 0 1675 0 1675 -5400 0 -5400 0 0 -5400z"/>
<path d="M2490 5400 l0 -1960 4130 0 4130 0 0 1960 0 1960 -4130 0 -4130 0 0
-1960z m1053 864 c226 -50 390 -202 432 -401 24 -112 36 -103 -133 -103 l-147
0 -11 58 c-21 110 -94 186 -206 212 -77 19 -232 8 -291 -20 -80 -38 -127 -110
-127 -195 0 -129 83 -193 380 -290 378 -124 529 -262 547 -500 17 -230 -102
-389 -355 -473 -70 -23 -92 -26 -247 -26 -151 -1 -178 2 -245 22 -255 80 -430
271 -430 469 l0 43 149 0 148 0 6 -54 c10 -98 69 -176 166 -218 102 -44 301
-44 387 0 137 70 166 240 61 350 -46 48 -124 85 -315 148 -270 90 -410 176
-491 302 -56 88 -76 221 -47 327 44 165 192 295 392 344 101 25 277 27 377 5z
m1409 -451 c117 -40 206 -117 267 -232 48 -91 71 -196 78 -353 l6 -138 -418 0
-418 0 6 -52 c13 -105 89 -213 185 -260 40 -20 62 -23 152 -23 92 0 112 3 160
26 30 14 79 48 108 74 l54 48 75 -75 76 -76 -66 -65 c-108 -108 -222 -156
-393 -164 -84 -4 -130 -2 -188 11 -226 51 -391 216 -442 442 -24 110 -16 352
16 444 72 211 211 351 401 405 75 21 263 14 341 -12z m1291 -1 c126 -45 213
-126 258 -239 23 -56 23 -71 29 -473 6 -390 8 -419 28 -480 12 -36 22 -68 22
-72 0 -5 -67 -8 -148 -8 l-149 0 -11 39 c-7 21 -12 46 -12 55 0 23 -12 20 -56
-15 -85 -68 -177 -99 -294 -99 -130 0 -226 37 -315 121 -111 105 -142 259 -85
413 41 109 147 192 300 236 59 17 113 23 253 27 l177 6 0 71 c-1 148 -76 226
-219 226 -79 0 -126 -16 -172 -57 -28 -26 -41 -46 -45 -74 l-7 -39 -145 0
-145 0 6 45 c22 157 187 298 390 335 88 15 274 6 340 -18z m1432 -11 c100 -50
159 -130 190 -264 12 -50 15 -154 15 -529 l0 -468 -139 0 -140 0 -3 458 -3
458 -25 49 c-36 70 -97 100 -200 100 -84 -1 -139 -22 -198 -78 -64 -61 -62
-43 -62 -537 l0 -450 -140 0 -140 0 0 640 0 640 135 0 135 0 0 -70 c0 -38 3
-70 6 -70 4 0 28 20 54 44 94 88 186 118 343 112 97 -3 114 -7 172 -35z m1178
24 c133 -35 257 -127 310 -231 33 -64 57 -148 57 -196 l0 -38 -135 0 c-131 0
-135 1 -135 21 0 51 -27 106 -75 156 -55 56 -96 73 -180 73 -82 0 -123 -17
-181 -75 -44 -43 -57 -65 -76 -126 -20 -65 -23 -95 -23 -234 0 -181 12 -239
67 -321 58 -86 172 -122 296 -94 46 10 65 21 108 65 41 41 55 63 60 94 l7 41
135 0 135 0 -6 -50 c-20 -167 -179 -325 -379 -376 -85 -22 -258 -14 -342 15
-161 57 -274 177 -336 355 -43 126 -50 362 -15 501 53 209 200 364 395 416 82
22 235 24 313 4z m1291 -5 c298 -76 459 -356 424 -738 -26 -282 -190 -490
-430 -547 -82 -19 -238 -19 -313 0 -225 58 -380 236 -424 489 -25 140 -6 346
42 461 72 172 215 298 383 339 88 21 227 20 318 -4z"/>
<path d="M4661 5598 c-18 -5 -57 -33 -86 -61 -52 -53 -84 -117 -99 -199 l-7
-38 275 0 276 0 -7 48 c-16 123 -86 228 -168 251 -48 13 -137 13 -184 -1z"/>
<path d="M5975 5133 c-135 -30 -205 -99 -205 -203 0 -118 91 -189 231 -177 82
7 151 40 202 96 l37 41 0 125 0 125 -122 -1 c-68 -1 -132 -3 -143 -6z"/>
<path d="M9880 5594 c-89 -31 -166 -138 -190 -265 -16 -82 -13 -265 5 -334 27
-102 88 -185 163 -221 46 -23 158 -30 209 -14 133 42 206 168 220 379 6 97 -7
193 -38 277 -28 74 -105 158 -166 178 -58 20 -144 20 -203 0z"/>
<path d="M1207 7115 c-30 -41 -76 -112 -103 -157 -26 -46 -49 -85 -50 -87 -2
-2 -33 24 -70 58 -37 34 -105 87 -151 118 -68 46 -87 55 -101 47 -20 -13 -66
-151 -83 -251 -7 -40 -16 -73 -19 -73 -3 0 -42 15 -87 34 -106 45 -221 79
-240 72 -13 -6 -15 -30 -10 -179 6 -213 30 -315 115 -491 154 -319 401 -541
731 -656 l106 -38 2 -468 3 -469 -31 53 c-61 103 -190 222 -305 280 -101 51
-306 92 -347 70 -27 -14 -16 -72 35 -178 34 -71 56 -100 132 -175 132 -131
271 -198 441 -214 l70 -6 5 -395 5 -395 25 0 25 0 3 547 2 547 58 6 c316 34
556 217 647 493 24 74 18 82 -57 82 -236 0 -499 -161 -617 -378 l-31 -57 3
329 2 329 75 24 c444 142 787 531 865 982 20 114 20 350 1 357 -19 7 -165 -37
-251 -76 -37 -17 -70 -30 -74 -30 -3 0 -12 30 -19 68 -15 81 -60 232 -74 250
-6 6 -16 12 -22 12 -19 0 -155 -94 -236 -164 l-74 -64 -46 82 c-63 113 -157
236 -180 236 -12 0 -39 -29 -73 -75z m152 -120 c130 -197 183 -382 184 -640 1
-217 -31 -362 -121 -540 -39 -79 -130 -215 -143 -215 -16 0 -108 134 -148 215
-83 171 -114 312 -114 525 -1 219 31 365 115 535 38 75 136 225 148 225 5 0
40 -47 79 -105z m-525 -29 c33 -24 91 -71 128 -105 l66 -61 -23 -73 c-13 -39
-30 -100 -37 -135 l-13 -62 -70 60 c-38 33 -95 77 -127 98 -67 43 -68 45 -38
172 24 101 40 150 47 150 3 0 33 -20 67 -44z m981 -9 c18 -64 45 -186 45 -209
0 -10 -25 -35 -60 -58 -33 -22 -90 -67 -127 -101 l-68 -60 -8 43 c-4 24 -20
85 -34 136 l-26 93 29 31 c32 34 215 178 226 178 4 0 14 -24 23 -53z m-1374
-186 c172 -58 327 -152 440 -268 l67 -68 5 -145 c9 -249 69 -448 191 -629 20
-30 35 -55 34 -56 -9 -8 -170 64 -242 108 -311 190 -532 524 -576 871 -9 75
-14 216 -7 216 2 0 41 -13 88 -29z m1766 -93 c-14 -264 -106 -494 -288 -713
-111 -134 -269 -253 -421 -318 -139 -58 -137 -59 -88 13 125 185 200 435 200
670 l0 107 83 79 c91 88 155 133 267 189 69 35 222 94 244 95 5 0 6 -52 3
-122z m-283 -1515 c-34 -79 -68 -127 -137 -192 -105 -102 -236 -167 -355 -178
l-64 -6 7 24 c62 203 325 405 532 408 l43 1 -26 -57z m-1165 -268 c178 -42
371 -205 432 -365 l19 -50 -38 0 c-102 0 -266 73 -368 164 -71 64 -126 140
-154 214 l-20 52 33 0 c17 0 61 -7 96 -15z"/>
</g>
</svg>
